<svg xmlns="http://www.w3.org/2000/svg" width="800" height="450"><path d="M-47,-117L43,-109L315,-114Z" fill="#da4429" stroke="#da4429" stroke-width="1.51"/><path d="M249,558L4,564L373,561Z" fill="#a02818" stroke="#a02818" stroke-width="1.51"/><path d="M315,-114L408,-102L588,-94Z" fill="#c83b23" stroke="#c83b23" stroke-width="1.51"/><path d="M740,542L655,551L811,550Z" fill="#871c10" stroke="#871c10" stroke-width="1.51"/><path d="M826,122L829,170L872,93Z" fill="#a12918" stroke="#a12918" stroke-width="1.51"/><path d="M588,-94L659,-92L874,-101Z" fill="#b9351f" stroke="#b9351f" stroke-width="1.51"/><path d="M315,-114L588,-94L874,-101Z" fill="#bf3821" stroke="#bf3821" stroke-width="1.51"/><path d="M659,-92L765,-76L874,-101Z" fill="#b5331e" stroke="#b5331e" stroke-width="1.51"/><path d="M872,93L829,170L880,216Z" fill="#9e2717" stroke="#9e2717" stroke-width="1.51"/><path d="M847,343L884,389L888,309Z" fill="#8f2013" stroke="#8f2013" stroke-width="1.51"/><path d="M880,216L869,276L888,309Z" fill="#952314" stroke="#952314" stroke-width="1.51"/><path d="M872,93L880,216L894,77Z" fill="#9f2817" stroke="#9f2817" stroke-width="1.51"/><path d="M880,216L888,309L894,77Z" fill="#9a2516" stroke="#9a2516" stroke-width="1.51"/><path d="M799,-19L807,28L896,-43Z" fill="#ac2e1c" stroke="#ac2e1c" stroke-width="1.51"/><path d="M807,28L894,77L896,-43Z" fill="#a82c1a" stroke="#a82c1a" stroke-width="1.51"/><path d="M811,550L655,551L896,566Z" fill="#841a0f" stroke="#841a0f" stroke-width="1.51"/><path d="M655,551L523,561L896,566Z" fill="#881d11" stroke="#881d11" stroke-width="1.51"/><path d="M896,-43L894,77L905,477Z" fill="#9b2616" stroke="#9b2616" stroke-width="1.51"/><path d="M884,389L825,450L905,477Z" fill="#881d11" stroke="#881d11" stroke-width="1.51"/><path d="M811,550L896,566L905,477Z" fill="#81190f" stroke="#81190f" stroke-width="1.51"/><path d="M825,450L811,550L905,477Z" fill="#861b10" stroke="#861b10" stroke-width="1.51"/><path d="M888,309L884,389L905,477Z" fill="#8b1e11" stroke="#8b1e11" stroke-width="1.51"/><path d="M894,77L888,309L905,477Z" fill="#922214" stroke="#922214" stroke-width="1.51"/><path d="M832,387L825,450L884,389Z" fill="#8c1e11" stroke="#8c1e11" stroke-width="1.51"/><path d="M807,28L872,93L894,77Z" fill="#a52a19" stroke="#a52a19" stroke-width="1.51"/><path d="M822,-67L799,-19L896,-43Z" fill="#ae2f1c" stroke="#ae2f1c" stroke-width="1.51"/><path d="M874,-101L822,-67L896,-43Z" fill="#af301c" stroke="#af301c" stroke-width="1.51"/><path d="M830,232L869,276L880,216Z" fill="#982415" stroke="#982415" stroke-width="1.51"/><path d="M765,-76L822,-67L874,-101Z" fill="#b2311d" stroke="#b2311d" stroke-width="1.51"/><path d="M847,343L832,387L884,389Z" fill="#8e1f12" stroke="#8e1f12" stroke-width="1.51"/><path d="M869,276L847,343L888,309Z" fill="#922214" stroke="#922214" stroke-width="1.51"/><path d="M408,-102L457,-91L588,-94Z" fill="#c43a23" stroke="#c43a23" stroke-width="1.51"/><path d="M829,170L830,232L880,216Z" fill="#9b2616" stroke="#9b2616" stroke-width="1.51"/><path d="M807,28L826,122L872,93Z" fill="#a52b19" stroke="#a52b19" stroke-width="1.51"/><path d="M773,254L847,343L869,276Z" fill="#952314" stroke="#952314" stroke-width="1.51"/><path d="M773,254L772,338L847,343Z" fill="#952315" stroke="#952315" stroke-width="1.51"/><path d="M830,232L773,254L869,276Z" fill="#992415" stroke="#992415" stroke-width="1.51"/><path d="M772,338L832,387L847,343Z" fill="#912113" stroke="#912113" stroke-width="1.51"/><path d="M619,546L523,561L655,551Z" fill="#8d1f12" stroke="#8d1f12" stroke-width="1.51"/><path d="M736,28L769,142L807,28Z" fill="#a92d1a" stroke="#a92d1a" stroke-width="1.51"/><path d="M748,442L740,542L811,550Z" fill="#881d11" stroke="#881d11" stroke-width="1.51"/><path d="M748,442L811,550L825,450Z" fill="#891d11" stroke="#891d11" stroke-width="1.51"/><path d="M749,406L748,442L825,450Z" fill="#8e2012" stroke="#8e2012" stroke-width="1.51"/><path d="M807,28L769,142L826,122Z" fill="#a62b19" stroke="#a62b19" stroke-width="1.51"/><path d="M729,174L773,254L829,170Z" fill="#9f2717" stroke="#9f2717" stroke-width="1.51"/><path d="M769,142L729,174L829,170Z" fill="#a22918" stroke="#a22918" stroke-width="1.51"/><path d="M826,122L769,142L829,170Z" fill="#a12918" stroke="#a12918" stroke-width="1.51"/><path d="M829,170L773,254L830,232Z" fill="#9c2616" stroke="#9c2616" stroke-width="1.51"/><path d="M749,406L825,450L832,387Z" fill="#8d1f12" stroke="#8d1f12" stroke-width="1.51"/><path d="M772,338L749,406L832,387Z" fill="#912113" stroke="#912113" stroke-width="1.51"/><path d="M765,-76L799,-19L822,-67Z" fill="#b2311d" stroke="#b2311d" stroke-width="1.51"/><path d="M799,-19L746,-6L807,28Z" fill="#ae2f1c" stroke="#ae2f1c" stroke-width="1.51"/><path d="M736,28L692,71L769,142Z" fill="#aa2d1b" stroke="#aa2d1b" stroke-width="1.51"/><path d="M746,-6L736,28L807,28Z" fill="#ad2f1c" stroke="#ad2f1c" stroke-width="1.51"/><path d="M765,-76L746,-6L799,-19Z" fill="#b1311d" stroke="#b1311d" stroke-width="1.51"/><path d="M694,453L740,542L748,442Z" fill="#8c1f12" stroke="#8c1f12" stroke-width="1.51"/><path d="M692,71L673,101L769,142Z" fill="#aa2d1a" stroke="#aa2d1a" stroke-width="1.51"/><path d="M657,310L749,406L772,338Z" fill="#962315" stroke="#962315" stroke-width="1.51"/><path d="M683,246L657,310L772,338Z" fill="#9b2616" stroke="#9b2616" stroke-width="1.51"/><path d="M729,174L692,213L773,254Z" fill="#a02818" stroke="#a02818" stroke-width="1.51"/><path d="M683,246L772,338L773,254Z" fill="#9b2516" stroke="#9b2516" stroke-width="1.51"/><path d="M692,213L683,246L773,254Z" fill="#9f2717" stroke="#9f2717" stroke-width="1.51"/><path d="M673,101L729,174L769,142Z" fill="#a62b19" stroke="#a62b19" stroke-width="1.51"/><path d="M675,-19L746,-6L765,-76Z" fill="#b3321e" stroke="#b3321e" stroke-width="1.51"/><path d="M657,310L693,426L749,406Z" fill="#952315" stroke="#952315" stroke-width="1.51"/><path d="M659,-92L675,-19L765,-76Z" fill="#b7331f" stroke="#b7331f" stroke-width="1.51"/><path d="M694,453L655,551L740,542Z" fill="#8b1e12" stroke="#8b1e12" stroke-width="1.51"/><path d="M693,426L748,442L749,406Z" fill="#902013" stroke="#902013" stroke-width="1.51"/><path d="M693,426L694,453L748,442Z" fill="#902113" stroke="#902113" stroke-width="1.51"/><path d="M675,-19L736,28L746,-6Z" fill="#b1301d" stroke="#b1301d" stroke-width="1.51"/><path d="M675,-19L692,71L736,28Z" fill="#b0301c" stroke="#b0301c" stroke-width="1.51"/><path d="M673,101L692,213L729,174Z" fill="#a62b19" stroke="#a62b19" stroke-width="1.51"/><path d="M117,548L4,564L249,558Z" fill="#a52a19" stroke="#a52a19" stroke-width="1.51"/><path d="M457,-91L525,-81L588,-94Z" fill="#c23922" stroke="#c23922" stroke-width="1.51"/><path d="M590,491L619,546L655,551Z" fill="#8e1f12" stroke="#8e1f12" stroke-width="1.51"/><path d="M673,101L623,110L692,213Z" fill="#a92d1a" stroke="#a92d1a" stroke-width="1.51"/><path d="M623,110L598,193L692,213Z" fill="#a82c1a" stroke="#a82c1a" stroke-width="1.51"/><path d="M675,-19L608,28L692,71Z" fill="#b2311d" stroke="#b2311d" stroke-width="1.51"/><path d="M657,310L606,336L693,426Z" fill="#992516" stroke="#992516" stroke-width="1.51"/><path d="M606,336L597,417L693,426Z" fill="#982416" stroke="#982416" stroke-width="1.51"/><path d="M590,491L655,551L694,453Z" fill="#8f2012" stroke="#8f2012" stroke-width="1.51"/><path d="M693,426L597,417L694,453Z" fill="#932214" stroke="#932214" stroke-width="1.51"/><path d="M597,417L590,491L694,453Z" fill="#932214" stroke="#932214" stroke-width="1.51"/><path d="M598,240L683,246L692,213Z" fill="#a22918" stroke="#a22918" stroke-width="1.51"/><path d="M598,193L598,240L692,213Z" fill="#a52b19" stroke="#a52b19" stroke-width="1.51"/><path d="M608,28L673,101L692,71Z" fill="#af2f1c" stroke="#af2f1c" stroke-width="1.51"/><path d="M608,28L623,110L673,101Z" fill="#af301c" stroke="#af301c" stroke-width="1.51"/><path d="M598,240L657,310L683,246Z" fill="#a02818" stroke="#a02818" stroke-width="1.51"/><path d="M588,-94L590,-4L659,-92Z" fill="#bb3620" stroke="#bb3620" stroke-width="1.51"/><path d="M659,-92L590,-4L675,-19Z" fill="#b8341f" stroke="#b8341f" stroke-width="1.51"/><path d="M590,-4L608,28L675,-19Z" fill="#b6331e" stroke="#b6331e" stroke-width="1.51"/><path d="M598,240L606,336L657,310Z" fill="#9f2817" stroke="#9f2817" stroke-width="1.51"/><path d="M566,234L561,340L598,240Z" fill="#a32a18" stroke="#a32a18" stroke-width="1.51"/><path d="M598,240L561,340L606,336Z" fill="#a02818" stroke="#a02818" stroke-width="1.51"/><path d="M561,340L597,417L606,336Z" fill="#9c2617" stroke="#9c2617" stroke-width="1.51"/><path d="M536,130L554,162L623,110Z" fill="#ae2f1c" stroke="#ae2f1c" stroke-width="1.51"/><path d="M608,28L539,63L623,110Z" fill="#b3311d" stroke="#b3311d" stroke-width="1.51"/><path d="M539,63L536,130L623,110Z" fill="#b1311c" stroke="#b1311c" stroke-width="1.51"/><path d="M554,162L598,193L623,110Z" fill="#ac2e1b" stroke="#ac2e1b" stroke-width="1.51"/><path d="M560,420L590,491L597,417Z" fill="#962315" stroke="#962315" stroke-width="1.51"/><path d="M590,491L559,495L619,546Z" fill="#912113" stroke="#912113" stroke-width="1.51"/><path d="M559,495L523,561L619,546Z" fill="#902113" stroke="#902113" stroke-width="1.51"/><path d="M525,-81L532,-12L588,-94Z" fill="#bf3721" stroke="#bf3721" stroke-width="1.51"/><path d="M588,-94L532,-12L590,-4Z" fill="#bc3620" stroke="#bc3620" stroke-width="1.51"/><path d="M560,420L559,495L590,491Z" fill="#952314" stroke="#952314" stroke-width="1.51"/><path d="M561,340L560,420L597,417Z" fill="#9b2616" stroke="#9b2616" stroke-width="1.51"/><path d="M566,234L598,240L598,193Z" fill="#a62b1a" stroke="#a62b1a" stroke-width="1.51"/><path d="M590,-4L539,63L608,28Z" fill="#b6331e" stroke="#b6331e" stroke-width="1.51"/><path d="M532,-12L539,63L590,-4Z" fill="#b8341f" stroke="#b8341f" stroke-width="1.51"/><path d="M554,162L566,234L598,193Z" fill="#a92d1a" stroke="#a92d1a" stroke-width="1.51"/><path d="M457,304L561,340L566,234Z" fill="#a42a19" stroke="#a42a19" stroke-width="1.51"/><path d="M477,407L454,493L559,495Z" fill="#992416" stroke="#992416" stroke-width="1.51"/><path d="M477,407L559,495L560,420Z" fill="#992515" stroke="#992515" stroke-width="1.51"/><path d="M477,407L560,420L561,340Z" fill="#9d2716" stroke="#9d2716" stroke-width="1.51"/><path d="M554,162L471,182L566,234Z" fill="#ac2e1b" stroke="#ac2e1b" stroke-width="1.51"/><path d="M471,182L458,258L566,234Z" fill="#ab2d1a" stroke="#ab2d1a" stroke-width="1.51"/><path d="M458,258L457,304L566,234Z" fill="#a82c1a" stroke="#a82c1a" stroke-width="1.51"/><path d="M457,304L477,407L561,340Z" fill="#a12918" stroke="#a12918" stroke-width="1.51"/><path d="M454,493L523,561L559,495Z" fill="#942314" stroke="#942314" stroke-width="1.51"/><path d="M536,130L471,182L554,162Z" fill="#af2f1c" stroke="#af2f1c" stroke-width="1.51"/><path d="M454,493L459,561L523,561Z" fill="#942214" stroke="#942214" stroke-width="1.51"/><path d="M525,-81L457,-91L532,-12Z" fill="#c13821" stroke="#c13821" stroke-width="1.51"/><path d="M457,-91L446,3L532,-12Z" fill="#c03821" stroke="#c03821" stroke-width="1.51"/><path d="M446,3L450,55L532,-12Z" fill="#bc3620" stroke="#bc3620" stroke-width="1.51"/><path d="M532,-12L450,55L539,63Z" fill="#b9351f" stroke="#b9351f" stroke-width="1.51"/><path d="M448,124L536,130L539,63Z" fill="#b3321d" stroke="#b3321d" stroke-width="1.51"/><path d="M450,55L448,124L539,63Z" fill="#b7331e" stroke="#b7331e" stroke-width="1.51"/><path d="M448,124L471,182L536,130Z" fill="#b1311d" stroke="#b1311d" stroke-width="1.51"/><path d="M386,-15L446,3L457,-91Z" fill="#c33922" stroke="#c33922" stroke-width="1.51"/><path d="M396,338L421,401L457,304Z" fill="#a52b19" stroke="#a52b19" stroke-width="1.51"/><path d="M375,205L458,258L471,182Z" fill="#af2f1c" stroke="#af2f1c" stroke-width="1.51"/><path d="M457,304L421,401L477,407Z" fill="#a22a18" stroke="#a22a18" stroke-width="1.51"/><path d="M421,401L454,493L477,407Z" fill="#9e2717" stroke="#9e2717" stroke-width="1.51"/><path d="M421,401L391,495L454,493Z" fill="#9d2617" stroke="#9d2617" stroke-width="1.51"/><path d="M408,-102L386,-15L457,-91Z" fill="#c63b23" stroke="#c63b23" stroke-width="1.51"/><path d="M454,493L391,495L459,561Z" fill="#982415" stroke="#982415" stroke-width="1.51"/><path d="M448,124L375,205L471,182Z" fill="#b2311d" stroke="#b2311d" stroke-width="1.51"/><path d="M398,113L375,205L448,124Z" fill="#b5331e" stroke="#b5331e" stroke-width="1.51"/><path d="M398,113L448,124L450,55Z" fill="#b8341e" stroke="#b8341e" stroke-width="1.51"/><path d="M384,75L398,113L450,55Z" fill="#ba351f" stroke="#ba351f" stroke-width="1.51"/><path d="M404,282L457,304L458,258Z" fill="#a92d1a" stroke="#a92d1a" stroke-width="1.51"/><path d="M375,205L404,282L458,258Z" fill="#ad2f1b" stroke="#ad2f1b" stroke-width="1.51"/><path d="M391,495L373,561L459,561Z" fill="#982415" stroke="#982415" stroke-width="1.51"/><path d="M404,282L396,338L457,304Z" fill="#a82c1a" stroke="#a82c1a" stroke-width="1.51"/><path d="M386,-15L384,75L446,3Z" fill="#bf3821" stroke="#bf3821" stroke-width="1.51"/><path d="M446,3L384,75L450,55Z" fill="#bc3620" stroke="#bc3620" stroke-width="1.51"/><path d="M43,-109L170,-71L315,-114Z" fill="#d54227" stroke="#d54227" stroke-width="1.51"/><path d="M320,469L391,495L421,401Z" fill="#9f2817" stroke="#9f2817" stroke-width="1.51"/><path d="M321,396L320,469L421,401Z" fill="#a32a19" stroke="#a32a19" stroke-width="1.51"/><path d="M396,338L321,396L421,401Z" fill="#a52b19" stroke="#a52b19" stroke-width="1.51"/><path d="M341,65L384,75L386,-15Z" fill="#bf3821" stroke="#bf3821" stroke-width="1.51"/><path d="M332,-2L341,65L386,-15Z" fill="#c33922" stroke="#c33922" stroke-width="1.51"/><path d="M317,129L375,205L398,113Z" fill="#b8341f" stroke="#b8341f" stroke-width="1.51"/><path d="M375,205L307,233L404,282Z" fill="#b1301d" stroke="#b1301d" stroke-width="1.51"/><path d="M315,-114L386,-15L408,-102Z" fill="#c93c24" stroke="#c93c24" stroke-width="1.51"/><path d="M315,-114L332,-2L386,-15Z" fill="#c83c23" stroke="#c83c23" stroke-width="1.51"/><path d="M336,513L373,561L391,495Z" fill="#9b2616" stroke="#9b2616" stroke-width="1.51"/><path d="M307,233L284,313L404,282Z" fill="#af301c" stroke="#af301c" stroke-width="1.51"/><path d="M305,344L396,338L404,282Z" fill="#aa2d1a" stroke="#aa2d1a" stroke-width="1.51"/><path d="M284,313L305,344L404,282Z" fill="#ad2f1b" stroke="#ad2f1b" stroke-width="1.51"/><path d="M316,216L307,233L375,205Z" fill="#b4321e" stroke="#b4321e" stroke-width="1.51"/><path d="M305,344L321,396L396,338Z" fill="#a92c1a" stroke="#a92c1a" stroke-width="1.51"/><path d="M384,75L317,129L398,113Z" fill="#ba351f" stroke="#ba351f" stroke-width="1.51"/><path d="M341,65L317,129L384,75Z" fill="#bd3620" stroke="#bd3620" stroke-width="1.51"/><path d="M315,-114L281,-76L332,-2Z" fill="#cb3d24" stroke="#cb3d24" stroke-width="1.51"/><path d="M320,469L336,513L391,495Z" fill="#9e2717" stroke="#9e2717" stroke-width="1.51"/><path d="M317,129L316,216L375,205Z" fill="#b6331e" stroke="#b6331e" stroke-width="1.51"/><path d="M336,513L249,558L373,561Z" fill="#9c2616" stroke="#9c2616" stroke-width="1.51"/><path d="M273,269L284,313L307,233Z" fill="#b2311d" stroke="#b2311d" stroke-width="1.51"/><path d="M278,212L316,216L317,129Z" fill="#b8341e" stroke="#b8341e" stroke-width="1.51"/><path d="M269,426L320,469L321,396Z" fill="#a52b19" stroke="#a52b19" stroke-width="1.51"/><path d="M255,-1L246,48L332,-2Z" fill="#c73b23" stroke="#c73b23" stroke-width="1.51"/><path d="M332,-2L246,48L341,65Z" fill="#c33922" stroke="#c33922" stroke-width="1.51"/><path d="M246,48L317,129L341,65Z" fill="#c03821" stroke="#c03821" stroke-width="1.51"/><path d="M281,-76L255,-1L332,-2Z" fill="#c93c24" stroke="#c93c24" stroke-width="1.51"/><path d="M320,469L268,473L336,513Z" fill="#a12918" stroke="#a12918" stroke-width="1.51"/><path d="M268,473L249,558L336,513Z" fill="#a02818" stroke="#a02818" stroke-width="1.51"/><path d="M247,141L278,212L317,129Z" fill="#bb351f" stroke="#bb351f" stroke-width="1.51"/><path d="M170,-71L281,-76L315,-114Z" fill="#d04026" stroke="#d04026" stroke-width="1.51"/><path d="M246,48L247,141L317,129Z" fill="#bf3821" stroke="#bf3821" stroke-width="1.51"/><path d="M269,426L268,473L320,469Z" fill="#a42a19" stroke="#a42a19" stroke-width="1.51"/><path d="M305,344L269,426L321,396Z" fill="#a82c1a" stroke="#a82c1a" stroke-width="1.51"/><path d="M278,212L307,233L316,216Z" fill="#b5331e" stroke="#b5331e" stroke-width="1.51"/><path d="M208,351L269,426L305,344Z" fill="#ac2e1b" stroke="#ac2e1b" stroke-width="1.51"/><path d="M278,212L273,269L307,233Z" fill="#b5321e" stroke="#b5321e" stroke-width="1.51"/><path d="M284,313L208,351L305,344Z" fill="#ae2f1c" stroke="#ae2f1c" stroke-width="1.51"/><path d="M208,351L206,426L269,426Z" fill="#ab2e1b" stroke="#ab2e1b" stroke-width="1.51"/><path d="M247,141L212,163L278,212Z" fill="#bc3620" stroke="#bc3620" stroke-width="1.51"/><path d="M180,242L273,269L278,212Z" fill="#b7331e" stroke="#b7331e" stroke-width="1.51"/><path d="M186,-47L255,-1L281,-76Z" fill="#cd3e25" stroke="#cd3e25" stroke-width="1.51"/><path d="M273,269L208,351L284,313Z" fill="#b1311d" stroke="#b1311d" stroke-width="1.51"/><path d="M170,-71L186,-47L281,-76Z" fill="#d04026" stroke="#d04026" stroke-width="1.51"/><path d="M178,469L249,558L268,473Z" fill="#a42a19" stroke="#a42a19" stroke-width="1.51"/><path d="M212,163L180,242L278,212Z" fill="#ba351f" stroke="#ba351f" stroke-width="1.51"/><path d="M178,469L163,519L249,558Z" fill="#a42a19" stroke="#a42a19" stroke-width="1.51"/><path d="M206,426L268,473L269,426Z" fill="#a72c1a" stroke="#a72c1a" stroke-width="1.51"/><path d="M180,242L208,351L273,269Z" fill="#b5321e" stroke="#b5321e" stroke-width="1.51"/><path d="M246,48L169,127L247,141Z" fill="#c23922" stroke="#c23922" stroke-width="1.51"/><path d="M206,426L178,469L268,473Z" fill="#a82c1a" stroke="#a82c1a" stroke-width="1.51"/><path d="M163,519L117,548L249,558Z" fill="#a32a19" stroke="#a32a19" stroke-width="1.51"/><path d="M180,22L246,48L255,-1Z" fill="#c83c24" stroke="#c83c24" stroke-width="1.51"/><path d="M186,-47L180,22L255,-1Z" fill="#cc3e24" stroke="#cc3e24" stroke-width="1.51"/><path d="M43,-109L93,-73L170,-71Z" fill="#d74328" stroke="#d74328" stroke-width="1.51"/><path d="M180,22L169,127L246,48Z" fill="#c73b23" stroke="#c73b23" stroke-width="1.51"/><path d="M169,127L212,163L247,141Z" fill="#c03821" stroke="#c03821" stroke-width="1.51"/><path d="M107,279L124,334L180,242Z" fill="#b9351f" stroke="#b9351f" stroke-width="1.51"/><path d="M169,127L92,176L180,242Z" fill="#c03821" stroke="#c03821" stroke-width="1.51"/><path d="M180,242L124,334L208,351Z" fill="#b5331e" stroke="#b5331e" stroke-width="1.51"/><path d="M136,381L206,426L208,351Z" fill="#af2f1c" stroke="#af2f1c" stroke-width="1.51"/><path d="M169,127L180,242L212,163Z" fill="#be3721" stroke="#be3721" stroke-width="1.51"/><path d="M124,334L136,381L208,351Z" fill="#b2311d" stroke="#b2311d" stroke-width="1.51"/><path d="M125,129L92,176L169,127Z" fill="#c43a22" stroke="#c43a22" stroke-width="1.51"/><path d="M136,381L178,469L206,426Z" fill="#ac2e1b" stroke="#ac2e1b" stroke-width="1.51"/><path d="M93,41L125,129L169,127Z" fill="#c83c23" stroke="#c83c23" stroke-width="1.51"/><path d="M136,381L108,468L178,469Z" fill="#ad2e1c" stroke="#ad2e1c" stroke-width="1.51"/><path d="M93,41L169,127L180,22Z" fill="#c93d24" stroke="#c93d24" stroke-width="1.51"/><path d="M124,-37L180,22L186,-47Z" fill="#cf3f26" stroke="#cf3f26" stroke-width="1.51"/><path d="M170,-71L124,-37L186,-47Z" fill="#d24026" stroke="#d24026" stroke-width="1.51"/><path d="M108,468L163,519L178,469Z" fill="#a92d1a" stroke="#a92d1a" stroke-width="1.51"/><path d="M124,-37L93,41L180,22Z" fill="#cf3f26" stroke="#cf3f26" stroke-width="1.51"/><path d="M92,176L107,279L180,242Z" fill="#bd3720" stroke="#bd3720" stroke-width="1.51"/><path d="M93,-73L124,-37L170,-71Z" fill="#d44227" stroke="#d44227" stroke-width="1.51"/><path d="M108,468L117,548L163,519Z" fill="#a82c1a" stroke="#a82c1a" stroke-width="1.51"/><path d="M45,194L63,278L92,176Z" fill="#c23922" stroke="#c23922" stroke-width="1.51"/><path d="M92,176L63,278L107,279Z" fill="#be3721" stroke="#be3721" stroke-width="1.51"/><path d="M55,343L66,399L124,334Z" fill="#b6331e" stroke="#b6331e" stroke-width="1.51"/><path d="M93,41L49,97L125,129Z" fill="#ca3d24" stroke="#ca3d24" stroke-width="1.51"/><path d="M124,334L66,399L136,381Z" fill="#b4321e" stroke="#b4321e" stroke-width="1.51"/><path d="M66,399L108,468L136,381Z" fill="#b1301d" stroke="#b1301d" stroke-width="1.51"/><path d="M63,278L55,343L107,279Z" fill="#bb3620" stroke="#bb3620" stroke-width="1.51"/><path d="M108,468L35,533L117,548Z" fill="#aa2d1b" stroke="#aa2d1b" stroke-width="1.51"/><path d="M35,533L4,564L117,548Z" fill="#a92d1a" stroke="#a92d1a" stroke-width="1.51"/><path d="M107,279L55,343L124,334Z" fill="#b9341f" stroke="#b9341f" stroke-width="1.51"/><path d="M24,-29L93,41L124,-37Z" fill="#d24126" stroke="#d24126" stroke-width="1.51"/><path d="M93,-73L24,-29L124,-37Z" fill="#d54227" stroke="#d54227" stroke-width="1.51"/><path d="M49,97L92,176L125,129Z" fill="#c73b23" stroke="#c73b23" stroke-width="1.51"/><path d="M50,58L49,97L93,41Z" fill="#ce3e25" stroke="#ce3e25" stroke-width="1.51"/><path d="M26,496L35,533L108,468Z" fill="#ad2f1b" stroke="#ad2f1b" stroke-width="1.51"/><path d="M66,399L26,496L108,468Z" fill="#b0301c" stroke="#b0301c" stroke-width="1.51"/><path d="M49,97L45,194L92,176Z" fill="#c73b23" stroke="#c73b23" stroke-width="1.51"/><path d="M43,-109L24,-29L93,-73Z" fill="#d94428" stroke="#d94428" stroke-width="1.51"/><path d="M24,-29L50,58L93,41Z" fill="#d14126" stroke="#d14126" stroke-width="1.51"/><path d="M-8,99L45,194L49,97Z" fill="#cb3d24" stroke="#cb3d24" stroke-width="1.51"/><path d="M24,-29L-24,43L50,58Z" fill="#d34127" stroke="#d34127" stroke-width="1.51"/><path d="M6,267L55,343L63,278Z" fill="#bd3620" stroke="#bd3620" stroke-width="1.51"/><path d="M45,194L6,267L63,278Z" fill="#c13921" stroke="#c13921" stroke-width="1.51"/><path d="M55,343L-8,418L66,399Z" fill="#b7331e" stroke="#b7331e" stroke-width="1.51"/><path d="M-8,418L26,496L66,399Z" fill="#b3311d" stroke="#b3311d" stroke-width="1.51"/><path d="M-8,99L-42,174L45,194Z" fill="#ca3d24" stroke="#ca3d24" stroke-width="1.51"/><path d="M-31,-42L24,-29L43,-109Z" fill="#da4529" stroke="#da4529" stroke-width="1.51"/><path d="M-8,99L49,97L50,58Z" fill="#ce3f25" stroke="#ce3f25" stroke-width="1.51"/><path d="M6,267L-45,326L55,343Z" fill="#be3721" stroke="#be3721" stroke-width="1.51"/><path d="M-45,326L-8,418L55,343Z" fill="#ba351f" stroke="#ba351f" stroke-width="1.51"/><path d="M-24,43L-8,99L50,58Z" fill="#d14026" stroke="#d14026" stroke-width="1.51"/><path d="M-47,-117L-31,-42L43,-109Z" fill="#de462a" stroke="#de462a" stroke-width="1.51"/><path d="M-42,174L6,267L45,194Z" fill="#c53a23" stroke="#c53a23" stroke-width="1.51"/><path d="M-8,418L-44,480L26,496Z" fill="#b3311d" stroke="#b3311d" stroke-width="1.51"/><path d="M26,496L4,564L35,533Z" fill="#ac2e1b" stroke="#ac2e1b" stroke-width="1.51"/><path d="M-31,-42L-24,43L24,-29Z" fill="#d84328" stroke="#d84328" stroke-width="1.51"/><path d="M-44,480L4,564L26,496Z" fill="#af301c" stroke="#af301c" stroke-width="1.51"/><path d="M-31,-42L-65,7L-24,43Z" fill="#d84428" stroke="#d84428" stroke-width="1.51"/><path d="M-45,326L-82,421L-8,418Z" fill="#ba351f" stroke="#ba351f" stroke-width="1.51"/><path d="M-44,480L-113,552L4,564Z" fill="#af301d" stroke="#af301d" stroke-width="1.51"/><path d="M-42,174L-114,259L6,267Z" fill="#c73b23" stroke="#c73b23" stroke-width="1.51"/><path d="M-114,259L-66,303L6,267Z" fill="#c43a22" stroke="#c43a22" stroke-width="1.51"/><path d="M-66,303L-45,326L6,267Z" fill="#c13821" stroke="#c13821" stroke-width="1.51"/><path d="M-24,43L-73,41L-8,99Z" fill="#d34127" stroke="#d34127" stroke-width="1.51"/><path d="M-73,41L-111,114L-8,99Z" fill="#d34127" stroke="#d34127" stroke-width="1.51"/><path d="M-111,114L-80,162L-8,99Z" fill="#d04026" stroke="#d04026" stroke-width="1.51"/><path d="M-80,162L-42,174L-8,99Z" fill="#cd3e25" stroke="#cd3e25" stroke-width="1.51"/><path d="M-82,421L-44,480L-8,418Z" fill="#b6331e" stroke="#b6331e" stroke-width="1.51"/><path d="M-80,162L-114,259L-42,174Z" fill="#cb3d25" stroke="#cb3d25" stroke-width="1.51"/><path d="M-47,-117L-99,-69L-31,-42Z" fill="#df482b" stroke="#df482b" stroke-width="1.51"/><path d="M-65,7L-73,41L-24,43Z" fill="#d64328" stroke="#d64328" stroke-width="1.51"/><path d="M-112,477L-113,552L-44,480Z" fill="#b3321e" stroke="#b3321e" stroke-width="1.51"/><path d="M-99,-69L-65,7L-31,-42Z" fill="#dd462a" stroke="#dd462a" stroke-width="1.51"/><path d="M-66,303L-82,421L-45,326Z" fill="#be3721" stroke="#be3721" stroke-width="1.51"/><path d="M-82,421L-112,477L-44,480Z" fill="#b7341f" stroke="#b7341f" stroke-width="1.51"/><path d="M-114,259L-82,421L-66,303Z" fill="#c13922" stroke="#c13922" stroke-width="1.51"/><path d="M-99,-69L-73,41L-65,7Z" fill="#db4529" stroke="#db4529" stroke-width="1.51"/><path d="M-99,-69L-111,114L-73,41Z" fill="#d94429" stroke="#d94429" stroke-width="1.51"/><path d="M-114,259L-112,477L-82,421Z" fill="#be3720" stroke="#be3720" stroke-width="1.51"/><path d="M-111,114L-114,259L-80,162Z" fill="#ce3f25" stroke="#ce3f25" stroke-width="1.51"/><path d="M-114,259L-113,552L-112,477Z" fill="#bb3520" stroke="#bb3520" stroke-width="1.51"/></svg>