<svg xmlns="http://www.w3.org/2000/svg" width="800" height="450"><path d="M-47,-117L43,-109L315,-114Z" fill="#915ec0" stroke="#915ec0" stroke-width="1.51"/><path d="M249,558L4,564L373,561Z" fill="#53307a" stroke="#53307a" stroke-width="1.51"/><path d="M315,-114L408,-102L588,-94Z" fill="#7d4fa9" stroke="#7d4fa9" stroke-width="1.51"/><path d="M740,542L655,551L811,550Z" fill="#381c5c" stroke="#381c5c" stroke-width="1.51"/><path d="M826,122L829,170L872,93Z" fill="#54307b" stroke="#54307b" stroke-width="1.51"/><path d="M588,-94L659,-92L874,-101Z" fill="#6e4398" stroke="#6e4398" stroke-width="1.51"/><path d="M315,-114L588,-94L874,-101Z" fill="#74499f" stroke="#74499f" stroke-width="1.51"/><path d="M659,-92L765,-76L874,-101Z" fill="#6a4193" stroke="#6a4193" stroke-width="1.51"/><path d="M872,93L829,170L880,216Z" fill="#512e77" stroke="#512e77" stroke-width="1.51"/><path d="M847,343L884,389L888,309Z" fill="#412366" stroke="#412366" stroke-width="1.51"/><path d="M880,216L869,276L888,309Z" fill="#47276c" stroke="#47276c" stroke-width="1.51"/><path d="M872,93L880,216L894,77Z" fill="#522f78" stroke="#522f78" stroke-width="1.51"/><path d="M880,216L888,309L894,77Z" fill="#4c2a71" stroke="#4c2a71" stroke-width="1.51"/><path d="M799,-19L807,28L896,-43Z" fill="#603988" stroke="#603988" stroke-width="1.51"/><path d="M807,28L894,77L896,-43Z" fill="#5c3683" stroke="#5c3683" stroke-width="1.51"/><path d="M811,550L655,551L896,566Z" fill="#351a58" stroke="#351a58" stroke-width="1.51"/><path d="M655,551L523,561L896,566Z" fill="#3a1d5e" stroke="#3a1d5e" stroke-width="1.51"/><path d="M896,-43L894,77L905,477Z" fill="#4e2c74" stroke="#4e2c74" stroke-width="1.51"/><path d="M884,389L825,450L905,477Z" fill="#3a1d5d" stroke="#3a1d5d" stroke-width="1.51"/><path d="M811,550L896,566L905,477Z" fill="#331855" stroke="#331855" stroke-width="1.51"/><path d="M825,450L811,550L905,477Z" fill="#371b5a" stroke="#371b5a" stroke-width="1.51"/><path d="M888,309L884,389L905,477Z" fill="#3c1f61" stroke="#3c1f61" stroke-width="1.51"/><path d="M894,77L888,309L905,477Z" fill="#452569" stroke="#452569" stroke-width="1.51"/><path d="M832,387L825,450L884,389Z" fill="#3e2062" stroke="#3e2062" stroke-width="1.51"/><path d="M807,28L872,93L894,77Z" fill="#583480" stroke="#583480" stroke-width="1.51"/><path d="M822,-67L799,-19L896,-43Z" fill="#623b8b" stroke="#623b8b" stroke-width="1.51"/><path d="M874,-101L822,-67L896,-43Z" fill="#633b8c" stroke="#633b8c" stroke-width="1.51"/><path d="M830,232L869,276L880,216Z" fill="#4a296f" stroke="#4a296f" stroke-width="1.51"/><path d="M765,-76L822,-67L874,-101Z" fill="#663e8f" stroke="#663e8f" stroke-width="1.51"/><path d="M847,343L832,387L884,389Z" fill="#402264" stroke="#402264" stroke-width="1.51"/><path d="M869,276L847,343L888,309Z" fill="#442569" stroke="#442569" stroke-width="1.51"/><path d="M408,-102L457,-91L588,-94Z" fill="#7a4da5" stroke="#7a4da5" stroke-width="1.51"/><path d="M829,170L830,232L880,216Z" fill="#4d2c73" stroke="#4d2c73" stroke-width="1.51"/><path d="M807,28L826,122L872,93Z" fill="#58347f" stroke="#58347f" stroke-width="1.51"/><path d="M773,254L847,343L869,276Z" fill="#48276d" stroke="#48276d" stroke-width="1.51"/><path d="M773,254L772,338L847,343Z" fill="#48276d" stroke="#48276d" stroke-width="1.51"/><path d="M830,232L773,254L869,276Z" fill="#4b2a70" stroke="#4b2a70" stroke-width="1.51"/><path d="M772,338L832,387L847,343Z" fill="#432468" stroke="#432468" stroke-width="1.51"/><path d="M619,546L523,561L655,551Z" fill="#3f2164" stroke="#3f2164" stroke-width="1.51"/><path d="M736,28L769,142L807,28Z" fill="#5d3785" stroke="#5d3785" stroke-width="1.51"/><path d="M748,442L740,542L811,550Z" fill="#3a1d5d" stroke="#3a1d5d" stroke-width="1.51"/><path d="M748,442L811,550L825,450Z" fill="#3a1e5e" stroke="#3a1e5e" stroke-width="1.51"/><path d="M749,406L748,442L825,450Z" fill="#3f2163" stroke="#3f2163" stroke-width="1.51"/><path d="M807,28L769,142L826,122Z" fill="#593480" stroke="#593480" stroke-width="1.51"/><path d="M729,174L773,254L829,170Z" fill="#522f79" stroke="#522f79" stroke-width="1.51"/><path d="M769,142L729,174L829,170Z" fill="#55317c" stroke="#55317c" stroke-width="1.51"/><path d="M826,122L769,142L829,170Z" fill="#54317b" stroke="#54317b" stroke-width="1.51"/><path d="M829,170L773,254L830,232Z" fill="#4f2c75" stroke="#4f2c75" stroke-width="1.51"/><path d="M749,406L825,450L832,387Z" fill="#3f2164" stroke="#3f2164" stroke-width="1.51"/><path d="M772,338L749,406L832,387Z" fill="#432468" stroke="#432468" stroke-width="1.51"/><path d="M765,-76L799,-19L822,-67Z" fill="#653e8e" stroke="#653e8e" stroke-width="1.51"/><path d="M799,-19L746,-6L807,28Z" fill="#613a8a" stroke="#613a8a" stroke-width="1.51"/><path d="M736,28L692,71L769,142Z" fill="#5e3786" stroke="#5e3786" stroke-width="1.51"/><path d="M746,-6L736,28L807,28Z" fill="#613a89" stroke="#613a89" stroke-width="1.51"/><path d="M765,-76L746,-6L799,-19Z" fill="#653d8e" stroke="#653d8e" stroke-width="1.51"/><path d="M694,453L740,542L748,442Z" fill="#3e2162" stroke="#3e2162" stroke-width="1.51"/><path d="M692,71L673,101L769,142Z" fill="#5d3784" stroke="#5d3784" stroke-width="1.51"/><path d="M657,310L749,406L772,338Z" fill="#48286e" stroke="#48286e" stroke-width="1.51"/><path d="M683,246L657,310L772,338Z" fill="#4e2c73" stroke="#4e2c73" stroke-width="1.51"/><path d="M729,174L692,213L773,254Z" fill="#53307a" stroke="#53307a" stroke-width="1.51"/><path d="M683,246L772,338L773,254Z" fill="#4d2b73" stroke="#4d2b73" stroke-width="1.51"/><path d="M692,213L683,246L773,254Z" fill="#522f78" stroke="#522f78" stroke-width="1.51"/><path d="M673,101L729,174L769,142Z" fill="#5a3581" stroke="#5a3581" stroke-width="1.51"/><path d="M675,-19L746,-6L765,-76Z" fill="#673f90" stroke="#673f90" stroke-width="1.51"/><path d="M657,310L693,426L749,406Z" fill="#47276d" stroke="#47276d" stroke-width="1.51"/><path d="M659,-92L675,-19L765,-76Z" fill="#6b4295" stroke="#6b4295" stroke-width="1.51"/><path d="M694,453L655,551L740,542Z" fill="#3d2061" stroke="#3d2061" stroke-width="1.51"/><path d="M693,426L748,442L749,406Z" fill="#422367" stroke="#422367" stroke-width="1.51"/><path d="M693,426L694,453L748,442Z" fill="#422366" stroke="#422366" stroke-width="1.51"/><path d="M675,-19L736,28L746,-6Z" fill="#653d8e" stroke="#653d8e" stroke-width="1.51"/><path d="M675,-19L692,71L736,28Z" fill="#643c8d" stroke="#643c8d" stroke-width="1.51"/><path d="M673,101L692,213L729,174Z" fill="#593480" stroke="#593480" stroke-width="1.51"/><path d="M117,548L4,564L249,558Z" fill="#58337f" stroke="#58337f" stroke-width="1.51"/><path d="M457,-91L525,-81L588,-94Z" fill="#784aa3" stroke="#784aa3" stroke-width="1.51"/><path d="M590,491L619,546L655,551Z" fill="#402264" stroke="#402264" stroke-width="1.51"/><path d="M673,101L623,110L692,213Z" fill="#5d3784" stroke="#5d3784" stroke-width="1.51"/><path d="M623,110L598,193L692,213Z" fill="#5b3683" stroke="#5b3683" stroke-width="1.51"/><path d="M675,-19L608,28L692,71Z" fill="#663e8f" stroke="#663e8f" stroke-width="1.51"/><path d="M657,310L606,336L693,426Z" fill="#4c2a71" stroke="#4c2a71" stroke-width="1.51"/><path d="M606,336L597,417L693,426Z" fill="#4a296f" stroke="#4a296f" stroke-width="1.51"/><path d="M590,491L655,551L694,453Z" fill="#412265" stroke="#412265" stroke-width="1.51"/><path d="M693,426L597,417L694,453Z" fill="#45266a" stroke="#45266a" stroke-width="1.51"/><path d="M597,417L590,491L694,453Z" fill="#46256a" stroke="#46256a" stroke-width="1.51"/><path d="M598,240L683,246L692,213Z" fill="#55317c" stroke="#55317c" stroke-width="1.51"/><path d="M598,193L598,240L692,213Z" fill="#583480" stroke="#583480" stroke-width="1.51"/><path d="M608,28L673,101L692,71Z" fill="#633c8c" stroke="#633c8c" stroke-width="1.51"/><path d="M608,28L623,110L673,101Z" fill="#633c8b" stroke="#633c8b" stroke-width="1.51"/><path d="M598,240L657,310L683,246Z" fill="#53307a" stroke="#53307a" stroke-width="1.51"/><path d="M588,-94L590,-4L659,-92Z" fill="#70459b" stroke="#70459b" stroke-width="1.51"/><path d="M659,-92L590,-4L675,-19Z" fill="#6d4397" stroke="#6d4397" stroke-width="1.51"/><path d="M590,-4L608,28L675,-19Z" fill="#6a4194" stroke="#6a4194" stroke-width="1.51"/><path d="M598,240L606,336L657,310Z" fill="#522f79" stroke="#522f79" stroke-width="1.51"/><path d="M566,234L561,340L598,240Z" fill="#56327e" stroke="#56327e" stroke-width="1.51"/><path d="M598,240L561,340L606,336Z" fill="#53307a" stroke="#53307a" stroke-width="1.51"/><path d="M561,340L597,417L606,336Z" fill="#4f2c74" stroke="#4f2c74" stroke-width="1.51"/><path d="M536,130L554,162L623,110Z" fill="#623b8b" stroke="#623b8b" stroke-width="1.51"/><path d="M608,28L539,63L623,110Z" fill="#673e90" stroke="#673e90" stroke-width="1.51"/><path d="M539,63L536,130L623,110Z" fill="#653d8e" stroke="#653d8e" stroke-width="1.51"/><path d="M554,162L598,193L623,110Z" fill="#5f3988" stroke="#5f3988" stroke-width="1.51"/><path d="M560,420L590,491L597,417Z" fill="#48286e" stroke="#48286e" stroke-width="1.51"/><path d="M590,491L559,495L619,546Z" fill="#432468" stroke="#432468" stroke-width="1.51"/><path d="M559,495L523,561L619,546Z" fill="#422367" stroke="#422367" stroke-width="1.51"/><path d="M525,-81L532,-12L588,-94Z" fill="#74489f" stroke="#74489f" stroke-width="1.51"/><path d="M588,-94L532,-12L590,-4Z" fill="#70459b" stroke="#70459b" stroke-width="1.51"/><path d="M560,420L559,495L590,491Z" fill="#47276c" stroke="#47276c" stroke-width="1.51"/><path d="M561,340L560,420L597,417Z" fill="#4d2b73" stroke="#4d2b73" stroke-width="1.51"/><path d="M566,234L598,240L598,193Z" fill="#5a3581" stroke="#5a3581" stroke-width="1.51"/><path d="M590,-4L539,63L608,28Z" fill="#6b4194" stroke="#6b4194" stroke-width="1.51"/><path d="M532,-12L539,63L590,-4Z" fill="#6d4396" stroke="#6d4396" stroke-width="1.51"/><path d="M554,162L566,234L598,193Z" fill="#5d3785" stroke="#5d3785" stroke-width="1.51"/><path d="M457,304L561,340L566,234Z" fill="#57337e" stroke="#57337e" stroke-width="1.51"/><path d="M477,407L454,493L559,495Z" fill="#4c2a71" stroke="#4c2a71" stroke-width="1.51"/><path d="M477,407L559,495L560,420Z" fill="#4c2a71" stroke="#4c2a71" stroke-width="1.51"/><path d="M477,407L560,420L561,340Z" fill="#502d76" stroke="#502d76" stroke-width="1.51"/><path d="M554,162L471,182L566,234Z" fill="#5f3988" stroke="#5f3988" stroke-width="1.51"/><path d="M471,182L458,258L566,234Z" fill="#5e3887" stroke="#5e3887" stroke-width="1.51"/><path d="M458,258L457,304L566,234Z" fill="#5b3683" stroke="#5b3683" stroke-width="1.51"/><path d="M457,304L477,407L561,340Z" fill="#54307b" stroke="#54307b" stroke-width="1.51"/><path d="M454,493L523,561L559,495Z" fill="#47266c" stroke="#47266c" stroke-width="1.51"/><path d="M536,130L471,182L554,162Z" fill="#633c8b" stroke="#633c8b" stroke-width="1.51"/><path d="M454,493L459,561L523,561Z" fill="#47276c" stroke="#47276c" stroke-width="1.51"/><path d="M525,-81L457,-91L532,-12Z" fill="#764aa1" stroke="#764aa1" stroke-width="1.51"/><path d="M457,-91L446,3L532,-12Z" fill="#7649a0" stroke="#7649a0" stroke-width="1.51"/><path d="M446,3L450,55L532,-12Z" fill="#71469c" stroke="#71469c" stroke-width="1.51"/><path d="M532,-12L450,55L539,63Z" fill="#6e4498" stroke="#6e4498" stroke-width="1.51"/><path d="M448,124L536,130L539,63Z" fill="#683f91" stroke="#683f91" stroke-width="1.51"/><path d="M450,55L448,124L539,63Z" fill="#6b4295" stroke="#6b4295" stroke-width="1.51"/><path d="M448,124L471,182L536,130Z" fill="#663d8f" stroke="#663d8f" stroke-width="1.51"/><path d="M386,-15L446,3L457,-91Z" fill="#784ba3" stroke="#784ba3" stroke-width="1.51"/><path d="M396,338L421,401L457,304Z" fill="#583480" stroke="#583480" stroke-width="1.51"/><path d="M375,205L458,258L471,182Z" fill="#633c8c" stroke="#633c8c" stroke-width="1.51"/><path d="M457,304L421,401L477,407Z" fill="#55317c" stroke="#55317c" stroke-width="1.51"/><path d="M421,401L454,493L477,407Z" fill="#512e77" stroke="#512e77" stroke-width="1.51"/><path d="M421,401L391,495L454,493Z" fill="#502d76" stroke="#502d76" stroke-width="1.51"/><path d="M408,-102L386,-15L457,-91Z" fill="#7c4ea8" stroke="#7c4ea8" stroke-width="1.51"/><path d="M454,493L391,495L459,561Z" fill="#4b2a71" stroke="#4b2a71" stroke-width="1.51"/><path d="M448,124L375,205L471,182Z" fill="#673e90" stroke="#673e90" stroke-width="1.51"/><path d="M398,113L375,205L448,124Z" fill="#6a4193" stroke="#6a4193" stroke-width="1.51"/><path d="M398,113L448,124L450,55Z" fill="#6d4397" stroke="#6d4397" stroke-width="1.51"/><path d="M384,75L398,113L450,55Z" fill="#6f449a" stroke="#6f449a" stroke-width="1.51"/><path d="M404,282L457,304L458,258Z" fill="#5d3785" stroke="#5d3785" stroke-width="1.51"/><path d="M375,205L404,282L458,258Z" fill="#623a8a" stroke="#623a8a" stroke-width="1.51"/><path d="M391,495L373,561L459,561Z" fill="#4a2a70" stroke="#4a2a70" stroke-width="1.51"/><path d="M404,282L396,338L457,304Z" fill="#5c3684" stroke="#5c3684" stroke-width="1.51"/><path d="M386,-15L384,75L446,3Z" fill="#74499f" stroke="#74499f" stroke-width="1.51"/><path d="M446,3L384,75L450,55Z" fill="#71469c" stroke="#71469c" stroke-width="1.51"/><path d="M43,-109L170,-71L315,-114Z" fill="#8c5aba" stroke="#8c5aba" stroke-width="1.51"/><path d="M320,469L391,495L421,401Z" fill="#532f79" stroke="#532f79" stroke-width="1.51"/><path d="M321,396L320,469L421,401Z" fill="#56327e" stroke="#56327e" stroke-width="1.51"/><path d="M396,338L321,396L421,401Z" fill="#583480" stroke="#583480" stroke-width="1.51"/><path d="M341,65L384,75L386,-15Z" fill="#75499f" stroke="#75499f" stroke-width="1.51"/><path d="M332,-2L341,65L386,-15Z" fill="#784ba3" stroke="#784ba3" stroke-width="1.51"/><path d="M317,129L375,205L398,113Z" fill="#6c4296" stroke="#6c4296" stroke-width="1.51"/><path d="M375,205L307,233L404,282Z" fill="#653c8e" stroke="#653c8e" stroke-width="1.51"/><path d="M315,-114L386,-15L408,-102Z" fill="#7f51ac" stroke="#7f51ac" stroke-width="1.51"/><path d="M315,-114L332,-2L386,-15Z" fill="#7e4faa" stroke="#7e4faa" stroke-width="1.51"/><path d="M336,513L373,561L391,495Z" fill="#4e2c74" stroke="#4e2c74" stroke-width="1.51"/><path d="M307,233L284,313L404,282Z" fill="#643c8c" stroke="#643c8c" stroke-width="1.51"/><path d="M305,344L396,338L404,282Z" fill="#5e3886" stroke="#5e3886" stroke-width="1.51"/><path d="M284,313L305,344L404,282Z" fill="#613a89" stroke="#613a89" stroke-width="1.51"/><path d="M316,216L307,233L375,205Z" fill="#683f91" stroke="#683f91" stroke-width="1.51"/><path d="M305,344L321,396L396,338Z" fill="#5c3684" stroke="#5c3684" stroke-width="1.51"/><path d="M384,75L317,129L398,113Z" fill="#70459a" stroke="#70459a" stroke-width="1.51"/><path d="M341,65L317,129L384,75Z" fill="#72479c" stroke="#72479c" stroke-width="1.51"/><path d="M315,-114L281,-76L332,-2Z" fill="#8152ae" stroke="#8152ae" stroke-width="1.51"/><path d="M320,469L336,513L391,495Z" fill="#522e77" stroke="#522e77" stroke-width="1.51"/><path d="M317,129L316,216L375,205Z" fill="#6b4295" stroke="#6b4295" stroke-width="1.51"/><path d="M336,513L249,558L373,561Z" fill="#4f2c75" stroke="#4f2c75" stroke-width="1.51"/><path d="M273,269L284,313L307,233Z" fill="#663e8f" stroke="#663e8f" stroke-width="1.51"/><path d="M278,212L316,216L317,129Z" fill="#6d4296" stroke="#6d4296" stroke-width="1.51"/><path d="M269,426L320,469L321,396Z" fill="#593480" stroke="#593480" stroke-width="1.51"/><path d="M255,-1L246,48L332,-2Z" fill="#7c4ea8" stroke="#7c4ea8" stroke-width="1.51"/><path d="M332,-2L246,48L341,65Z" fill="#794ca4" stroke="#794ca4" stroke-width="1.51"/><path d="M246,48L317,129L341,65Z" fill="#7549a0" stroke="#7549a0" stroke-width="1.51"/><path d="M281,-76L255,-1L332,-2Z" fill="#7f50ac" stroke="#7f50ac" stroke-width="1.51"/><path d="M320,469L268,473L336,513Z" fill="#54317a" stroke="#54317a" stroke-width="1.51"/><path d="M268,473L249,558L336,513Z" fill="#533079" stroke="#533079" stroke-width="1.51"/><path d="M247,141L278,212L317,129Z" fill="#70459a" stroke="#70459a" stroke-width="1.51"/><path d="M170,-71L281,-76L315,-114Z" fill="#8656b3" stroke="#8656b3" stroke-width="1.51"/><path d="M246,48L247,141L317,129Z" fill="#7549a0" stroke="#7549a0" stroke-width="1.51"/><path d="M269,426L268,473L320,469Z" fill="#58337e" stroke="#58337e" stroke-width="1.51"/><path d="M305,344L269,426L321,396Z" fill="#5c3784" stroke="#5c3784" stroke-width="1.51"/><path d="M278,212L307,233L316,216Z" fill="#6a4193" stroke="#6a4193" stroke-width="1.51"/><path d="M208,351L269,426L305,344Z" fill="#603988" stroke="#603988" stroke-width="1.51"/><path d="M278,212L273,269L307,233Z" fill="#694092" stroke="#694092" stroke-width="1.51"/><path d="M284,313L208,351L305,344Z" fill="#623b8b" stroke="#623b8b" stroke-width="1.51"/><path d="M208,351L206,426L269,426Z" fill="#5f3987" stroke="#5f3987" stroke-width="1.51"/><path d="M247,141L212,163L278,212Z" fill="#71469b" stroke="#71469b" stroke-width="1.51"/><path d="M180,242L273,269L278,212Z" fill="#6b4195" stroke="#6b4195" stroke-width="1.51"/><path d="M186,-47L255,-1L281,-76Z" fill="#8353b0" stroke="#8353b0" stroke-width="1.51"/><path d="M273,269L208,351L284,313Z" fill="#653d8e" stroke="#653d8e" stroke-width="1.51"/><path d="M170,-71L186,-47L281,-76Z" fill="#8756b4" stroke="#8756b4" stroke-width="1.51"/><path d="M178,469L249,558L268,473Z" fill="#57327e" stroke="#57327e" stroke-width="1.51"/><path d="M212,163L180,242L278,212Z" fill="#6f4599" stroke="#6f4599" stroke-width="1.51"/><path d="M178,469L163,519L249,558Z" fill="#58337e" stroke="#58337e" stroke-width="1.51"/><path d="M206,426L268,473L269,426Z" fill="#5a3682" stroke="#5a3682" stroke-width="1.51"/><path d="M180,242L208,351L273,269Z" fill="#694092" stroke="#694092" stroke-width="1.51"/><path d="M246,48L169,127L247,141Z" fill="#784ba3" stroke="#784ba3" stroke-width="1.51"/><path d="M206,426L178,469L268,473Z" fill="#5b3583" stroke="#5b3583" stroke-width="1.51"/><path d="M163,519L117,548L249,558Z" fill="#56327e" stroke="#56327e" stroke-width="1.51"/><path d="M180,22L246,48L255,-1Z" fill="#7e50aa" stroke="#7e50aa" stroke-width="1.51"/><path d="M186,-47L180,22L255,-1Z" fill="#8353af" stroke="#8353af" stroke-width="1.51"/><path d="M43,-109L93,-73L170,-71Z" fill="#8f5cbd" stroke="#8f5cbd" stroke-width="1.51"/><path d="M180,22L169,127L246,48Z" fill="#7d4ea8" stroke="#7d4ea8" stroke-width="1.51"/><path d="M169,127L212,163L247,141Z" fill="#7549a0" stroke="#7549a0" stroke-width="1.51"/><path d="M107,279L124,334L180,242Z" fill="#6e4398" stroke="#6e4398" stroke-width="1.51"/><path d="M169,127L92,176L180,242Z" fill="#7549a1" stroke="#7549a1" stroke-width="1.51"/><path d="M180,242L124,334L208,351Z" fill="#6a4093" stroke="#6a4093" stroke-width="1.51"/><path d="M136,381L206,426L208,351Z" fill="#633b8b" stroke="#633b8b" stroke-width="1.51"/><path d="M169,127L180,242L212,163Z" fill="#74489e" stroke="#74489e" stroke-width="1.51"/><path d="M124,334L136,381L208,351Z" fill="#673f90" stroke="#673f90" stroke-width="1.51"/><path d="M125,129L92,176L169,127Z" fill="#7a4ca5" stroke="#7a4ca5" stroke-width="1.51"/><path d="M136,381L178,469L206,426Z" fill="#603988" stroke="#603988" stroke-width="1.51"/><path d="M93,41L125,129L169,127Z" fill="#7d4fa9" stroke="#7d4fa9" stroke-width="1.51"/><path d="M136,381L108,468L178,469Z" fill="#613a89" stroke="#613a89" stroke-width="1.51"/><path d="M93,41L169,127L180,22Z" fill="#8050ac" stroke="#8050ac" stroke-width="1.51"/><path d="M124,-37L180,22L186,-47Z" fill="#8655b3" stroke="#8655b3" stroke-width="1.51"/><path d="M170,-71L124,-37L186,-47Z" fill="#8957b6" stroke="#8957b6" stroke-width="1.51"/><path d="M108,468L163,519L178,469Z" fill="#5d3784" stroke="#5d3784" stroke-width="1.51"/><path d="M124,-37L93,41L180,22Z" fill="#8555b2" stroke="#8555b2" stroke-width="1.51"/><path d="M92,176L107,279L180,242Z" fill="#73479d" stroke="#73479d" stroke-width="1.51"/><path d="M93,-73L124,-37L170,-71Z" fill="#8b59b9" stroke="#8b59b9" stroke-width="1.51"/><path d="M108,468L117,548L163,519Z" fill="#5b3683" stroke="#5b3683" stroke-width="1.51"/><path d="M45,194L63,278L92,176Z" fill="#784aa2" stroke="#784aa2" stroke-width="1.51"/><path d="M92,176L63,278L107,279Z" fill="#74489e" stroke="#74489e" stroke-width="1.51"/><path d="M55,343L66,399L124,334Z" fill="#6a4194" stroke="#6a4194" stroke-width="1.51"/><path d="M93,41L49,97L125,129Z" fill="#8151ad" stroke="#8151ad" stroke-width="1.51"/><path d="M124,334L66,399L136,381Z" fill="#683f91" stroke="#683f91" stroke-width="1.51"/><path d="M66,399L108,468L136,381Z" fill="#643d8d" stroke="#643d8d" stroke-width="1.51"/><path d="M63,278L55,343L107,279Z" fill="#70459a" stroke="#70459a" stroke-width="1.51"/><path d="M108,468L35,533L117,548Z" fill="#5d3785" stroke="#5d3785" stroke-width="1.51"/><path d="M35,533L4,564L117,548Z" fill="#5c3784" stroke="#5c3784" stroke-width="1.51"/><path d="M107,279L55,343L124,334Z" fill="#6d4397" stroke="#6d4397" stroke-width="1.51"/><path d="M24,-29L93,41L124,-37Z" fill="#8a58b7" stroke="#8a58b7" stroke-width="1.51"/><path d="M93,-73L24,-29L124,-37Z" fill="#8d5bba" stroke="#8d5bba" stroke-width="1.51"/><path d="M49,97L92,176L125,129Z" fill="#7d4fa9" stroke="#7d4fa9" stroke-width="1.51"/><path d="M50,58L49,97L93,41Z" fill="#8454b1" stroke="#8454b1" stroke-width="1.51"/><path d="M26,496L35,533L108,468Z" fill="#613989" stroke="#613989" stroke-width="1.51"/><path d="M66,399L26,496L108,468Z" fill="#633c8c" stroke="#633c8c" stroke-width="1.51"/><path d="M49,97L45,194L92,176Z" fill="#7d4fa9" stroke="#7d4fa9" stroke-width="1.51"/><path d="M43,-109L24,-29L93,-73Z" fill="#905dbf" stroke="#905dbf" stroke-width="1.51"/><path d="M24,-29L50,58L93,41Z" fill="#8857b5" stroke="#8857b5" stroke-width="1.51"/><path d="M-8,99L45,194L49,97Z" fill="#8152ad" stroke="#8152ad" stroke-width="1.51"/><path d="M24,-29L-24,43L50,58Z" fill="#8a59b8" stroke="#8a59b8" stroke-width="1.51"/><path d="M6,267L55,343L63,278Z" fill="#72479d" stroke="#72479d" stroke-width="1.51"/><path d="M45,194L6,267L63,278Z" fill="#774aa2" stroke="#774aa2" stroke-width="1.51"/><path d="M55,343L-8,418L66,399Z" fill="#6b4195" stroke="#6b4195" stroke-width="1.51"/><path d="M-8,418L26,496L66,399Z" fill="#673f90" stroke="#673f90" stroke-width="1.51"/><path d="M-8,99L-42,174L45,194Z" fill="#8151ad" stroke="#8151ad" stroke-width="1.51"/><path d="M-31,-42L24,-29L43,-109Z" fill="#925ec0" stroke="#925ec0" stroke-width="1.51"/><path d="M-8,99L49,97L50,58Z" fill="#8554b1" stroke="#8554b1" stroke-width="1.51"/><path d="M6,267L-45,326L55,343Z" fill="#73479d" stroke="#73479d" stroke-width="1.51"/><path d="M-45,326L-8,418L55,343Z" fill="#6f4499" stroke="#6f4499" stroke-width="1.51"/><path d="M-24,43L-8,99L50,58Z" fill="#8856b5" stroke="#8856b5" stroke-width="1.51"/><path d="M-47,-117L-31,-42L43,-109Z" fill="#9661c5" stroke="#9661c5" stroke-width="1.51"/><path d="M-42,174L6,267L45,194Z" fill="#7b4ea7" stroke="#7b4ea7" stroke-width="1.51"/><path d="M-8,418L-44,480L26,496Z" fill="#673e90" stroke="#673e90" stroke-width="1.51"/><path d="M26,496L4,564L35,533Z" fill="#603988" stroke="#603988" stroke-width="1.51"/><path d="M-31,-42L-24,43L24,-29Z" fill="#8f5cbd" stroke="#8f5cbd" stroke-width="1.51"/><path d="M-44,480L4,564L26,496Z" fill="#623b8b" stroke="#623b8b" stroke-width="1.51"/><path d="M-31,-42L-65,7L-24,43Z" fill="#905dbe" stroke="#905dbe" stroke-width="1.51"/><path d="M-45,326L-82,421L-8,418Z" fill="#6f4599" stroke="#6f4599" stroke-width="1.51"/><path d="M-44,480L-113,552L4,564Z" fill="#633c8c" stroke="#633c8c" stroke-width="1.51"/><path d="M-42,174L-114,259L6,267Z" fill="#7d4ea8" stroke="#7d4ea8" stroke-width="1.51"/><path d="M-114,259L-66,303L6,267Z" fill="#794ca4" stroke="#794ca4" stroke-width="1.51"/><path d="M-66,303L-45,326L6,267Z" fill="#7649a1" stroke="#7649a1" stroke-width="1.51"/><path d="M-24,43L-73,41L-8,99Z" fill="#8a59b8" stroke="#8a59b8" stroke-width="1.51"/><path d="M-73,41L-111,114L-8,99Z" fill="#8a59b7" stroke="#8a59b7" stroke-width="1.51"/><path d="M-111,114L-80,162L-8,99Z" fill="#8756b4" stroke="#8756b4" stroke-width="1.51"/><path d="M-80,162L-42,174L-8,99Z" fill="#8354b0" stroke="#8354b0" stroke-width="1.51"/><path d="M-82,421L-44,480L-8,418Z" fill="#6b4194" stroke="#6b4194" stroke-width="1.51"/><path d="M-80,162L-114,259L-42,174Z" fill="#8152ae" stroke="#8152ae" stroke-width="1.51"/><path d="M-47,-117L-99,-69L-31,-42Z" fill="#9763c6" stroke="#9763c6" stroke-width="1.51"/><path d="M-65,7L-73,41L-24,43Z" fill="#8e5cbc" stroke="#8e5cbc" stroke-width="1.51"/><path d="M-112,477L-113,552L-44,480Z" fill="#683f91" stroke="#683f91" stroke-width="1.51"/><path d="M-99,-69L-65,7L-31,-42Z" fill="#9460c3" stroke="#9460c3" stroke-width="1.51"/><path d="M-66,303L-82,421L-45,326Z" fill="#74489e" stroke="#74489e" stroke-width="1.51"/><path d="M-82,421L-112,477L-44,480Z" fill="#6c4295" stroke="#6c4295" stroke-width="1.51"/><path d="M-114,259L-82,421L-66,303Z" fill="#774aa2" stroke="#774aa2" stroke-width="1.51"/><path d="M-99,-69L-73,41L-65,7Z" fill="#935fc1" stroke="#935fc1" stroke-width="1.51"/><path d="M-99,-69L-111,114L-73,41Z" fill="#905dbf" stroke="#905dbf" stroke-width="1.51"/><path d="M-114,259L-112,477L-82,421Z" fill="#72479d" stroke="#72479d" stroke-width="1.51"/><path d="M-111,114L-114,259L-80,162Z" fill="#8454b1" stroke="#8454b1" stroke-width="1.51"/><path d="M-114,259L-113,552L-112,477Z" fill="#704599" stroke="#704599" stroke-width="1.51"/></svg>