<svg xmlns="http://www.w3.org/2000/svg" width="800" height="450" style="opacity:0.28"><path d="M-47,-117L43,-109L315,-114Z" fill="#eeeeee" stroke="#eeeeee" stroke-width="1.51"/><path d="M249,558L4,564L373,561Z" fill="#636363" stroke="#636363" stroke-width="1.51"/><path d="M315,-114L408,-102L588,-94Z" fill="#c2c2c2" stroke="#c2c2c2" stroke-width="1.51"/><path d="M740,542L655,551L811,550Z" fill="#242424" stroke="#242424" stroke-width="1.51"/><path d="M826,122L829,170L872,93Z" fill="#676767" stroke="#676767" stroke-width="1.51"/><path d="M588,-94L659,-92L874,-101Z" fill="#999999" stroke="#999999" stroke-width="1.51"/><path d="M315,-114L588,-94L874,-101Z" fill="#acacac" stroke="#acacac" stroke-width="1.51"/><path d="M659,-92L765,-76L874,-101Z" fill="#8c8c8c" stroke="#8c8c8c" stroke-width="1.51"/><path d="M872,93L829,170L880,216Z" fill="#5e5e5e" stroke="#5e5e5e" stroke-width="1.51"/><path d="M847,343L884,389L888,309Z" fill="#3a3a3a" stroke="#3a3a3a" stroke-width="1.51"/><path d="M880,216L869,276L888,309Z" fill="#474747" stroke="#474747" stroke-width="1.51"/><path d="M872,93L880,216L894,77Z" fill="#616161" stroke="#616161" stroke-width="1.51"/><path d="M880,216L888,309L894,77Z" fill="#535353" stroke="#535353" stroke-width="1.51"/><path d="M799,-19L807,28L896,-43Z" fill="#7a7a7a" stroke="#7a7a7a" stroke-width="1.51"/><path d="M807,28L894,77L896,-43Z" fill="#727272" stroke="#727272" stroke-width="1.51"/><path d="M811,550L655,551L896,566Z" fill="#1a1a1a" stroke="#1a1a1a" stroke-width="1.51"/><path d="M655,551L523,561L896,566Z" fill="#292929" stroke="#292929" stroke-width="1.51"/><path d="M896,-43L894,77L905,477Z" fill="#575757" stroke="#575757" stroke-width="1.51"/><path d="M884,389L825,450L905,477Z" fill="#272727" stroke="#272727" stroke-width="1.51"/><path d="M811,550L896,566L905,477Z" fill="#151515" stroke="#151515" stroke-width="1.51"/><path d="M825,450L811,550L905,477Z" fill="#1e1e1e" stroke="#1e1e1e" stroke-width="1.51"/><path d="M888,309L884,389L905,477Z" fill="#303030" stroke="#303030" stroke-width="1.51"/><path d="M894,77L888,309L905,477Z" fill="#424242" stroke="#424242" stroke-width="1.51"/><path d="M832,387L825,450L884,389Z" fill="#323232" stroke="#323232" stroke-width="1.51"/><path d="M807,28L872,93L894,77Z" fill="#6e6e6e" stroke="#6e6e6e" stroke-width="1.51"/><path d="M822,-67L799,-19L896,-43Z" fill="#7d7d7d" stroke="#7d7d7d" stroke-width="1.51"/><path d="M874,-101L822,-67L896,-43Z" fill="#7c7c7c" stroke="#7c7c7c" stroke-width="1.51"/><path d="M830,232L869,276L880,216Z" fill="#4e4e4e" stroke="#4e4e4e" stroke-width="1.51"/><path d="M765,-76L822,-67L874,-101Z" fill="#828282" stroke="#828282" stroke-width="1.51"/><path d="M847,343L832,387L884,389Z" fill="#383838" stroke="#383838" stroke-width="1.51"/><path d="M869,276L847,343L888,309Z" fill="#414141" stroke="#414141" stroke-width="1.51"/><path d="M408,-102L457,-91L588,-94Z" fill="#bbbbbb" stroke="#bbbbbb" stroke-width="1.51"/><path d="M829,170L830,232L880,216Z" fill="#575757" stroke="#575757" stroke-width="1.51"/><path d="M807,28L826,122L872,93Z" fill="#6f6f6f" stroke="#6f6f6f" stroke-width="1.51"/><path d="M773,254L847,343L869,276Z" fill="#494949" stroke="#494949" stroke-width="1.51"/><path d="M773,254L772,338L847,343Z" fill="#4a4a4a" stroke="#4a4a4a" stroke-width="1.51"/><path d="M830,232L773,254L869,276Z" fill="#515151" stroke="#515151" stroke-width="1.51"/><path d="M772,338L832,387L847,343Z" fill="#404040" stroke="#404040" stroke-width="1.51"/><path d="M619,546L523,561L655,551Z" fill="#363636" stroke="#363636" stroke-width="1.51"/><path d="M736,28L769,142L807,28Z" fill="#7b7b7b" stroke="#7b7b7b" stroke-width="1.51"/><path d="M748,442L740,542L811,550Z" fill="#252525" stroke="#252525" stroke-width="1.51"/><path d="M748,442L811,550L825,450Z" fill="#262626" stroke="#262626" stroke-width="1.51"/><path d="M749,406L748,442L825,450Z" fill="#363636" stroke="#363636" stroke-width="1.51"/><path d="M807,28L769,142L826,122Z" fill="#717171" stroke="#717171" stroke-width="1.51"/><path d="M729,174L773,254L829,170Z" fill="#626262" stroke="#626262" stroke-width="1.51"/><path d="M769,142L729,174L829,170Z" fill="#6b6b6b" stroke="#6b6b6b" stroke-width="1.51"/><path d="M826,122L769,142L829,170Z" fill="#696969" stroke="#696969" stroke-width="1.51"/><path d="M829,170L773,254L830,232Z" fill="#595959" stroke="#595959" stroke-width="1.51"/><path d="M749,406L825,450L832,387Z" fill="#363636" stroke="#363636" stroke-width="1.51"/><path d="M772,338L749,406L832,387Z" fill="#404040" stroke="#404040" stroke-width="1.51"/><path d="M765,-76L799,-19L822,-67Z" fill="#848484" stroke="#848484" stroke-width="1.51"/><path d="M799,-19L746,-6L807,28Z" fill="#808080" stroke="#808080" stroke-width="1.51"/><path d="M736,28L692,71L769,142Z" fill="#808080" stroke="#808080" stroke-width="1.51"/><path d="M746,-6L736,28L807,28Z" fill="#838383" stroke="#838383" stroke-width="1.51"/><path d="M765,-76L746,-6L799,-19Z" fill="#878787" stroke="#878787" stroke-width="1.51"/><path d="M694,453L740,542L748,442Z" fill="#323232" stroke="#323232" stroke-width="1.51"/><path d="M692,71L673,101L769,142Z" fill="#818181" stroke="#818181" stroke-width="1.51"/><path d="M657,310L749,406L772,338Z" fill="#505050" stroke="#505050" stroke-width="1.51"/><path d="M683,246L657,310L772,338Z" fill="#5d5d5d" stroke="#5d5d5d" stroke-width="1.51"/><path d="M729,174L692,213L773,254Z" fill="#686868" stroke="#686868" stroke-width="1.51"/><path d="M683,246L772,338L773,254Z" fill="#5a5a5a" stroke="#5a5a5a" stroke-width="1.51"/><path d="M692,213L683,246L773,254Z" fill="#676767" stroke="#676767" stroke-width="1.51"/><path d="M673,101L729,174L769,142Z" fill="#797979" stroke="#797979" stroke-width="1.51"/><path d="M675,-19L746,-6L765,-76Z" fill="#909090" stroke="#909090" stroke-width="1.51"/><path d="M657,310L693,426L749,406Z" fill="#4f4f4f" stroke="#4f4f4f" stroke-width="1.51"/><path d="M659,-92L675,-19L765,-76Z" fill="#989898" stroke="#989898" stroke-width="1.51"/><path d="M694,453L655,551L740,542Z" fill="#303030" stroke="#303030" stroke-width="1.51"/><path d="M693,426L748,442L749,406Z" fill="#3f3f3f" stroke="#3f3f3f" stroke-width="1.51"/><path d="M693,426L694,453L748,442Z" fill="#3e3e3e" stroke="#3e3e3e" stroke-width="1.51"/><path d="M675,-19L736,28L746,-6Z" fill="#8d8d8d" stroke="#8d8d8d" stroke-width="1.51"/><path d="M675,-19L692,71L736,28Z" fill="#8e8e8e" stroke="#8e8e8e" stroke-width="1.51"/><path d="M673,101L692,213L729,174Z" fill="#797979" stroke="#797979" stroke-width="1.51"/><path d="M117,548L4,564L249,558Z" fill="#6b6b6b" stroke="#6b6b6b" stroke-width="1.51"/><path d="M457,-91L525,-81L588,-94Z" fill="#b5b5b5" stroke="#b5b5b5" stroke-width="1.51"/><path d="M590,491L619,546L655,551Z" fill="#383838" stroke="#383838" stroke-width="1.51"/><path d="M673,101L623,110L692,213Z" fill="#858585" stroke="#858585" stroke-width="1.51"/><path d="M623,110L598,193L692,213Z" fill="#818181" stroke="#818181" stroke-width="1.51"/><path d="M675,-19L608,28L692,71Z" fill="#969696" stroke="#969696" stroke-width="1.51"/><path d="M657,310L606,336L693,426Z" fill="#5b5b5b" stroke="#5b5b5b" stroke-width="1.51"/><path d="M606,336L597,417L693,426Z" fill="#575757" stroke="#575757" stroke-width="1.51"/><path d="M590,491L655,551L694,453Z" fill="#3b3b3b" stroke="#3b3b3b" stroke-width="1.51"/><path d="M693,426L597,417L694,453Z" fill="#494949" stroke="#494949" stroke-width="1.51"/><path d="M597,417L590,491L694,453Z" fill="#484848" stroke="#484848" stroke-width="1.51"/><path d="M598,240L683,246L692,213Z" fill="#727272" stroke="#727272" stroke-width="1.51"/><path d="M598,193L598,240L692,213Z" fill="#797979" stroke="#797979" stroke-width="1.51"/><path d="M608,28L673,101L692,71Z" fill="#919191" stroke="#919191" stroke-width="1.51"/><path d="M608,28L623,110L673,101Z" fill="#929292" stroke="#929292" stroke-width="1.51"/><path d="M598,240L657,310L683,246Z" fill="#6e6e6e" stroke="#6e6e6e" stroke-width="1.51"/><path d="M588,-94L590,-4L659,-92Z" fill="#a6a6a6" stroke="#a6a6a6" stroke-width="1.51"/><path d="M659,-92L590,-4L675,-19Z" fill="#a0a0a0" stroke="#a0a0a0" stroke-width="1.51"/><path d="M590,-4L608,28L675,-19Z" fill="#9e9e9e" stroke="#9e9e9e" stroke-width="1.51"/><path d="M598,240L606,336L657,310Z" fill="#6b6b6b" stroke="#6b6b6b" stroke-width="1.51"/><path d="M566,234L561,340L598,240Z" fill="#757575" stroke="#757575" stroke-width="1.51"/><path d="M598,240L561,340L606,336Z" fill="#6d6d6d" stroke="#6d6d6d" stroke-width="1.51"/><path d="M561,340L597,417L606,336Z" fill="#616161" stroke="#616161" stroke-width="1.51"/><path d="M536,130L554,162L623,110Z" fill="#929292" stroke="#929292" stroke-width="1.51"/><path d="M608,28L539,63L623,110Z" fill="#9a9a9a" stroke="#9a9a9a" stroke-width="1.51"/><path d="M539,63L536,130L623,110Z" fill="#989898" stroke="#989898" stroke-width="1.51"/><path d="M554,162L598,193L623,110Z" fill="#8b8b8b" stroke="#8b8b8b" stroke-width="1.51"/><path d="M560,420L590,491L597,417Z" fill="#505050" stroke="#505050" stroke-width="1.51"/><path d="M590,491L559,495L619,546Z" fill="#3f3f3f" stroke="#3f3f3f" stroke-width="1.51"/><path d="M559,495L523,561L619,546Z" fill="#3d3d3d" stroke="#3d3d3d" stroke-width="1.51"/><path d="M525,-81L532,-12L588,-94Z" fill="#afafaf" stroke="#afafaf" stroke-width="1.51"/><path d="M588,-94L532,-12L590,-4Z" fill="#aaaaaa" stroke="#aaaaaa" stroke-width="1.51"/><path d="M560,420L559,495L590,491Z" fill="#4b4b4b" stroke="#4b4b4b" stroke-width="1.51"/><path d="M561,340L560,420L597,417Z" fill="#5e5e5e" stroke="#5e5e5e" stroke-width="1.51"/><path d="M566,234L598,240L598,193Z" fill="#7e7e7e" stroke="#7e7e7e" stroke-width="1.51"/><path d="M590,-4L539,63L608,28Z" fill="#a0a0a0" stroke="#a0a0a0" stroke-width="1.51"/><path d="M532,-12L539,63L590,-4Z" fill="#a6a6a6" stroke="#a6a6a6" stroke-width="1.51"/><path d="M554,162L566,234L598,193Z" fill="#858585" stroke="#858585" stroke-width="1.51"/><path d="M457,304L561,340L566,234Z" fill="#777777" stroke="#777777" stroke-width="1.51"/><path d="M477,407L454,493L559,495Z" fill="#555555" stroke="#555555" stroke-width="1.51"/><path d="M477,407L559,495L560,420Z" fill="#575757" stroke="#575757" stroke-width="1.51"/><path d="M477,407L560,420L561,340Z" fill="#646464" stroke="#646464" stroke-width="1.51"/><path d="M554,162L471,182L566,234Z" fill="#8b8b8b" stroke="#8b8b8b" stroke-width="1.51"/><path d="M471,182L458,258L566,234Z" fill="#898989" stroke="#898989" stroke-width="1.51"/><path d="M458,258L457,304L566,234Z" fill="#818181" stroke="#818181" stroke-width="1.51"/><path d="M457,304L477,407L561,340Z" fill="#707070" stroke="#707070" stroke-width="1.51"/><path d="M454,493L523,561L559,495Z" fill="#474747" stroke="#474747" stroke-width="1.51"/><path d="M536,130L471,182L554,162Z" fill="#949494" stroke="#949494" stroke-width="1.51"/><path d="M454,493L459,561L523,561Z" fill="#474747" stroke="#474747" stroke-width="1.51"/><path d="M525,-81L457,-91L532,-12Z" fill="#b5b5b5" stroke="#b5b5b5" stroke-width="1.51"/><path d="M457,-91L446,3L532,-12Z" fill="#b6b6b6" stroke="#b6b6b6" stroke-width="1.51"/><path d="M446,3L450,55L532,-12Z" fill="#b1b1b1" stroke="#b1b1b1" stroke-width="1.51"/><path d="M532,-12L450,55L539,63Z" fill="#aaaaaa" stroke="#aaaaaa" stroke-width="1.51"/><path d="M448,124L536,130L539,63Z" fill="#9f9f9f" stroke="#9f9f9f" stroke-width="1.51"/><path d="M450,55L448,124L539,63Z" fill="#a7a7a7" stroke="#a7a7a7" stroke-width="1.51"/><path d="M448,124L471,182L536,130Z" fill="#9c9c9c" stroke="#9c9c9c" stroke-width="1.51"/><path d="M386,-15L446,3L457,-91Z" fill="#bdbdbd" stroke="#bdbdbd" stroke-width="1.51"/><path d="M396,338L421,401L457,304Z" fill="#7a7a7a" stroke="#7a7a7a" stroke-width="1.51"/><path d="M375,205L458,258L471,182Z" fill="#939393" stroke="#939393" stroke-width="1.51"/><path d="M457,304L421,401L477,407Z" fill="#727272" stroke="#727272" stroke-width="1.51"/><path d="M421,401L454,493L477,407Z" fill="#636363" stroke="#636363" stroke-width="1.51"/><path d="M421,401L391,495L454,493Z" fill="#5e5e5e" stroke="#5e5e5e" stroke-width="1.51"/><path d="M408,-102L386,-15L457,-91Z" fill="#c2c2c2" stroke="#c2c2c2" stroke-width="1.51"/><path d="M454,493L391,495L459,561Z" fill="#505050" stroke="#505050" stroke-width="1.51"/><path d="M448,124L375,205L471,182Z" fill="#9d9d9d" stroke="#9d9d9d" stroke-width="1.51"/><path d="M398,113L375,205L448,124Z" fill="#a6a6a6" stroke="#a6a6a6" stroke-width="1.51"/><path d="M398,113L448,124L450,55Z" fill="#ababab" stroke="#ababab" stroke-width="1.51"/><path d="M384,75L398,113L450,55Z" fill="#b1b1b1" stroke="#b1b1b1" stroke-width="1.51"/><path d="M404,282L457,304L458,258Z" fill="#858585" stroke="#858585" stroke-width="1.51"/><path d="M375,205L404,282L458,258Z" fill="#909090" stroke="#909090" stroke-width="1.51"/><path d="M391,495L373,561L459,561Z" fill="#4f4f4f" stroke="#4f4f4f" stroke-width="1.51"/><path d="M404,282L396,338L457,304Z" fill="#838383" stroke="#838383" stroke-width="1.51"/><path d="M386,-15L384,75L446,3Z" fill="#bababa" stroke="#bababa" stroke-width="1.51"/><path d="M446,3L384,75L450,55Z" fill="#b4b4b4" stroke="#b4b4b4" stroke-width="1.51"/><path d="M43,-109L170,-71L315,-114Z" fill="#e5e5e5" stroke="#e5e5e5" stroke-width="1.51"/><path d="M320,469L391,495L421,401Z" fill="#676767" stroke="#676767" stroke-width="1.51"/><path d="M321,396L320,469L421,401Z" fill="#737373" stroke="#737373" stroke-width="1.51"/><path d="M396,338L321,396L421,401Z" fill="#7a7a7a" stroke="#7a7a7a" stroke-width="1.51"/><path d="M341,65L384,75L386,-15Z" fill="#bdbdbd" stroke="#bdbdbd" stroke-width="1.51"/><path d="M332,-2L341,65L386,-15Z" fill="#c3c3c3" stroke="#c3c3c3" stroke-width="1.51"/><path d="M317,129L375,205L398,113Z" fill="#acacac" stroke="#acacac" stroke-width="1.51"/><path d="M375,205L307,233L404,282Z" fill="#989898" stroke="#989898" stroke-width="1.51"/><path d="M315,-114L386,-15L408,-102Z" fill="#cacaca" stroke="#cacaca" stroke-width="1.51"/><path d="M315,-114L332,-2L386,-15Z" fill="#cbcbcb" stroke="#cbcbcb" stroke-width="1.51"/><path d="M336,513L373,561L391,495Z" fill="#585858" stroke="#585858" stroke-width="1.51"/><path d="M307,233L284,313L404,282Z" fill="#959595" stroke="#959595" stroke-width="1.51"/><path d="M305,344L396,338L404,282Z" fill="#878787" stroke="#878787" stroke-width="1.51"/><path d="M284,313L305,344L404,282Z" fill="#8e8e8e" stroke="#8e8e8e" stroke-width="1.51"/><path d="M316,216L307,233L375,205Z" fill="#a1a1a1" stroke="#a1a1a1" stroke-width="1.51"/><path d="M305,344L321,396L396,338Z" fill="#838383" stroke="#838383" stroke-width="1.51"/><path d="M384,75L317,129L398,113Z" fill="#b3b3b3" stroke="#b3b3b3" stroke-width="1.51"/><path d="M341,65L317,129L384,75Z" fill="#b8b8b8" stroke="#b8b8b8" stroke-width="1.51"/><path d="M315,-114L281,-76L332,-2Z" fill="#d2d2d2" stroke="#d2d2d2" stroke-width="1.51"/><path d="M320,469L336,513L391,495Z" fill="#606060" stroke="#606060" stroke-width="1.51"/><path d="M317,129L316,216L375,205Z" fill="#a8a8a8" stroke="#a8a8a8" stroke-width="1.51"/><path d="M336,513L249,558L373,561Z" fill="#5a5a5a" stroke="#5a5a5a" stroke-width="1.51"/><path d="M273,269L284,313L307,233Z" fill="#9d9d9d" stroke="#9d9d9d" stroke-width="1.51"/><path d="M278,212L316,216L317,129Z" fill="#acacac" stroke="#acacac" stroke-width="1.51"/><path d="M269,426L320,469L321,396Z" fill="#787878" stroke="#787878" stroke-width="1.51"/><path d="M255,-1L246,48L332,-2Z" fill="#cecece" stroke="#cecece" stroke-width="1.51"/><path d="M332,-2L246,48L341,65Z" fill="#c7c7c7" stroke="#c7c7c7" stroke-width="1.51"/><path d="M246,48L317,129L341,65Z" fill="#c1c1c1" stroke="#c1c1c1" stroke-width="1.51"/><path d="M281,-76L255,-1L332,-2Z" fill="#d2d2d2" stroke="#d2d2d2" stroke-width="1.51"/><path d="M320,469L268,473L336,513Z" fill="#676767" stroke="#676767" stroke-width="1.51"/><path d="M268,473L249,558L336,513Z" fill="#646464" stroke="#646464" stroke-width="1.51"/><path d="M247,141L278,212L317,129Z" fill="#b6b6b6" stroke="#b6b6b6" stroke-width="1.51"/><path d="M170,-71L281,-76L315,-114Z" fill="#dcdcdc" stroke="#dcdcdc" stroke-width="1.51"/><path d="M246,48L247,141L317,129Z" fill="#c2c2c2" stroke="#c2c2c2" stroke-width="1.51"/><path d="M269,426L268,473L320,469Z" fill="#737373" stroke="#737373" stroke-width="1.51"/><path d="M305,344L269,426L321,396Z" fill="#838383" stroke="#838383" stroke-width="1.51"/><path d="M278,212L307,233L316,216Z" fill="#a5a5a5" stroke="#a5a5a5" stroke-width="1.51"/><path d="M208,351L269,426L305,344Z" fill="#8c8c8c" stroke="#8c8c8c" stroke-width="1.51"/><path d="M278,212L273,269L307,233Z" fill="#a4a4a4" stroke="#a4a4a4" stroke-width="1.51"/><path d="M284,313L208,351L305,344Z" fill="#939393" stroke="#939393" stroke-width="1.51"/><path d="M208,351L206,426L269,426Z" fill="#898989" stroke="#898989" stroke-width="1.51"/><path d="M247,141L212,163L278,212Z" fill="#b7b7b7" stroke="#b7b7b7" stroke-width="1.51"/><path d="M180,242L273,269L278,212Z" fill="#a8a8a8" stroke="#a8a8a8" stroke-width="1.51"/><path d="M186,-47L255,-1L281,-76Z" fill="#dadada" stroke="#dadada" stroke-width="1.51"/><path d="M273,269L208,351L284,313Z" fill="#999999" stroke="#999999" stroke-width="1.51"/><path d="M170,-71L186,-47L281,-76Z" fill="#dfdfdf" stroke="#dfdfdf" stroke-width="1.51"/><path d="M178,469L249,558L268,473Z" fill="#6d6d6d" stroke="#6d6d6d" stroke-width="1.51"/><path d="M212,163L180,242L278,212Z" fill="#b2b2b2" stroke="#b2b2b2" stroke-width="1.51"/><path d="M178,469L163,519L249,558Z" fill="#6d6d6d" stroke="#6d6d6d" stroke-width="1.51"/><path d="M206,426L268,473L269,426Z" fill="#7b7b7b" stroke="#7b7b7b" stroke-width="1.51"/><path d="M180,242L208,351L273,269Z" fill="#a1a1a1" stroke="#a1a1a1" stroke-width="1.51"/><path d="M246,48L169,127L247,141Z" fill="#c7c7c7" stroke="#c7c7c7" stroke-width="1.51"/><path d="M206,426L178,469L268,473Z" fill="#7a7a7a" stroke="#7a7a7a" stroke-width="1.51"/><path d="M163,519L117,548L249,558Z" fill="#6a6a6a" stroke="#6a6a6a" stroke-width="1.51"/><path d="M180,22L246,48L255,-1Z" fill="#d3d3d3" stroke="#d3d3d3" stroke-width="1.51"/><path d="M186,-47L180,22L255,-1Z" fill="#d9d9d9" stroke="#d9d9d9" stroke-width="1.51"/><path d="M43,-109L93,-73L170,-71Z" fill="#ebebeb" stroke="#ebebeb" stroke-width="1.51"/><path d="M180,22L169,127L246,48Z" fill="#d0d0d0" stroke="#d0d0d0" stroke-width="1.51"/><path d="M169,127L212,163L247,141Z" fill="#c2c2c2" stroke="#c2c2c2" stroke-width="1.51"/><path d="M107,279L124,334L180,242Z" fill="#aaaaaa" stroke="#aaaaaa" stroke-width="1.51"/><path d="M169,127L92,176L180,242Z" fill="#c0c0c0" stroke="#c0c0c0" stroke-width="1.51"/><path d="M180,242L124,334L208,351Z" fill="#a2a2a2" stroke="#a2a2a2" stroke-width="1.51"/><path d="M136,381L206,426L208,351Z" fill="#919191" stroke="#919191" stroke-width="1.51"/><path d="M169,127L180,242L212,163Z" fill="#bcbcbc" stroke="#bcbcbc" stroke-width="1.51"/><path d="M124,334L136,381L208,351Z" fill="#9a9a9a" stroke="#9a9a9a" stroke-width="1.51"/><path d="M125,129L92,176L169,127Z" fill="#cacaca" stroke="#cacaca" stroke-width="1.51"/><path d="M136,381L178,469L206,426Z" fill="#878787" stroke="#878787" stroke-width="1.51"/><path d="M93,41L125,129L169,127Z" fill="#d1d1d1" stroke="#d1d1d1" stroke-width="1.51"/><path d="M136,381L108,468L178,469Z" fill="#868686" stroke="#868686" stroke-width="1.51"/><path d="M93,41L169,127L180,22Z" fill="#d6d6d6" stroke="#d6d6d6" stroke-width="1.51"/><path d="M124,-37L180,22L186,-47Z" fill="#dfdfdf" stroke="#dfdfdf" stroke-width="1.51"/><path d="M170,-71L124,-37L186,-47Z" fill="#e3e3e3" stroke="#e3e3e3" stroke-width="1.51"/><path d="M108,468L163,519L178,469Z" fill="#787878" stroke="#787878" stroke-width="1.51"/><path d="M124,-37L93,41L180,22Z" fill="#dfdfdf" stroke="#dfdfdf" stroke-width="1.51"/><path d="M92,176L107,279L180,242Z" fill="#b6b6b6" stroke="#b6b6b6" stroke-width="1.51"/><path d="M93,-73L124,-37L170,-71Z" fill="#e7e7e7" stroke="#e7e7e7" stroke-width="1.51"/><path d="M108,468L117,548L163,519Z" fill="#747474" stroke="#747474" stroke-width="1.51"/><path d="M45,194L63,278L92,176Z" fill="#bfbfbf" stroke="#bfbfbf" stroke-width="1.51"/><path d="M92,176L63,278L107,279Z" fill="#b7b7b7" stroke="#b7b7b7" stroke-width="1.51"/><path d="M55,343L66,399L124,334Z" fill="#a0a0a0" stroke="#a0a0a0" stroke-width="1.51"/><path d="M93,41L49,97L125,129Z" fill="#d6d6d6" stroke="#d6d6d6" stroke-width="1.51"/><path d="M124,334L66,399L136,381Z" fill="#9b9b9b" stroke="#9b9b9b" stroke-width="1.51"/><path d="M66,399L108,468L136,381Z" fill="#909090" stroke="#909090" stroke-width="1.51"/><path d="M63,278L55,343L107,279Z" fill="#acacac" stroke="#acacac" stroke-width="1.51"/><path d="M108,468L35,533L117,548Z" fill="#767676" stroke="#767676" stroke-width="1.51"/><path d="M35,533L4,564L117,548Z" fill="#727272" stroke="#727272" stroke-width="1.51"/><path d="M107,279L55,343L124,334Z" fill="#a7a7a7" stroke="#a7a7a7" stroke-width="1.51"/><path d="M24,-29L93,41L124,-37Z" fill="#e5e5e5" stroke="#e5e5e5" stroke-width="1.51"/><path d="M93,-73L24,-29L124,-37Z" fill="#eaeaea" stroke="#eaeaea" stroke-width="1.51"/><path d="M49,97L92,176L125,129Z" fill="#d0d0d0" stroke="#d0d0d0" stroke-width="1.51"/><path d="M50,58L49,97L93,41Z" fill="#dddddd" stroke="#dddddd" stroke-width="1.51"/><path d="M26,496L35,533L108,468Z" fill="#7c7c7c" stroke="#7c7c7c" stroke-width="1.51"/><path d="M66,399L26,496L108,468Z" fill="#888888" stroke="#888888" stroke-width="1.51"/><path d="M49,97L45,194L92,176Z" fill="#cdcdcd" stroke="#cdcdcd" stroke-width="1.51"/><path d="M43,-109L24,-29L93,-73Z" fill="#efefef" stroke="#efefef" stroke-width="1.51"/><path d="M24,-29L50,58L93,41Z" fill="#e3e3e3" stroke="#e3e3e3" stroke-width="1.51"/><path d="M-8,99L45,194L49,97Z" fill="#d5d5d5" stroke="#d5d5d5" stroke-width="1.51"/><path d="M24,-29L-24,43L50,58Z" fill="#e7e7e7" stroke="#e7e7e7" stroke-width="1.51"/><path d="M6,267L55,343L63,278Z" fill="#b0b0b0" stroke="#b0b0b0" stroke-width="1.51"/><path d="M45,194L6,267L63,278Z" fill="#bababa" stroke="#bababa" stroke-width="1.51"/><path d="M55,343L-8,418L66,399Z" fill="#9d9d9d" stroke="#9d9d9d" stroke-width="1.51"/><path d="M-8,418L26,496L66,399Z" fill="#909090" stroke="#909090" stroke-width="1.51"/><path d="M-8,99L-42,174L45,194Z" fill="#d3d3d3" stroke="#d3d3d3" stroke-width="1.51"/><path d="M-31,-42L24,-29L43,-109Z" fill="#f1f1f1" stroke="#f1f1f1" stroke-width="1.51"/><path d="M-8,99L49,97L50,58Z" fill="#dddddd" stroke="#dddddd" stroke-width="1.51"/><path d="M6,267L-45,326L55,343Z" fill="#afafaf" stroke="#afafaf" stroke-width="1.51"/><path d="M-45,326L-8,418L55,343Z" fill="#a6a6a6" stroke="#a6a6a6" stroke-width="1.51"/><path d="M-24,43L-8,99L50,58Z" fill="#e2e2e2" stroke="#e2e2e2" stroke-width="1.51"/><path d="M-47,-117L-31,-42L43,-109Z" fill="#f5f5f5" stroke="#f5f5f5" stroke-width="1.51"/><path d="M-42,174L6,267L45,194Z" fill="#c5c5c5" stroke="#c5c5c5" stroke-width="1.51"/><path d="M-8,418L-44,480L26,496Z" fill="#8b8b8b" stroke="#8b8b8b" stroke-width="1.51"/><path d="M26,496L4,564L35,533Z" fill="#787878" stroke="#787878" stroke-width="1.51"/><path d="M-31,-42L-24,43L24,-29Z" fill="#ededed" stroke="#ededed" stroke-width="1.51"/><path d="M-44,480L4,564L26,496Z" fill="#7e7e7e" stroke="#7e7e7e" stroke-width="1.51"/><path d="M-31,-42L-65,7L-24,43Z" fill="#ededed" stroke="#ededed" stroke-width="1.51"/><path d="M-45,326L-82,421L-8,418Z" fill="#a2a2a2" stroke="#a2a2a2" stroke-width="1.51"/><path d="M-44,480L-113,552L4,564Z" fill="#7d7d7d" stroke="#7d7d7d" stroke-width="1.51"/><path d="M-42,174L-114,259L6,267Z" fill="#c3c3c3" stroke="#c3c3c3" stroke-width="1.51"/><path d="M-114,259L-66,303L6,267Z" fill="#bababa" stroke="#bababa" stroke-width="1.51"/><path d="M-66,303L-45,326L6,267Z" fill="#b4b4b4" stroke="#b4b4b4" stroke-width="1.51"/><path d="M-24,43L-73,41L-8,99Z" fill="#e5e5e5" stroke="#e5e5e5" stroke-width="1.51"/><path d="M-73,41L-111,114L-8,99Z" fill="#e3e3e3" stroke="#e3e3e3" stroke-width="1.51"/><path d="M-111,114L-80,162L-8,99Z" fill="#dcdcdc" stroke="#dcdcdc" stroke-width="1.51"/><path d="M-80,162L-42,174L-8,99Z" fill="#d8d8d8" stroke="#d8d8d8" stroke-width="1.51"/><path d="M-82,421L-44,480L-8,418Z" fill="#949494" stroke="#949494" stroke-width="1.51"/><path d="M-80,162L-114,259L-42,174Z" fill="#cdcdcd" stroke="#cdcdcd" stroke-width="1.51"/><path d="M-47,-117L-99,-69L-31,-42Z" fill="#f7f7f7" stroke="#f7f7f7" stroke-width="1.51"/><path d="M-65,7L-73,41L-24,43Z" fill="#eaeaea" stroke="#eaeaea" stroke-width="1.51"/><path d="M-112,477L-113,552L-44,480Z" fill="#858585" stroke="#858585" stroke-width="1.51"/><path d="M-99,-69L-65,7L-31,-42Z" fill="#f3f3f3" stroke="#f3f3f3" stroke-width="1.51"/><path d="M-66,303L-82,421L-45,326Z" fill="#acacac" stroke="#acacac" stroke-width="1.51"/><path d="M-82,421L-112,477L-44,480Z" fill="#909090" stroke="#909090" stroke-width="1.51"/><path d="M-114,259L-82,421L-66,303Z" fill="#b1b1b1" stroke="#b1b1b1" stroke-width="1.51"/><path d="M-99,-69L-73,41L-65,7Z" fill="#f1f1f1" stroke="#f1f1f1" stroke-width="1.51"/><path d="M-99,-69L-111,114L-73,41Z" fill="#ededed" stroke="#ededed" stroke-width="1.51"/><path d="M-114,259L-112,477L-82,421Z" fill="#a6a6a6" stroke="#a6a6a6" stroke-width="1.51"/><path d="M-111,114L-114,259L-80,162Z" fill="#d3d3d3" stroke="#d3d3d3" stroke-width="1.51"/><path d="M-114,259L-113,552L-112,477Z" fill="#9b9b9b" stroke="#9b9b9b" stroke-width="1.51"/></svg>