<svg xmlns="http://www.w3.org/2000/svg" width="800" height="450"><path d="M-47,-117L43,-109L315,-114Z" fill="#da6c48" stroke="#da6c48" stroke-width="1.51"/><path d="M249,558L4,564L373,561Z" fill="#9f3e25" stroke="#9f3e25" stroke-width="1.51"/><path d="M315,-114L408,-102L588,-94Z" fill="#c75d3d" stroke="#c75d3d" stroke-width="1.51"/><path d="M740,542L655,551L811,550Z" fill="#842916" stroke="#842916" stroke-width="1.51"/><path d="M826,122L829,170L872,93Z" fill="#a03e26" stroke="#a03e26" stroke-width="1.51"/><path d="M588,-94L659,-92L874,-101Z" fill="#b85234" stroke="#b85234" stroke-width="1.51"/><path d="M315,-114L588,-94L874,-101Z" fill="#bf5738" stroke="#bf5738" stroke-width="1.51"/><path d="M659,-92L765,-76L874,-101Z" fill="#b54f32" stroke="#b54f32" stroke-width="1.51"/><path d="M872,93L829,170L880,216Z" fill="#9d3b24" stroke="#9d3b24" stroke-width="1.51"/><path d="M847,343L884,389L888,309Z" fill="#8d301b" stroke="#8d301b" stroke-width="1.51"/><path d="M880,216L869,276L888,309Z" fill="#93351f" stroke="#93351f" stroke-width="1.51"/><path d="M872,93L880,216L894,77Z" fill="#9e3d25" stroke="#9e3d25" stroke-width="1.51"/><path d="M880,216L888,309L894,77Z" fill="#983821" stroke="#983821" stroke-width="1.51"/><path d="M799,-19L807,28L896,-43Z" fill="#ab472c" stroke="#ab472c" stroke-width="1.51"/><path d="M807,28L894,77L896,-43Z" fill="#a7442a" stroke="#a7442a" stroke-width="1.51"/><path d="M811,550L655,551L896,566Z" fill="#812715" stroke="#812715" stroke-width="1.51"/><path d="M655,551L523,561L896,566Z" fill="#862b17" stroke="#862b17" stroke-width="1.51"/><path d="M896,-43L894,77L905,477Z" fill="#9a3a22" stroke="#9a3a22" stroke-width="1.51"/><path d="M884,389L825,450L905,477Z" fill="#862b17" stroke="#862b17" stroke-width="1.51"/><path d="M811,550L896,566L905,477Z" fill="#7f2413" stroke="#7f2413" stroke-width="1.51"/><path d="M825,450L811,550L905,477Z" fill="#832815" stroke="#832815" stroke-width="1.51"/><path d="M888,309L884,389L905,477Z" fill="#882d19" stroke="#882d19" stroke-width="1.51"/><path d="M894,77L888,309L905,477Z" fill="#90331d" stroke="#90331d" stroke-width="1.51"/><path d="M832,387L825,450L884,389Z" fill="#892d19" stroke="#892d19" stroke-width="1.51"/><path d="M807,28L872,93L894,77Z" fill="#a44228" stroke="#a44228" stroke-width="1.51"/><path d="M822,-67L799,-19L896,-43Z" fill="#ae492e" stroke="#ae492e" stroke-width="1.51"/><path d="M874,-101L822,-67L896,-43Z" fill="#ae4a2e" stroke="#ae4a2e" stroke-width="1.51"/><path d="M830,232L869,276L880,216Z" fill="#963720" stroke="#963720" stroke-width="1.51"/><path d="M765,-76L822,-67L874,-101Z" fill="#b24c30" stroke="#b24c30" stroke-width="1.51"/><path d="M847,343L832,387L884,389Z" fill="#8c301a" stroke="#8c301a" stroke-width="1.51"/><path d="M869,276L847,343L888,309Z" fill="#90331d" stroke="#90331d" stroke-width="1.51"/><path d="M408,-102L457,-91L588,-94Z" fill="#c45b3b" stroke="#c45b3b" stroke-width="1.51"/><path d="M829,170L830,232L880,216Z" fill="#993a22" stroke="#993a22" stroke-width="1.51"/><path d="M807,28L826,122L872,93Z" fill="#a44128" stroke="#a44128" stroke-width="1.51"/><path d="M773,254L847,343L869,276Z" fill="#94351f" stroke="#94351f" stroke-width="1.51"/><path d="M773,254L772,338L847,343Z" fill="#94351f" stroke="#94351f" stroke-width="1.51"/><path d="M830,232L773,254L869,276Z" fill="#973821" stroke="#973821" stroke-width="1.51"/><path d="M772,338L832,387L847,343Z" fill="#8f321c" stroke="#8f321c" stroke-width="1.51"/><path d="M619,546L523,561L655,551Z" fill="#8b2f1a" stroke="#8b2f1a" stroke-width="1.51"/><path d="M736,28L769,142L807,28Z" fill="#a9452b" stroke="#a9452b" stroke-width="1.51"/><path d="M748,442L740,542L811,550Z" fill="#862b17" stroke="#862b17" stroke-width="1.51"/><path d="M748,442L811,550L825,450Z" fill="#872c18" stroke="#872c18" stroke-width="1.51"/><path d="M749,406L748,442L825,450Z" fill="#8b2f1a" stroke="#8b2f1a" stroke-width="1.51"/><path d="M807,28L769,142L826,122Z" fill="#a54229" stroke="#a54229" stroke-width="1.51"/><path d="M729,174L773,254L829,170Z" fill="#9d3d24" stroke="#9d3d24" stroke-width="1.51"/><path d="M769,142L729,174L829,170Z" fill="#a03f26" stroke="#a03f26" stroke-width="1.51"/><path d="M826,122L769,142L829,170Z" fill="#a03f26" stroke="#a03f26" stroke-width="1.51"/><path d="M829,170L773,254L830,232Z" fill="#9a3a22" stroke="#9a3a22" stroke-width="1.51"/><path d="M749,406L825,450L832,387Z" fill="#8b2f1a" stroke="#8b2f1a" stroke-width="1.51"/><path d="M772,338L749,406L832,387Z" fill="#8f321c" stroke="#8f321c" stroke-width="1.51"/><path d="M765,-76L799,-19L822,-67Z" fill="#b04c2f" stroke="#b04c2f" stroke-width="1.51"/><path d="M799,-19L746,-6L807,28Z" fill="#ac492d" stroke="#ac492d" stroke-width="1.51"/><path d="M736,28L692,71L769,142Z" fill="#a9462b" stroke="#a9462b" stroke-width="1.51"/><path d="M746,-6L736,28L807,28Z" fill="#ac482d" stroke="#ac482d" stroke-width="1.51"/><path d="M765,-76L746,-6L799,-19Z" fill="#b04b2f" stroke="#b04b2f" stroke-width="1.51"/><path d="M694,453L740,542L748,442Z" fill="#8a2e19" stroke="#8a2e19" stroke-width="1.51"/><path d="M692,71L673,101L769,142Z" fill="#a9452b" stroke="#a9452b" stroke-width="1.51"/><path d="M657,310L749,406L772,338Z" fill="#94361f" stroke="#94361f" stroke-width="1.51"/><path d="M683,246L657,310L772,338Z" fill="#9a3a22" stroke="#9a3a22" stroke-width="1.51"/><path d="M729,174L692,213L773,254Z" fill="#9f3e25" stroke="#9f3e25" stroke-width="1.51"/><path d="M683,246L772,338L773,254Z" fill="#993922" stroke="#993922" stroke-width="1.51"/><path d="M692,213L683,246L773,254Z" fill="#9d3d24" stroke="#9d3d24" stroke-width="1.51"/><path d="M673,101L729,174L769,142Z" fill="#a54229" stroke="#a54229" stroke-width="1.51"/><path d="M675,-19L746,-6L765,-76Z" fill="#b24d30" stroke="#b24d30" stroke-width="1.51"/><path d="M657,310L693,426L749,406Z" fill="#93351f" stroke="#93351f" stroke-width="1.51"/><path d="M659,-92L675,-19L765,-76Z" fill="#b65033" stroke="#b65033" stroke-width="1.51"/><path d="M694,453L655,551L740,542Z" fill="#892d19" stroke="#892d19" stroke-width="1.51"/><path d="M693,426L748,442L749,406Z" fill="#8e311c" stroke="#8e311c" stroke-width="1.51"/><path d="M693,426L694,453L748,442Z" fill="#8f311c" stroke="#8f311c" stroke-width="1.51"/><path d="M675,-19L736,28L746,-6Z" fill="#b04b2f" stroke="#b04b2f" stroke-width="1.51"/><path d="M675,-19L692,71L736,28Z" fill="#af4a2f" stroke="#af4a2f" stroke-width="1.51"/><path d="M673,101L692,213L729,174Z" fill="#a44228" stroke="#a44228" stroke-width="1.51"/><path d="M117,548L4,564L249,558Z" fill="#a44128" stroke="#a44128" stroke-width="1.51"/><path d="M457,-91L525,-81L588,-94Z" fill="#c25939" stroke="#c25939" stroke-width="1.51"/><path d="M590,491L619,546L655,551Z" fill="#8c301a" stroke="#8c301a" stroke-width="1.51"/><path d="M673,101L623,110L692,213Z" fill="#a8452a" stroke="#a8452a" stroke-width="1.51"/><path d="M623,110L598,193L692,213Z" fill="#a7442a" stroke="#a7442a" stroke-width="1.51"/><path d="M675,-19L608,28L692,71Z" fill="#b14c30" stroke="#b14c30" stroke-width="1.51"/><path d="M657,310L606,336L693,426Z" fill="#973821" stroke="#973821" stroke-width="1.51"/><path d="M606,336L597,417L693,426Z" fill="#963720" stroke="#963720" stroke-width="1.51"/><path d="M590,491L655,551L694,453Z" fill="#8d301b" stroke="#8d301b" stroke-width="1.51"/><path d="M693,426L597,417L694,453Z" fill="#91331d" stroke="#91331d" stroke-width="1.51"/><path d="M597,417L590,491L694,453Z" fill="#92341d" stroke="#92341d" stroke-width="1.51"/><path d="M598,240L683,246L692,213Z" fill="#a14026" stroke="#a14026" stroke-width="1.51"/><path d="M598,193L598,240L692,213Z" fill="#a44228" stroke="#a44228" stroke-width="1.51"/><path d="M608,28L673,101L692,71Z" fill="#ae4a2e" stroke="#ae4a2e" stroke-width="1.51"/><path d="M608,28L623,110L673,101Z" fill="#af4a2e" stroke="#af4a2e" stroke-width="1.51"/><path d="M598,240L657,310L683,246Z" fill="#9f3e25" stroke="#9f3e25" stroke-width="1.51"/><path d="M588,-94L590,-4L659,-92Z" fill="#bb5335" stroke="#bb5335" stroke-width="1.51"/><path d="M659,-92L590,-4L675,-19Z" fill="#b85134" stroke="#b85134" stroke-width="1.51"/><path d="M590,-4L608,28L675,-19Z" fill="#b54f32" stroke="#b54f32" stroke-width="1.51"/><path d="M598,240L606,336L657,310Z" fill="#9e3d24" stroke="#9e3d24" stroke-width="1.51"/><path d="M566,234L561,340L598,240Z" fill="#a24027" stroke="#a24027" stroke-width="1.51"/><path d="M598,240L561,340L606,336Z" fill="#9f3e25" stroke="#9f3e25" stroke-width="1.51"/><path d="M561,340L597,417L606,336Z" fill="#9a3a22" stroke="#9a3a22" stroke-width="1.51"/><path d="M536,130L554,162L623,110Z" fill="#ad492d" stroke="#ad492d" stroke-width="1.51"/><path d="M608,28L539,63L623,110Z" fill="#b24c30" stroke="#b24c30" stroke-width="1.51"/><path d="M539,63L536,130L623,110Z" fill="#b04b2f" stroke="#b04b2f" stroke-width="1.51"/><path d="M554,162L598,193L623,110Z" fill="#aa472c" stroke="#aa472c" stroke-width="1.51"/><path d="M560,420L590,491L597,417Z" fill="#94361f" stroke="#94361f" stroke-width="1.51"/><path d="M590,491L559,495L619,546Z" fill="#8f321c" stroke="#8f321c" stroke-width="1.51"/><path d="M559,495L523,561L619,546Z" fill="#8e311c" stroke="#8e311c" stroke-width="1.51"/><path d="M525,-81L532,-12L588,-94Z" fill="#bf5638" stroke="#bf5638" stroke-width="1.51"/><path d="M588,-94L532,-12L590,-4Z" fill="#bb5435" stroke="#bb5435" stroke-width="1.51"/><path d="M560,420L559,495L590,491Z" fill="#93351e" stroke="#93351e" stroke-width="1.51"/><path d="M561,340L560,420L597,417Z" fill="#993a22" stroke="#993a22" stroke-width="1.51"/><path d="M566,234L598,240L598,193Z" fill="#a64329" stroke="#a64329" stroke-width="1.51"/><path d="M590,-4L539,63L608,28Z" fill="#b54f32" stroke="#b54f32" stroke-width="1.51"/><path d="M532,-12L539,63L590,-4Z" fill="#b85133" stroke="#b85133" stroke-width="1.51"/><path d="M554,162L566,234L598,193Z" fill="#a8452a" stroke="#a8452a" stroke-width="1.51"/><path d="M457,304L561,340L566,234Z" fill="#a34128" stroke="#a34128" stroke-width="1.51"/><path d="M477,407L454,493L559,495Z" fill="#973821" stroke="#973821" stroke-width="1.51"/><path d="M477,407L559,495L560,420Z" fill="#973821" stroke="#973821" stroke-width="1.51"/><path d="M477,407L560,420L561,340Z" fill="#9b3c23" stroke="#9b3c23" stroke-width="1.51"/><path d="M554,162L471,182L566,234Z" fill="#ab472c" stroke="#ab472c" stroke-width="1.51"/><path d="M471,182L458,258L566,234Z" fill="#aa472c" stroke="#aa472c" stroke-width="1.51"/><path d="M458,258L457,304L566,234Z" fill="#a7442a" stroke="#a7442a" stroke-width="1.51"/><path d="M457,304L477,407L561,340Z" fill="#a03f26" stroke="#a03f26" stroke-width="1.51"/><path d="M454,493L523,561L559,495Z" fill="#92341e" stroke="#92341e" stroke-width="1.51"/><path d="M536,130L471,182L554,162Z" fill="#ae4a2e" stroke="#ae4a2e" stroke-width="1.51"/><path d="M454,493L459,561L523,561Z" fill="#93351e" stroke="#93351e" stroke-width="1.51"/><path d="M525,-81L457,-91L532,-12Z" fill="#c15839" stroke="#c15839" stroke-width="1.51"/><path d="M457,-91L446,3L532,-12Z" fill="#c05738" stroke="#c05738" stroke-width="1.51"/><path d="M446,3L450,55L532,-12Z" fill="#bc5436" stroke="#bc5436" stroke-width="1.51"/><path d="M532,-12L450,55L539,63Z" fill="#b95234" stroke="#b95234" stroke-width="1.51"/><path d="M448,124L536,130L539,63Z" fill="#b34d31" stroke="#b34d31" stroke-width="1.51"/><path d="M450,55L448,124L539,63Z" fill="#b65033" stroke="#b65033" stroke-width="1.51"/><path d="M448,124L471,182L536,130Z" fill="#b14c2f" stroke="#b14c2f" stroke-width="1.51"/><path d="M386,-15L446,3L457,-91Z" fill="#c2593a" stroke="#c2593a" stroke-width="1.51"/><path d="M396,338L421,401L457,304Z" fill="#a44228" stroke="#a44228" stroke-width="1.51"/><path d="M375,205L458,258L471,182Z" fill="#ae4a2e" stroke="#ae4a2e" stroke-width="1.51"/><path d="M457,304L421,401L477,407Z" fill="#a13f27" stroke="#a13f27" stroke-width="1.51"/><path d="M421,401L454,493L477,407Z" fill="#9c3b24" stroke="#9c3b24" stroke-width="1.51"/><path d="M421,401L391,495L454,493Z" fill="#9b3b23" stroke="#9b3b23" stroke-width="1.51"/><path d="M408,-102L386,-15L457,-91Z" fill="#c65c3c" stroke="#c65c3c" stroke-width="1.51"/><path d="M454,493L391,495L459,561Z" fill="#973821" stroke="#973821" stroke-width="1.51"/><path d="M448,124L375,205L471,182Z" fill="#b24c30" stroke="#b24c30" stroke-width="1.51"/><path d="M398,113L375,205L448,124Z" fill="#b54f32" stroke="#b54f32" stroke-width="1.51"/><path d="M398,113L448,124L450,55Z" fill="#b85134" stroke="#b85134" stroke-width="1.51"/><path d="M384,75L398,113L450,55Z" fill="#ba5335" stroke="#ba5335" stroke-width="1.51"/><path d="M404,282L457,304L458,258Z" fill="#a8452b" stroke="#a8452b" stroke-width="1.51"/><path d="M375,205L404,282L458,258Z" fill="#ad492d" stroke="#ad492d" stroke-width="1.51"/><path d="M391,495L373,561L459,561Z" fill="#963720" stroke="#963720" stroke-width="1.51"/><path d="M404,282L396,338L457,304Z" fill="#a7442a" stroke="#a7442a" stroke-width="1.51"/><path d="M386,-15L384,75L446,3Z" fill="#bf5738" stroke="#bf5738" stroke-width="1.51"/><path d="M446,3L384,75L450,55Z" fill="#bc5436" stroke="#bc5436" stroke-width="1.51"/><path d="M43,-109L170,-71L315,-114Z" fill="#d56845" stroke="#d56845" stroke-width="1.51"/><path d="M320,469L391,495L421,401Z" fill="#9e3d25" stroke="#9e3d25" stroke-width="1.51"/><path d="M321,396L320,469L421,401Z" fill="#a24027" stroke="#a24027" stroke-width="1.51"/><path d="M396,338L321,396L421,401Z" fill="#a44228" stroke="#a44228" stroke-width="1.51"/><path d="M341,65L384,75L386,-15Z" fill="#bf5738" stroke="#bf5738" stroke-width="1.51"/><path d="M332,-2L341,65L386,-15Z" fill="#c2593a" stroke="#c2593a" stroke-width="1.51"/><path d="M317,129L375,205L398,113Z" fill="#b75033" stroke="#b75033" stroke-width="1.51"/><path d="M375,205L307,233L404,282Z" fill="#b04b2f" stroke="#b04b2f" stroke-width="1.51"/><path d="M315,-114L386,-15L408,-102Z" fill="#c95e3e" stroke="#c95e3e" stroke-width="1.51"/><path d="M315,-114L332,-2L386,-15Z" fill="#c85d3d" stroke="#c85d3d" stroke-width="1.51"/><path d="M336,513L373,561L391,495Z" fill="#9a3a22" stroke="#9a3a22" stroke-width="1.51"/><path d="M307,233L284,313L404,282Z" fill="#af4a2e" stroke="#af4a2e" stroke-width="1.51"/><path d="M305,344L396,338L404,282Z" fill="#a9462b" stroke="#a9462b" stroke-width="1.51"/><path d="M284,313L305,344L404,282Z" fill="#ac482d" stroke="#ac482d" stroke-width="1.51"/><path d="M316,216L307,233L375,205Z" fill="#b34d31" stroke="#b34d31" stroke-width="1.51"/><path d="M305,344L321,396L396,338Z" fill="#a8442a" stroke="#a8442a" stroke-width="1.51"/><path d="M384,75L317,129L398,113Z" fill="#ba5335" stroke="#ba5335" stroke-width="1.51"/><path d="M341,65L317,129L384,75Z" fill="#bd5536" stroke="#bd5536" stroke-width="1.51"/><path d="M315,-114L281,-76L332,-2Z" fill="#cb603f" stroke="#cb603f" stroke-width="1.51"/><path d="M320,469L336,513L391,495Z" fill="#9d3c24" stroke="#9d3c24" stroke-width="1.51"/><path d="M317,129L316,216L375,205Z" fill="#b65033" stroke="#b65033" stroke-width="1.51"/><path d="M336,513L249,558L373,561Z" fill="#9b3a23" stroke="#9b3a23" stroke-width="1.51"/><path d="M273,269L284,313L307,233Z" fill="#b14c30" stroke="#b14c30" stroke-width="1.51"/><path d="M278,212L316,216L317,129Z" fill="#b85033" stroke="#b85033" stroke-width="1.51"/><path d="M269,426L320,469L321,396Z" fill="#a44228" stroke="#a44228" stroke-width="1.51"/><path d="M255,-1L246,48L332,-2Z" fill="#c65c3c" stroke="#c65c3c" stroke-width="1.51"/><path d="M332,-2L246,48L341,65Z" fill="#c35a3a" stroke="#c35a3a" stroke-width="1.51"/><path d="M246,48L317,129L341,65Z" fill="#c05738" stroke="#c05738" stroke-width="1.51"/><path d="M281,-76L255,-1L332,-2Z" fill="#c95f3d" stroke="#c95f3d" stroke-width="1.51"/><path d="M320,469L268,473L336,513Z" fill="#a03e26" stroke="#a03e26" stroke-width="1.51"/><path d="M268,473L249,558L336,513Z" fill="#9f3d25" stroke="#9f3d25" stroke-width="1.51"/><path d="M247,141L278,212L317,129Z" fill="#bb5335" stroke="#bb5335" stroke-width="1.51"/><path d="M170,-71L281,-76L315,-114Z" fill="#d06342" stroke="#d06342" stroke-width="1.51"/><path d="M246,48L247,141L317,129Z" fill="#bf5738" stroke="#bf5738" stroke-width="1.51"/><path d="M269,426L268,473L320,469Z" fill="#a34128" stroke="#a34128" stroke-width="1.51"/><path d="M305,344L269,426L321,396Z" fill="#a8452a" stroke="#a8452a" stroke-width="1.51"/><path d="M278,212L307,233L316,216Z" fill="#b54f32" stroke="#b54f32" stroke-width="1.51"/><path d="M208,351L269,426L305,344Z" fill="#ab472c" stroke="#ab472c" stroke-width="1.51"/><path d="M278,212L273,269L307,233Z" fill="#b44e31" stroke="#b44e31" stroke-width="1.51"/><path d="M284,313L208,351L305,344Z" fill="#ae492e" stroke="#ae492e" stroke-width="1.51"/><path d="M208,351L206,426L269,426Z" fill="#ab472c" stroke="#ab472c" stroke-width="1.51"/><path d="M247,141L212,163L278,212Z" fill="#bc5436" stroke="#bc5436" stroke-width="1.51"/><path d="M180,242L273,269L278,212Z" fill="#b65032" stroke="#b65032" stroke-width="1.51"/><path d="M186,-47L255,-1L281,-76Z" fill="#cd6140" stroke="#cd6140" stroke-width="1.51"/><path d="M273,269L208,351L284,313Z" fill="#b04b2f" stroke="#b04b2f" stroke-width="1.51"/><path d="M170,-71L186,-47L281,-76Z" fill="#d06442" stroke="#d06442" stroke-width="1.51"/><path d="M178,469L249,558L268,473Z" fill="#a24027" stroke="#a24027" stroke-width="1.51"/><path d="M212,163L180,242L278,212Z" fill="#ba5335" stroke="#ba5335" stroke-width="1.51"/><path d="M178,469L163,519L249,558Z" fill="#a34127" stroke="#a34127" stroke-width="1.51"/><path d="M206,426L268,473L269,426Z" fill="#a64329" stroke="#a64329" stroke-width="1.51"/><path d="M180,242L208,351L273,269Z" fill="#b34e31" stroke="#b34e31" stroke-width="1.51"/><path d="M246,48L169,127L247,141Z" fill="#c2593a" stroke="#c2593a" stroke-width="1.51"/><path d="M206,426L178,469L268,473Z" fill="#a7442a" stroke="#a7442a" stroke-width="1.51"/><path d="M163,519L117,548L249,558Z" fill="#a24027" stroke="#a24027" stroke-width="1.51"/><path d="M180,22L246,48L255,-1Z" fill="#c95e3d" stroke="#c95e3d" stroke-width="1.51"/><path d="M186,-47L180,22L255,-1Z" fill="#cc6040" stroke="#cc6040" stroke-width="1.51"/><path d="M43,-109L93,-73L170,-71Z" fill="#d86a46" stroke="#d86a46" stroke-width="1.51"/><path d="M180,22L169,127L246,48Z" fill="#c75c3c" stroke="#c75c3c" stroke-width="1.51"/><path d="M169,127L212,163L247,141Z" fill="#c05738" stroke="#c05738" stroke-width="1.51"/><path d="M107,279L124,334L180,242Z" fill="#b85134" stroke="#b85134" stroke-width="1.51"/><path d="M169,127L92,176L180,242Z" fill="#c05738" stroke="#c05738" stroke-width="1.51"/><path d="M180,242L124,334L208,351Z" fill="#b54e32" stroke="#b54e32" stroke-width="1.51"/><path d="M136,381L206,426L208,351Z" fill="#ae492e" stroke="#ae492e" stroke-width="1.51"/><path d="M169,127L180,242L212,163Z" fill="#be5637" stroke="#be5637" stroke-width="1.51"/><path d="M124,334L136,381L208,351Z" fill="#b24c30" stroke="#b24c30" stroke-width="1.51"/><path d="M125,129L92,176L169,127Z" fill="#c45a3b" stroke="#c45a3b" stroke-width="1.51"/><path d="M136,381L178,469L206,426Z" fill="#ab472d" stroke="#ab472d" stroke-width="1.51"/><path d="M93,41L125,129L169,127Z" fill="#c75d3d" stroke="#c75d3d" stroke-width="1.51"/><path d="M136,381L108,468L178,469Z" fill="#ac482d" stroke="#ac482d" stroke-width="1.51"/><path d="M93,41L169,127L180,22Z" fill="#c95f3e" stroke="#c95f3e" stroke-width="1.51"/><path d="M124,-37L180,22L186,-47Z" fill="#d06341" stroke="#d06341" stroke-width="1.51"/><path d="M170,-71L124,-37L186,-47Z" fill="#d26543" stroke="#d26543" stroke-width="1.51"/><path d="M108,468L163,519L178,469Z" fill="#a8452a" stroke="#a8452a" stroke-width="1.51"/><path d="M124,-37L93,41L180,22Z" fill="#cf6241" stroke="#cf6241" stroke-width="1.51"/><path d="M92,176L107,279L180,242Z" fill="#bd5537" stroke="#bd5537" stroke-width="1.51"/><path d="M93,-73L124,-37L170,-71Z" fill="#d46745" stroke="#d46745" stroke-width="1.51"/><path d="M108,468L117,548L163,519Z" fill="#a7442a" stroke="#a7442a" stroke-width="1.51"/><path d="M45,194L63,278L92,176Z" fill="#c25939" stroke="#c25939" stroke-width="1.51"/><path d="M92,176L63,278L107,279Z" fill="#be5637" stroke="#be5637" stroke-width="1.51"/><path d="M55,343L66,399L124,334Z" fill="#b54f33" stroke="#b54f33" stroke-width="1.51"/><path d="M93,41L49,97L125,129Z" fill="#cb5f3e" stroke="#cb5f3e" stroke-width="1.51"/><path d="M124,334L66,399L136,381Z" fill="#b34d31" stroke="#b34d31" stroke-width="1.51"/><path d="M66,399L108,468L136,381Z" fill="#b04b2f" stroke="#b04b2f" stroke-width="1.51"/><path d="M63,278L55,343L107,279Z" fill="#ba5335" stroke="#ba5335" stroke-width="1.51"/><path d="M108,468L35,533L117,548Z" fill="#a9452b" stroke="#a9452b" stroke-width="1.51"/><path d="M35,533L4,564L117,548Z" fill="#a8452a" stroke="#a8452a" stroke-width="1.51"/><path d="M107,279L55,343L124,334Z" fill="#b85134" stroke="#b85134" stroke-width="1.51"/><path d="M24,-29L93,41L124,-37Z" fill="#d36644" stroke="#d36644" stroke-width="1.51"/><path d="M93,-73L24,-29L124,-37Z" fill="#d66845" stroke="#d66845" stroke-width="1.51"/><path d="M49,97L92,176L125,129Z" fill="#c75d3c" stroke="#c75d3c" stroke-width="1.51"/><path d="M50,58L49,97L93,41Z" fill="#ce6241" stroke="#ce6241" stroke-width="1.51"/><path d="M26,496L35,533L108,468Z" fill="#ac482c" stroke="#ac482c" stroke-width="1.51"/><path d="M66,399L26,496L108,468Z" fill="#ae4a2e" stroke="#ae4a2e" stroke-width="1.51"/><path d="M49,97L45,194L92,176Z" fill="#c75c3c" stroke="#c75c3c" stroke-width="1.51"/><path d="M43,-109L24,-29L93,-73Z" fill="#d96b47" stroke="#d96b47" stroke-width="1.51"/><path d="M24,-29L50,58L93,41Z" fill="#d26543" stroke="#d26543" stroke-width="1.51"/><path d="M-8,99L45,194L49,97Z" fill="#ca5f3e" stroke="#ca5f3e" stroke-width="1.51"/><path d="M24,-29L-24,43L50,58Z" fill="#d46644" stroke="#d46644" stroke-width="1.51"/><path d="M6,267L55,343L63,278Z" fill="#bd5536" stroke="#bd5536" stroke-width="1.51"/><path d="M45,194L6,267L63,278Z" fill="#c15839" stroke="#c15839" stroke-width="1.51"/><path d="M55,343L-8,418L66,399Z" fill="#b64f32" stroke="#b64f32" stroke-width="1.51"/><path d="M-8,418L26,496L66,399Z" fill="#b24d30" stroke="#b24d30" stroke-width="1.51"/><path d="M-8,99L-42,174L45,194Z" fill="#ca5f3e" stroke="#ca5f3e" stroke-width="1.51"/><path d="M-31,-42L24,-29L43,-109Z" fill="#db6c48" stroke="#db6c48" stroke-width="1.51"/><path d="M-8,99L49,97L50,58Z" fill="#ce6241" stroke="#ce6241" stroke-width="1.51"/><path d="M6,267L-45,326L55,343Z" fill="#be5537" stroke="#be5537" stroke-width="1.51"/><path d="M-45,326L-8,418L55,343Z" fill="#ba5235" stroke="#ba5235" stroke-width="1.51"/><path d="M-24,43L-8,99L50,58Z" fill="#d16442" stroke="#d16442" stroke-width="1.51"/><path d="M-47,-117L-31,-42L43,-109Z" fill="#df6e4a" stroke="#df6e4a" stroke-width="1.51"/><path d="M-42,174L6,267L45,194Z" fill="#c55b3c" stroke="#c55b3c" stroke-width="1.51"/><path d="M-8,418L-44,480L26,496Z" fill="#b24d30" stroke="#b24d30" stroke-width="1.51"/><path d="M26,496L4,564L35,533Z" fill="#ab472c" stroke="#ab472c" stroke-width="1.51"/><path d="M-31,-42L-24,43L24,-29Z" fill="#d86947" stroke="#d86947" stroke-width="1.51"/><path d="M-44,480L4,564L26,496Z" fill="#ae4a2e" stroke="#ae4a2e" stroke-width="1.51"/><path d="M-31,-42L-65,7L-24,43Z" fill="#d96a47" stroke="#d96a47" stroke-width="1.51"/><path d="M-45,326L-82,421L-8,418Z" fill="#ba5335" stroke="#ba5335" stroke-width="1.51"/><path d="M-44,480L-113,552L4,564Z" fill="#af4a2e" stroke="#af4a2e" stroke-width="1.51"/><path d="M-42,174L-114,259L6,267Z" fill="#c75c3c" stroke="#c75c3c" stroke-width="1.51"/><path d="M-114,259L-66,303L6,267Z" fill="#c45a3b" stroke="#c45a3b" stroke-width="1.51"/><path d="M-66,303L-45,326L6,267Z" fill="#c15839" stroke="#c15839" stroke-width="1.51"/><path d="M-24,43L-73,41L-8,99Z" fill="#d46644" stroke="#d46644" stroke-width="1.51"/><path d="M-73,41L-111,114L-8,99Z" fill="#d36644" stroke="#d36644" stroke-width="1.51"/><path d="M-111,114L-80,162L-8,99Z" fill="#d06442" stroke="#d06442" stroke-width="1.51"/><path d="M-80,162L-42,174L-8,99Z" fill="#cd6140" stroke="#cd6140" stroke-width="1.51"/><path d="M-82,421L-44,480L-8,418Z" fill="#b65033" stroke="#b65033" stroke-width="1.51"/><path d="M-80,162L-114,259L-42,174Z" fill="#cb603f" stroke="#cb603f" stroke-width="1.51"/><path d="M-47,-117L-99,-69L-31,-42Z" fill="#e0704c" stroke="#e0704c" stroke-width="1.51"/><path d="M-65,7L-73,41L-24,43Z" fill="#d76946" stroke="#d76946" stroke-width="1.51"/><path d="M-112,477L-113,552L-44,480Z" fill="#b34e31" stroke="#b34e31" stroke-width="1.51"/><path d="M-99,-69L-65,7L-31,-42Z" fill="#dd6e49" stroke="#dd6e49" stroke-width="1.51"/><path d="M-66,303L-82,421L-45,326Z" fill="#be5637" stroke="#be5637" stroke-width="1.51"/><path d="M-82,421L-112,477L-44,480Z" fill="#b65033" stroke="#b65033" stroke-width="1.51"/><path d="M-114,259L-82,421L-66,303Z" fill="#c15839" stroke="#c15839" stroke-width="1.51"/><path d="M-99,-69L-73,41L-65,7Z" fill="#dc6c48" stroke="#dc6c48" stroke-width="1.51"/><path d="M-99,-69L-111,114L-73,41Z" fill="#da6b47" stroke="#da6b47" stroke-width="1.51"/><path d="M-114,259L-112,477L-82,421Z" fill="#bd5537" stroke="#bd5537" stroke-width="1.51"/><path d="M-111,114L-114,259L-80,162Z" fill="#ce6240" stroke="#ce6240" stroke-width="1.51"/><path d="M-114,259L-113,552L-112,477Z" fill="#ba5335" stroke="#ba5335" stroke-width="1.51"/></svg>