<svg xmlns="http://www.w3.org/2000/svg" width="800" height="450"><path d="M-47,-117L43,-109L315,-114Z" fill="#4fbc4d" stroke="#4fbc4d" stroke-width="1.51"/><path d="M249,558L4,564L373,561Z" fill="#277624" stroke="#277624" stroke-width="1.51"/><path d="M315,-114L408,-102L588,-94Z" fill="#42a640" stroke="#42a640" stroke-width="1.51"/><path d="M740,542L655,551L811,550Z" fill="#155914" stroke="#155914" stroke-width="1.51"/><path d="M826,122L829,170L872,93Z" fill="#277726" stroke="#277726" stroke-width="1.51"/><path d="M588,-94L659,-92L874,-101Z" fill="#389436" stroke="#389436" stroke-width="1.51"/><path d="M315,-114L588,-94L874,-101Z" fill="#3d9c3a" stroke="#3d9c3a" stroke-width="1.51"/><path d="M659,-92L765,-76L874,-101Z" fill="#359034" stroke="#359034" stroke-width="1.51"/><path d="M872,93L829,170L880,216Z" fill="#257323" stroke="#257323" stroke-width="1.51"/><path d="M847,343L884,389L888,309Z" fill="#1b6219" stroke="#1b6219" stroke-width="1.51"/><path d="M880,216L869,276L888,309Z" fill="#1f691d" stroke="#1f691d" stroke-width="1.51"/><path d="M872,93L880,216L894,77Z" fill="#267524" stroke="#267524" stroke-width="1.51"/><path d="M880,216L888,309L894,77Z" fill="#226e20" stroke="#226e20" stroke-width="1.51"/><path d="M799,-19L807,28L896,-43Z" fill="#2f842d" stroke="#2f842d" stroke-width="1.51"/><path d="M807,28L894,77L896,-43Z" fill="#2c802a" stroke="#2c802a" stroke-width="1.51"/><path d="M811,550L655,551L896,566Z" fill="#135512" stroke="#135512" stroke-width="1.51"/><path d="M655,551L523,561L896,566Z" fill="#175a15" stroke="#175a15" stroke-width="1.51"/><path d="M896,-43L894,77L905,477Z" fill="#237021" stroke="#237021" stroke-width="1.51"/><path d="M884,389L825,450L905,477Z" fill="#165a15" stroke="#165a15" stroke-width="1.51"/><path d="M811,550L896,566L905,477Z" fill="#125210" stroke="#125210" stroke-width="1.51"/><path d="M825,450L811,550L905,477Z" fill="#155713" stroke="#155713" stroke-width="1.51"/><path d="M888,309L884,389L905,477Z" fill="#185d16" stroke="#185d16" stroke-width="1.51"/><path d="M894,77L888,309L905,477Z" fill="#1d661b" stroke="#1d661b" stroke-width="1.51"/><path d="M832,387L825,450L884,389Z" fill="#195e17" stroke="#195e17" stroke-width="1.51"/><path d="M807,28L872,93L894,77Z" fill="#2a7c28" stroke="#2a7c28" stroke-width="1.51"/><path d="M822,-67L799,-19L896,-43Z" fill="#31872f" stroke="#31872f" stroke-width="1.51"/><path d="M874,-101L822,-67L896,-43Z" fill="#31882f" stroke="#31882f" stroke-width="1.51"/><path d="M830,232L869,276L880,216Z" fill="#216c1f" stroke="#216c1f" stroke-width="1.51"/><path d="M765,-76L822,-67L874,-101Z" fill="#338c31" stroke="#338c31" stroke-width="1.51"/><path d="M847,343L832,387L884,389Z" fill="#1a6118" stroke="#1a6118" stroke-width="1.51"/><path d="M869,276L847,343L888,309Z" fill="#1d661b" stroke="#1d661b" stroke-width="1.51"/><path d="M408,-102L457,-91L588,-94Z" fill="#40a23e" stroke="#40a23e" stroke-width="1.51"/><path d="M829,170L830,232L880,216Z" fill="#237021" stroke="#237021" stroke-width="1.51"/><path d="M807,28L826,122L872,93Z" fill="#2a7c28" stroke="#2a7c28" stroke-width="1.51"/><path d="M773,254L847,343L869,276Z" fill="#206a1d" stroke="#206a1d" stroke-width="1.51"/><path d="M773,254L772,338L847,343Z" fill="#1f6a1e" stroke="#1f6a1e" stroke-width="1.51"/><path d="M830,232L773,254L869,276Z" fill="#216d20" stroke="#216d20" stroke-width="1.51"/><path d="M772,338L832,387L847,343Z" fill="#1d651a" stroke="#1d651a" stroke-width="1.51"/><path d="M619,546L523,561L655,551Z" fill="#1a6018" stroke="#1a6018" stroke-width="1.51"/><path d="M736,28L769,142L807,28Z" fill="#2d812b" stroke="#2d812b" stroke-width="1.51"/><path d="M748,442L740,542L811,550Z" fill="#165a15" stroke="#165a15" stroke-width="1.51"/><path d="M748,442L811,550L825,450Z" fill="#175b15" stroke="#175b15" stroke-width="1.51"/><path d="M749,406L748,442L825,450Z" fill="#1a6018" stroke="#1a6018" stroke-width="1.51"/><path d="M807,28L769,142L826,122Z" fill="#2b7d28" stroke="#2b7d28" stroke-width="1.51"/><path d="M729,174L773,254L829,170Z" fill="#267524" stroke="#267524" stroke-width="1.51"/><path d="M769,142L729,174L829,170Z" fill="#287826" stroke="#287826" stroke-width="1.51"/><path d="M826,122L769,142L829,170Z" fill="#277826" stroke="#277826" stroke-width="1.51"/><path d="M829,170L773,254L830,232Z" fill="#247122" stroke="#247122" stroke-width="1.51"/><path d="M749,406L825,450L832,387Z" fill="#1a6018" stroke="#1a6018" stroke-width="1.51"/><path d="M772,338L749,406L832,387Z" fill="#1d651a" stroke="#1d651a" stroke-width="1.51"/><path d="M765,-76L799,-19L822,-67Z" fill="#338b31" stroke="#338b31" stroke-width="1.51"/><path d="M799,-19L746,-6L807,28Z" fill="#30862e" stroke="#30862e" stroke-width="1.51"/><path d="M736,28L692,71L769,142Z" fill="#2e822c" stroke="#2e822c" stroke-width="1.51"/><path d="M746,-6L736,28L807,28Z" fill="#30862e" stroke="#30862e" stroke-width="1.51"/><path d="M765,-76L746,-6L799,-19Z" fill="#338a30" stroke="#338a30" stroke-width="1.51"/><path d="M694,453L740,542L748,442Z" fill="#195f17" stroke="#195f17" stroke-width="1.51"/><path d="M692,71L673,101L769,142Z" fill="#2d812b" stroke="#2d812b" stroke-width="1.51"/><path d="M657,310L749,406L772,338Z" fill="#206a1e" stroke="#206a1e" stroke-width="1.51"/><path d="M683,246L657,310L772,338Z" fill="#237021" stroke="#237021" stroke-width="1.51"/><path d="M729,174L692,213L773,254Z" fill="#277625" stroke="#277625" stroke-width="1.51"/><path d="M683,246L772,338L773,254Z" fill="#237021" stroke="#237021" stroke-width="1.51"/><path d="M692,213L683,246L773,254Z" fill="#267524" stroke="#267524" stroke-width="1.51"/><path d="M673,101L729,174L769,142Z" fill="#2b7d29" stroke="#2b7d29" stroke-width="1.51"/><path d="M675,-19L746,-6L765,-76Z" fill="#348d32" stroke="#348d32" stroke-width="1.51"/><path d="M657,310L693,426L749,406Z" fill="#20691e" stroke="#20691e" stroke-width="1.51"/><path d="M659,-92L675,-19L765,-76Z" fill="#379234" stroke="#379234" stroke-width="1.51"/><path d="M694,453L655,551L740,542Z" fill="#185e16" stroke="#185e16" stroke-width="1.51"/><path d="M693,426L748,442L749,406Z" fill="#1c641a" stroke="#1c641a" stroke-width="1.51"/><path d="M693,426L694,453L748,442Z" fill="#1c631a" stroke="#1c631a" stroke-width="1.51"/><path d="M675,-19L736,28L746,-6Z" fill="#338a30" stroke="#338a30" stroke-width="1.51"/><path d="M675,-19L692,71L736,28Z" fill="#328930" stroke="#328930" stroke-width="1.51"/><path d="M673,101L692,213L729,174Z" fill="#2a7d28" stroke="#2a7d28" stroke-width="1.51"/><path d="M117,548L4,564L249,558Z" fill="#2a7c28" stroke="#2a7c28" stroke-width="1.51"/><path d="M457,-91L525,-81L588,-94Z" fill="#3e9f3c" stroke="#3e9f3c" stroke-width="1.51"/><path d="M590,491L619,546L655,551Z" fill="#1a6118" stroke="#1a6118" stroke-width="1.51"/><path d="M673,101L623,110L692,213Z" fill="#2d812b" stroke="#2d812b" stroke-width="1.51"/><path d="M623,110L598,193L692,213Z" fill="#2c802a" stroke="#2c802a" stroke-width="1.51"/><path d="M675,-19L608,28L692,71Z" fill="#338b31" stroke="#338b31" stroke-width="1.51"/><path d="M657,310L606,336L693,426Z" fill="#226e20" stroke="#226e20" stroke-width="1.51"/><path d="M606,336L597,417L693,426Z" fill="#216c1f" stroke="#216c1f" stroke-width="1.51"/><path d="M590,491L655,551L694,453Z" fill="#1b6219" stroke="#1b6219" stroke-width="1.51"/><path d="M693,426L597,417L694,453Z" fill="#1e671c" stroke="#1e671c" stroke-width="1.51"/><path d="M597,417L590,491L694,453Z" fill="#1e671c" stroke="#1e671c" stroke-width="1.51"/><path d="M598,240L683,246L692,213Z" fill="#287926" stroke="#287926" stroke-width="1.51"/><path d="M598,193L598,240L692,213Z" fill="#2a7c28" stroke="#2a7c28" stroke-width="1.51"/><path d="M608,28L673,101L692,71Z" fill="#31882f" stroke="#31882f" stroke-width="1.51"/><path d="M608,28L623,110L673,101Z" fill="#31882f" stroke="#31882f" stroke-width="1.51"/><path d="M598,240L657,310L683,246Z" fill="#277725" stroke="#277725" stroke-width="1.51"/><path d="M588,-94L590,-4L659,-92Z" fill="#3a9737" stroke="#3a9737" stroke-width="1.51"/><path d="M659,-92L590,-4L675,-19Z" fill="#379335" stroke="#379335" stroke-width="1.51"/><path d="M590,-4L608,28L675,-19Z" fill="#369034" stroke="#369034" stroke-width="1.51"/><path d="M598,240L606,336L657,310Z" fill="#267524" stroke="#267524" stroke-width="1.51"/><path d="M566,234L561,340L598,240Z" fill="#297a27" stroke="#297a27" stroke-width="1.51"/><path d="M598,240L561,340L606,336Z" fill="#277725" stroke="#277725" stroke-width="1.51"/><path d="M561,340L597,417L606,336Z" fill="#247122" stroke="#247122" stroke-width="1.51"/><path d="M536,130L554,162L623,110Z" fill="#31872e" stroke="#31872e" stroke-width="1.51"/><path d="M608,28L539,63L623,110Z" fill="#348c32" stroke="#348c32" stroke-width="1.51"/><path d="M539,63L536,130L623,110Z" fill="#328a30" stroke="#328a30" stroke-width="1.51"/><path d="M554,162L598,193L623,110Z" fill="#2e842c" stroke="#2e842c" stroke-width="1.51"/><path d="M560,420L590,491L597,417Z" fill="#206a1e" stroke="#206a1e" stroke-width="1.51"/><path d="M590,491L559,495L619,546Z" fill="#1d641a" stroke="#1d641a" stroke-width="1.51"/><path d="M559,495L523,561L619,546Z" fill="#1c641a" stroke="#1c641a" stroke-width="1.51"/><path d="M525,-81L532,-12L588,-94Z" fill="#3c9b3a" stroke="#3c9b3a" stroke-width="1.51"/><path d="M588,-94L532,-12L590,-4Z" fill="#3a9738" stroke="#3a9738" stroke-width="1.51"/><path d="M560,420L559,495L590,491Z" fill="#1f691d" stroke="#1f691d" stroke-width="1.51"/><path d="M561,340L560,420L597,417Z" fill="#236f21" stroke="#236f21" stroke-width="1.51"/><path d="M566,234L598,240L598,193Z" fill="#2b7e29" stroke="#2b7e29" stroke-width="1.51"/><path d="M590,-4L539,63L608,28Z" fill="#369034" stroke="#369034" stroke-width="1.51"/><path d="M532,-12L539,63L590,-4Z" fill="#379335" stroke="#379335" stroke-width="1.51"/><path d="M554,162L566,234L598,193Z" fill="#2d812b" stroke="#2d812b" stroke-width="1.51"/><path d="M457,304L561,340L566,234Z" fill="#2a7b28" stroke="#2a7b28" stroke-width="1.51"/><path d="M477,407L454,493L559,495Z" fill="#226e20" stroke="#226e20" stroke-width="1.51"/><path d="M477,407L559,495L560,420Z" fill="#226e20" stroke="#226e20" stroke-width="1.51"/><path d="M477,407L560,420L561,340Z" fill="#257222" stroke="#257222" stroke-width="1.51"/><path d="M554,162L471,182L566,234Z" fill="#2f842d" stroke="#2f842d" stroke-width="1.51"/><path d="M471,182L458,258L566,234Z" fill="#2e832c" stroke="#2e832c" stroke-width="1.51"/><path d="M458,258L457,304L566,234Z" fill="#2d802a" stroke="#2d802a" stroke-width="1.51"/><path d="M457,304L477,407L561,340Z" fill="#287826" stroke="#287826" stroke-width="1.51"/><path d="M454,493L523,561L559,495Z" fill="#1f691d" stroke="#1f691d" stroke-width="1.51"/><path d="M536,130L471,182L554,162Z" fill="#31882f" stroke="#31882f" stroke-width="1.51"/><path d="M454,493L459,561L523,561Z" fill="#1f691d" stroke="#1f691d" stroke-width="1.51"/><path d="M525,-81L457,-91L532,-12Z" fill="#3d9e3b" stroke="#3d9e3b" stroke-width="1.51"/><path d="M457,-91L446,3L532,-12Z" fill="#3d9d3b" stroke="#3d9d3b" stroke-width="1.51"/><path d="M446,3L450,55L532,-12Z" fill="#3a9838" stroke="#3a9838" stroke-width="1.51"/><path d="M532,-12L450,55L539,63Z" fill="#389436" stroke="#389436" stroke-width="1.51"/><path d="M448,124L536,130L539,63Z" fill="#348d32" stroke="#348d32" stroke-width="1.51"/><path d="M450,55L448,124L539,63Z" fill="#369234" stroke="#369234" stroke-width="1.51"/><path d="M448,124L471,182L536,130Z" fill="#338b31" stroke="#338b31" stroke-width="1.51"/><path d="M386,-15L446,3L457,-91Z" fill="#3fa03d" stroke="#3fa03d" stroke-width="1.51"/><path d="M396,338L421,401L457,304Z" fill="#2a7c28" stroke="#2a7c28" stroke-width="1.51"/><path d="M375,205L458,258L471,182Z" fill="#31882f" stroke="#31882f" stroke-width="1.51"/><path d="M457,304L421,401L477,407Z" fill="#287926" stroke="#287926" stroke-width="1.51"/><path d="M421,401L454,493L477,407Z" fill="#257323" stroke="#257323" stroke-width="1.51"/><path d="M421,401L391,495L454,493Z" fill="#247322" stroke="#247322" stroke-width="1.51"/><path d="M408,-102L386,-15L457,-91Z" fill="#41a43f" stroke="#41a43f" stroke-width="1.51"/><path d="M454,493L391,495L459,561Z" fill="#216d1f" stroke="#216d1f" stroke-width="1.51"/><path d="M448,124L375,205L471,182Z" fill="#348c31" stroke="#348c31" stroke-width="1.51"/><path d="M398,113L375,205L448,124Z" fill="#359033" stroke="#359033" stroke-width="1.51"/><path d="M398,113L448,124L450,55Z" fill="#389335" stroke="#389335" stroke-width="1.51"/><path d="M384,75L398,113L450,55Z" fill="#399637" stroke="#399637" stroke-width="1.51"/><path d="M404,282L457,304L458,258Z" fill="#2d812b" stroke="#2d812b" stroke-width="1.51"/><path d="M375,205L404,282L458,258Z" fill="#30862e" stroke="#30862e" stroke-width="1.51"/><path d="M391,495L373,561L459,561Z" fill="#216c1f" stroke="#216c1f" stroke-width="1.51"/><path d="M404,282L396,338L457,304Z" fill="#2d802a" stroke="#2d802a" stroke-width="1.51"/><path d="M386,-15L384,75L446,3Z" fill="#3c9c3a" stroke="#3c9c3a" stroke-width="1.51"/><path d="M446,3L384,75L450,55Z" fill="#3a9838" stroke="#3a9838" stroke-width="1.51"/><path d="M43,-109L170,-71L315,-114Z" fill="#4bb649" stroke="#4bb649" stroke-width="1.51"/><path d="M320,469L391,495L421,401Z" fill="#267624" stroke="#267624" stroke-width="1.51"/><path d="M321,396L320,469L421,401Z" fill="#297a27" stroke="#297a27" stroke-width="1.51"/><path d="M396,338L321,396L421,401Z" fill="#2a7d28" stroke="#2a7d28" stroke-width="1.51"/><path d="M341,65L384,75L386,-15Z" fill="#3d9c3a" stroke="#3d9c3a" stroke-width="1.51"/><path d="M332,-2L341,65L386,-15Z" fill="#3ea03c" stroke="#3ea03c" stroke-width="1.51"/><path d="M317,129L375,205L398,113Z" fill="#379235" stroke="#379235" stroke-width="1.51"/><path d="M375,205L307,233L404,282Z" fill="#338a30" stroke="#338a30" stroke-width="1.51"/><path d="M315,-114L386,-15L408,-102Z" fill="#43a841" stroke="#43a841" stroke-width="1.51"/><path d="M315,-114L332,-2L386,-15Z" fill="#42a640" stroke="#42a640" stroke-width="1.51"/><path d="M336,513L373,561L391,495Z" fill="#237021" stroke="#237021" stroke-width="1.51"/><path d="M307,233L284,313L404,282Z" fill="#31892f" stroke="#31892f" stroke-width="1.51"/><path d="M305,344L396,338L404,282Z" fill="#2e822c" stroke="#2e822c" stroke-width="1.51"/><path d="M284,313L305,344L404,282Z" fill="#30852e" stroke="#30852e" stroke-width="1.51"/><path d="M316,216L307,233L375,205Z" fill="#358e32" stroke="#358e32" stroke-width="1.51"/><path d="M305,344L321,396L396,338Z" fill="#2d812b" stroke="#2d812b" stroke-width="1.51"/><path d="M384,75L317,129L398,113Z" fill="#399637" stroke="#399637" stroke-width="1.51"/><path d="M341,65L317,129L384,75Z" fill="#3b9938" stroke="#3b9938" stroke-width="1.51"/><path d="M315,-114L281,-76L332,-2Z" fill="#44aa42" stroke="#44aa42" stroke-width="1.51"/><path d="M320,469L336,513L391,495Z" fill="#257423" stroke="#257423" stroke-width="1.51"/><path d="M317,129L316,216L375,205Z" fill="#369134" stroke="#369134" stroke-width="1.51"/><path d="M336,513L249,558L373,561Z" fill="#247122" stroke="#247122" stroke-width="1.51"/><path d="M273,269L284,313L307,233Z" fill="#338c31" stroke="#338c31" stroke-width="1.51"/><path d="M278,212L316,216L317,129Z" fill="#389335" stroke="#389335" stroke-width="1.51"/><path d="M269,426L320,469L321,396Z" fill="#2a7d29" stroke="#2a7d29" stroke-width="1.51"/><path d="M255,-1L246,48L332,-2Z" fill="#41a43f" stroke="#41a43f" stroke-width="1.51"/><path d="M332,-2L246,48L341,65Z" fill="#3fa13d" stroke="#3fa13d" stroke-width="1.51"/><path d="M246,48L317,129L341,65Z" fill="#3d9c3b" stroke="#3d9c3b" stroke-width="1.51"/><path d="M281,-76L255,-1L332,-2Z" fill="#43a841" stroke="#43a841" stroke-width="1.51"/><path d="M320,469L268,473L336,513Z" fill="#277725" stroke="#277725" stroke-width="1.51"/><path d="M268,473L249,558L336,513Z" fill="#277625" stroke="#277625" stroke-width="1.51"/><path d="M247,141L278,212L317,129Z" fill="#399637" stroke="#399637" stroke-width="1.51"/><path d="M170,-71L281,-76L315,-114Z" fill="#48b046" stroke="#48b046" stroke-width="1.51"/><path d="M246,48L247,141L317,129Z" fill="#3d9c3a" stroke="#3d9c3a" stroke-width="1.51"/><path d="M269,426L268,473L320,469Z" fill="#2a7b28" stroke="#2a7b28" stroke-width="1.51"/><path d="M305,344L269,426L321,396Z" fill="#2d812b" stroke="#2d812b" stroke-width="1.51"/><path d="M278,212L307,233L316,216Z" fill="#359033" stroke="#359033" stroke-width="1.51"/><path d="M208,351L269,426L305,344Z" fill="#2f842d" stroke="#2f842d" stroke-width="1.51"/><path d="M278,212L273,269L307,233Z" fill="#358f33" stroke="#358f33" stroke-width="1.51"/><path d="M284,313L208,351L305,344Z" fill="#30872e" stroke="#30872e" stroke-width="1.51"/><path d="M208,351L206,426L269,426Z" fill="#2e842d" stroke="#2e842d" stroke-width="1.51"/><path d="M247,141L212,163L278,212Z" fill="#3a9738" stroke="#3a9738" stroke-width="1.51"/><path d="M180,242L273,269L278,212Z" fill="#369134" stroke="#369134" stroke-width="1.51"/><path d="M186,-47L255,-1L281,-76Z" fill="#46ac44" stroke="#46ac44" stroke-width="1.51"/><path d="M273,269L208,351L284,313Z" fill="#328a30" stroke="#328a30" stroke-width="1.51"/><path d="M170,-71L186,-47L281,-76Z" fill="#48b046" stroke="#48b046" stroke-width="1.51"/><path d="M178,469L249,558L268,473Z" fill="#297b28" stroke="#297b28" stroke-width="1.51"/><path d="M212,163L180,242L278,212Z" fill="#399637" stroke="#399637" stroke-width="1.51"/><path d="M178,469L163,519L249,558Z" fill="#297b28" stroke="#297b28" stroke-width="1.51"/><path d="M206,426L268,473L269,426Z" fill="#2c7f2a" stroke="#2c7f2a" stroke-width="1.51"/><path d="M180,242L208,351L273,269Z" fill="#358f32" stroke="#358f32" stroke-width="1.51"/><path d="M246,48L169,127L247,141Z" fill="#3fa03c" stroke="#3fa03c" stroke-width="1.51"/><path d="M206,426L178,469L268,473Z" fill="#2c7f2a" stroke="#2c7f2a" stroke-width="1.51"/><path d="M163,519L117,548L249,558Z" fill="#297a27" stroke="#297a27" stroke-width="1.51"/><path d="M180,22L246,48L255,-1Z" fill="#43a740" stroke="#43a740" stroke-width="1.51"/><path d="M186,-47L180,22L255,-1Z" fill="#45ab43" stroke="#45ab43" stroke-width="1.51"/><path d="M43,-109L93,-73L170,-71Z" fill="#4db94b" stroke="#4db94b" stroke-width="1.51"/><path d="M180,22L169,127L246,48Z" fill="#41a43f" stroke="#41a43f" stroke-width="1.51"/><path d="M169,127L212,163L247,141Z" fill="#3d9c3a" stroke="#3d9c3a" stroke-width="1.51"/><path d="M107,279L124,334L180,242Z" fill="#389436" stroke="#389436" stroke-width="1.51"/><path d="M169,127L92,176L180,242Z" fill="#3d9d3b" stroke="#3d9d3b" stroke-width="1.51"/><path d="M180,242L124,334L208,351Z" fill="#359033" stroke="#359033" stroke-width="1.51"/><path d="M136,381L206,426L208,351Z" fill="#31872f" stroke="#31872f" stroke-width="1.51"/><path d="M169,127L180,242L212,163Z" fill="#3c9b3a" stroke="#3c9b3a" stroke-width="1.51"/><path d="M124,334L136,381L208,351Z" fill="#338d31" stroke="#338d31" stroke-width="1.51"/><path d="M125,129L92,176L169,127Z" fill="#3fa13d" stroke="#3fa13d" stroke-width="1.51"/><path d="M136,381L178,469L206,426Z" fill="#2f842d" stroke="#2f842d" stroke-width="1.51"/><path d="M93,41L125,129L169,127Z" fill="#42a640" stroke="#42a640" stroke-width="1.51"/><path d="M136,381L108,468L178,469Z" fill="#2f862e" stroke="#2f862e" stroke-width="1.51"/><path d="M93,41L169,127L180,22Z" fill="#43a841" stroke="#43a841" stroke-width="1.51"/><path d="M124,-37L180,22L186,-47Z" fill="#47af45" stroke="#47af45" stroke-width="1.51"/><path d="M170,-71L124,-37L186,-47Z" fill="#49b247" stroke="#49b247" stroke-width="1.51"/><path d="M108,468L163,519L178,469Z" fill="#2d802b" stroke="#2d802b" stroke-width="1.51"/><path d="M124,-37L93,41L180,22Z" fill="#47ae45" stroke="#47ae45" stroke-width="1.51"/><path d="M92,176L107,279L180,242Z" fill="#3b9939" stroke="#3b9939" stroke-width="1.51"/><path d="M93,-73L124,-37L170,-71Z" fill="#4bb549" stroke="#4bb549" stroke-width="1.51"/><path d="M108,468L117,548L163,519Z" fill="#2c802a" stroke="#2c802a" stroke-width="1.51"/><path d="M45,194L63,278L92,176Z" fill="#3e9f3c" stroke="#3e9f3c" stroke-width="1.51"/><path d="M92,176L63,278L107,279Z" fill="#3c9b3a" stroke="#3c9b3a" stroke-width="1.51"/><path d="M55,343L66,399L124,334Z" fill="#369034" stroke="#369034" stroke-width="1.51"/><path d="M93,41L49,97L125,129Z" fill="#44a942" stroke="#44a942" stroke-width="1.51"/><path d="M124,334L66,399L136,381Z" fill="#348e33" stroke="#348e33" stroke-width="1.51"/><path d="M66,399L108,468L136,381Z" fill="#328a30" stroke="#328a30" stroke-width="1.51"/><path d="M63,278L55,343L107,279Z" fill="#399737" stroke="#399737" stroke-width="1.51"/><path d="M108,468L35,533L117,548Z" fill="#2d822b" stroke="#2d822b" stroke-width="1.51"/><path d="M35,533L4,564L117,548Z" fill="#2d812b" stroke="#2d812b" stroke-width="1.51"/><path d="M107,279L55,343L124,334Z" fill="#389336" stroke="#389336" stroke-width="1.51"/><path d="M24,-29L93,41L124,-37Z" fill="#4ab348" stroke="#4ab348" stroke-width="1.51"/><path d="M93,-73L24,-29L124,-37Z" fill="#4cb74a" stroke="#4cb74a" stroke-width="1.51"/><path d="M49,97L92,176L125,129Z" fill="#42a53f" stroke="#42a53f" stroke-width="1.51"/><path d="M50,58L49,97L93,41Z" fill="#46ad44" stroke="#46ad44" stroke-width="1.51"/><path d="M26,496L35,533L108,468Z" fill="#30852d" stroke="#30852d" stroke-width="1.51"/><path d="M66,399L26,496L108,468Z" fill="#32882f" stroke="#32882f" stroke-width="1.51"/><path d="M49,97L45,194L92,176Z" fill="#41a53f" stroke="#41a53f" stroke-width="1.51"/><path d="M43,-109L24,-29L93,-73Z" fill="#4ebb4c" stroke="#4ebb4c" stroke-width="1.51"/><path d="M24,-29L50,58L93,41Z" fill="#49b146" stroke="#49b146" stroke-width="1.51"/><path d="M-8,99L45,194L49,97Z" fill="#44a942" stroke="#44a942" stroke-width="1.51"/><path d="M24,-29L-24,43L50,58Z" fill="#4ab448" stroke="#4ab448" stroke-width="1.51"/><path d="M6,267L55,343L63,278Z" fill="#3b9839" stroke="#3b9839" stroke-width="1.51"/><path d="M45,194L6,267L63,278Z" fill="#3e9e3b" stroke="#3e9e3b" stroke-width="1.51"/><path d="M55,343L-8,418L66,399Z" fill="#369134" stroke="#369134" stroke-width="1.51"/><path d="M-8,418L26,496L66,399Z" fill="#348c32" stroke="#348c32" stroke-width="1.51"/><path d="M-8,99L-42,174L45,194Z" fill="#44a942" stroke="#44a942" stroke-width="1.51"/><path d="M-31,-42L24,-29L43,-109Z" fill="#4fbc4d" stroke="#4fbc4d" stroke-width="1.51"/><path d="M-8,99L49,97L50,58Z" fill="#46ad44" stroke="#46ad44" stroke-width="1.51"/><path d="M6,267L-45,326L55,343Z" fill="#3b9939" stroke="#3b9939" stroke-width="1.51"/><path d="M-45,326L-8,418L55,343Z" fill="#399537" stroke="#399537" stroke-width="1.51"/><path d="M-24,43L-8,99L50,58Z" fill="#48b146" stroke="#48b146" stroke-width="1.51"/><path d="M-47,-117L-31,-42L43,-109Z" fill="#52c14f" stroke="#52c14f" stroke-width="1.51"/><path d="M-42,174L6,267L45,194Z" fill="#40a33e" stroke="#40a33e" stroke-width="1.51"/><path d="M-8,418L-44,480L26,496Z" fill="#348d31" stroke="#348d31" stroke-width="1.51"/><path d="M26,496L4,564L35,533Z" fill="#2f842d" stroke="#2f842d" stroke-width="1.51"/><path d="M-31,-42L-24,43L24,-29Z" fill="#4db94b" stroke="#4db94b" stroke-width="1.51"/><path d="M-44,480L4,564L26,496Z" fill="#31872f" stroke="#31872f" stroke-width="1.51"/><path d="M-31,-42L-65,7L-24,43Z" fill="#4eba4c" stroke="#4eba4c" stroke-width="1.51"/><path d="M-45,326L-82,421L-8,418Z" fill="#399637" stroke="#399637" stroke-width="1.51"/><path d="M-44,480L-113,552L4,564Z" fill="#31882f" stroke="#31882f" stroke-width="1.51"/><path d="M-42,174L-114,259L6,267Z" fill="#41a53f" stroke="#41a53f" stroke-width="1.51"/><path d="M-114,259L-66,303L6,267Z" fill="#3fa13d" stroke="#3fa13d" stroke-width="1.51"/><path d="M-66,303L-45,326L6,267Z" fill="#3d9d3b" stroke="#3d9d3b" stroke-width="1.51"/><path d="M-24,43L-73,41L-8,99Z" fill="#4ab448" stroke="#4ab448" stroke-width="1.51"/><path d="M-73,41L-111,114L-8,99Z" fill="#4ab348" stroke="#4ab348" stroke-width="1.51"/><path d="M-111,114L-80,162L-8,99Z" fill="#48b046" stroke="#48b046" stroke-width="1.51"/><path d="M-80,162L-42,174L-8,99Z" fill="#46ac44" stroke="#46ac44" stroke-width="1.51"/><path d="M-82,421L-44,480L-8,418Z" fill="#369134" stroke="#369134" stroke-width="1.51"/><path d="M-80,162L-114,259L-42,174Z" fill="#45aa43" stroke="#45aa43" stroke-width="1.51"/><path d="M-47,-117L-99,-69L-31,-42Z" fill="#53c251" stroke="#53c251" stroke-width="1.51"/><path d="M-65,7L-73,41L-24,43Z" fill="#4db84b" stroke="#4db84b" stroke-width="1.51"/><path d="M-112,477L-113,552L-44,480Z" fill="#348e32" stroke="#348e32" stroke-width="1.51"/><path d="M-99,-69L-65,7L-31,-42Z" fill="#51bf4e" stroke="#51bf4e" stroke-width="1.51"/><path d="M-66,303L-82,421L-45,326Z" fill="#3c9b39" stroke="#3c9b39" stroke-width="1.51"/><path d="M-82,421L-112,477L-44,480Z" fill="#369135" stroke="#369135" stroke-width="1.51"/><path d="M-114,259L-82,421L-66,303Z" fill="#3e9e3b" stroke="#3e9e3b" stroke-width="1.51"/><path d="M-99,-69L-73,41L-65,7Z" fill="#50bd4e" stroke="#50bd4e" stroke-width="1.51"/><path d="M-99,-69L-111,114L-73,41Z" fill="#4ebb4c" stroke="#4ebb4c" stroke-width="1.51"/><path d="M-114,259L-112,477L-82,421Z" fill="#3b9939" stroke="#3b9939" stroke-width="1.51"/><path d="M-111,114L-114,259L-80,162Z" fill="#46ad44" stroke="#46ad44" stroke-width="1.51"/><path d="M-114,259L-113,552L-112,477Z" fill="#399637" stroke="#399637" stroke-width="1.51"/></svg>