<svg xmlns="http://www.w3.org/2000/svg" width="800" height="450"><path d="M-47,-117L43,-109L315,-114Z" fill="#ba4081" stroke="#ba4081" stroke-width="1.51"/><path d="M249,558L4,564L373,561Z" fill="#7b214c" stroke="#7b214c" stroke-width="1.51"/><path d="M315,-114L408,-102L588,-94Z" fill="#a63670" stroke="#a63670" stroke-width="1.51"/><path d="M740,542L655,551L811,550Z" fill="#601435" stroke="#601435" stroke-width="1.51"/><path d="M826,122L829,170L872,93Z" fill="#7c214d" stroke="#7c214d" stroke-width="1.51"/><path d="M588,-94L659,-92L874,-101Z" fill="#962e63" stroke="#962e63" stroke-width="1.51"/><path d="M315,-114L588,-94L874,-101Z" fill="#9d3269" stroke="#9d3269" stroke-width="1.51"/><path d="M659,-92L765,-76L874,-101Z" fill="#932c60" stroke="#932c60" stroke-width="1.51"/><path d="M872,93L829,170L880,216Z" fill="#78204a" stroke="#78204a" stroke-width="1.51"/><path d="M847,343L884,389L888,309Z" fill="#68183d" stroke="#68183d" stroke-width="1.51"/><path d="M880,216L869,276L888,309Z" fill="#6f1b42" stroke="#6f1b42" stroke-width="1.51"/><path d="M872,93L880,216L894,77Z" fill="#7a204b" stroke="#7a204b" stroke-width="1.51"/><path d="M880,216L888,309L894,77Z" fill="#741e46" stroke="#741e46" stroke-width="1.51"/><path d="M799,-19L807,28L896,-43Z" fill="#882757" stroke="#882757" stroke-width="1.51"/><path d="M807,28L894,77L896,-43Z" fill="#832553" stroke="#832553" stroke-width="1.51"/><path d="M811,550L655,551L896,566Z" fill="#5c1233" stroke="#5c1233" stroke-width="1.51"/><path d="M655,551L523,561L896,566Z" fill="#611437" stroke="#611437" stroke-width="1.51"/><path d="M896,-43L894,77L905,477Z" fill="#761e47" stroke="#761e47" stroke-width="1.51"/><path d="M884,389L825,450L905,477Z" fill="#611537" stroke="#611537" stroke-width="1.51"/><path d="M811,550L896,566L905,477Z" fill="#5a1131" stroke="#5a1131" stroke-width="1.51"/><path d="M825,450L811,550L905,477Z" fill="#5e1335" stroke="#5e1335" stroke-width="1.51"/><path d="M888,309L884,389L905,477Z" fill="#641639" stroke="#641639" stroke-width="1.51"/><path d="M894,77L888,309L905,477Z" fill="#6c1a40" stroke="#6c1a40" stroke-width="1.51"/><path d="M832,387L825,450L884,389Z" fill="#65163a" stroke="#65163a" stroke-width="1.51"/><path d="M807,28L872,93L894,77Z" fill="#802450" stroke="#802450" stroke-width="1.51"/><path d="M822,-67L799,-19L896,-43Z" fill="#8a2859" stroke="#8a2859" stroke-width="1.51"/><path d="M874,-101L822,-67L896,-43Z" fill="#8b295a" stroke="#8b295a" stroke-width="1.51"/><path d="M830,232L869,276L880,216Z" fill="#721c44" stroke="#721c44" stroke-width="1.51"/><path d="M765,-76L822,-67L874,-101Z" fill="#8f2a5c" stroke="#8f2a5c" stroke-width="1.51"/><path d="M847,343L832,387L884,389Z" fill="#67183c" stroke="#67183c" stroke-width="1.51"/><path d="M869,276L847,343L888,309Z" fill="#6c1a40" stroke="#6c1a40" stroke-width="1.51"/><path d="M408,-102L457,-91L588,-94Z" fill="#a3346e" stroke="#a3346e" stroke-width="1.51"/><path d="M829,170L830,232L880,216Z" fill="#761e47" stroke="#761e47" stroke-width="1.51"/><path d="M807,28L826,122L872,93Z" fill="#802451" stroke="#802451" stroke-width="1.51"/><path d="M773,254L847,343L869,276Z" fill="#6f1b42" stroke="#6f1b42" stroke-width="1.51"/><path d="M773,254L772,338L847,343Z" fill="#6f1c43" stroke="#6f1c43" stroke-width="1.51"/><path d="M830,232L773,254L869,276Z" fill="#731d46" stroke="#731d46" stroke-width="1.51"/><path d="M772,338L832,387L847,343Z" fill="#6b193f" stroke="#6b193f" stroke-width="1.51"/><path d="M619,546L523,561L655,551Z" fill="#67173b" stroke="#67173b" stroke-width="1.51"/><path d="M736,28L769,142L807,28Z" fill="#852654" stroke="#852654" stroke-width="1.51"/><path d="M748,442L740,542L811,550Z" fill="#611437" stroke="#611437" stroke-width="1.51"/><path d="M748,442L811,550L825,450Z" fill="#621537" stroke="#621537" stroke-width="1.51"/><path d="M749,406L748,442L825,450Z" fill="#67173b" stroke="#67173b" stroke-width="1.51"/><path d="M807,28L769,142L826,122Z" fill="#812451" stroke="#812451" stroke-width="1.51"/><path d="M729,174L773,254L829,170Z" fill="#7a214b" stroke="#7a214b" stroke-width="1.51"/><path d="M769,142L729,174L829,170Z" fill="#7d224e" stroke="#7d224e" stroke-width="1.51"/><path d="M826,122L769,142L829,170Z" fill="#7c224d" stroke="#7c224d" stroke-width="1.51"/><path d="M829,170L773,254L830,232Z" fill="#761f49" stroke="#761f49" stroke-width="1.51"/><path d="M749,406L825,450L832,387Z" fill="#67173b" stroke="#67173b" stroke-width="1.51"/><path d="M772,338L749,406L832,387Z" fill="#6b193f" stroke="#6b193f" stroke-width="1.51"/><path d="M765,-76L799,-19L822,-67Z" fill="#8e2a5c" stroke="#8e2a5c" stroke-width="1.51"/><path d="M799,-19L746,-6L807,28Z" fill="#8a2858" stroke="#8a2858" stroke-width="1.51"/><path d="M736,28L692,71L769,142Z" fill="#862655" stroke="#862655" stroke-width="1.51"/><path d="M746,-6L736,28L807,28Z" fill="#8a2859" stroke="#8a2859" stroke-width="1.51"/><path d="M765,-76L746,-6L799,-19Z" fill="#8d2a5b" stroke="#8d2a5b" stroke-width="1.51"/><path d="M694,453L740,542L748,442Z" fill="#66163a" stroke="#66163a" stroke-width="1.51"/><path d="M692,71L673,101L769,142Z" fill="#852654" stroke="#852654" stroke-width="1.51"/><path d="M657,310L749,406L772,338Z" fill="#701b43" stroke="#701b43" stroke-width="1.51"/><path d="M683,246L657,310L772,338Z" fill="#751e47" stroke="#751e47" stroke-width="1.51"/><path d="M729,174L692,213L773,254Z" fill="#7b214c" stroke="#7b214c" stroke-width="1.51"/><path d="M683,246L772,338L773,254Z" fill="#751e47" stroke="#751e47" stroke-width="1.51"/><path d="M692,213L683,246L773,254Z" fill="#7a214b" stroke="#7a214b" stroke-width="1.51"/><path d="M673,101L729,174L769,142Z" fill="#822452" stroke="#822452" stroke-width="1.51"/><path d="M675,-19L746,-6L765,-76Z" fill="#902b5d" stroke="#902b5d" stroke-width="1.51"/><path d="M657,310L693,426L749,406Z" fill="#6f1b42" stroke="#6f1b42" stroke-width="1.51"/><path d="M659,-92L675,-19L765,-76Z" fill="#942e61" stroke="#942e61" stroke-width="1.51"/><path d="M694,453L655,551L740,542Z" fill="#64163a" stroke="#64163a" stroke-width="1.51"/><path d="M693,426L748,442L749,406Z" fill="#6a193e" stroke="#6a193e" stroke-width="1.51"/><path d="M693,426L694,453L748,442Z" fill="#69193d" stroke="#69193d" stroke-width="1.51"/><path d="M675,-19L736,28L746,-6Z" fill="#8e2a5c" stroke="#8e2a5c" stroke-width="1.51"/><path d="M675,-19L692,71L736,28Z" fill="#8c2a5a" stroke="#8c2a5a" stroke-width="1.51"/><path d="M673,101L692,213L729,174Z" fill="#812451" stroke="#812451" stroke-width="1.51"/><path d="M117,548L4,564L249,558Z" fill="#802450" stroke="#802450" stroke-width="1.51"/><path d="M457,-91L525,-81L588,-94Z" fill="#a0336b" stroke="#a0336b" stroke-width="1.51"/><path d="M590,491L619,546L655,551Z" fill="#67183c" stroke="#67183c" stroke-width="1.51"/><path d="M673,101L623,110L692,213Z" fill="#852655" stroke="#852655" stroke-width="1.51"/><path d="M623,110L598,193L692,213Z" fill="#832553" stroke="#832553" stroke-width="1.51"/><path d="M675,-19L608,28L692,71Z" fill="#8e2b5c" stroke="#8e2b5c" stroke-width="1.51"/><path d="M657,310L606,336L693,426Z" fill="#741d46" stroke="#741d46" stroke-width="1.51"/><path d="M606,336L597,417L693,426Z" fill="#721c44" stroke="#721c44" stroke-width="1.51"/><path d="M590,491L655,551L694,453Z" fill="#68183d" stroke="#68183d" stroke-width="1.51"/><path d="M693,426L597,417L694,453Z" fill="#6d1b40" stroke="#6d1b40" stroke-width="1.51"/><path d="M597,417L590,491L694,453Z" fill="#6d1a41" stroke="#6d1a41" stroke-width="1.51"/><path d="M598,240L683,246L692,213Z" fill="#7d224e" stroke="#7d224e" stroke-width="1.51"/><path d="M598,193L598,240L692,213Z" fill="#802351" stroke="#802351" stroke-width="1.51"/><path d="M608,28L673,101L692,71Z" fill="#8b2959" stroke="#8b2959" stroke-width="1.51"/><path d="M608,28L623,110L673,101Z" fill="#8c295a" stroke="#8c295a" stroke-width="1.51"/><path d="M598,240L657,310L683,246Z" fill="#7b214c" stroke="#7b214c" stroke-width="1.51"/><path d="M588,-94L590,-4L659,-92Z" fill="#993065" stroke="#993065" stroke-width="1.51"/><path d="M659,-92L590,-4L675,-19Z" fill="#952e62" stroke="#952e62" stroke-width="1.51"/><path d="M590,-4L608,28L675,-19Z" fill="#932d60" stroke="#932d60" stroke-width="1.51"/><path d="M598,240L606,336L657,310Z" fill="#7a214b" stroke="#7a214b" stroke-width="1.51"/><path d="M566,234L561,340L598,240Z" fill="#7f234f" stroke="#7f234f" stroke-width="1.51"/><path d="M598,240L561,340L606,336Z" fill="#7b214c" stroke="#7b214c" stroke-width="1.51"/><path d="M561,340L597,417L606,336Z" fill="#761e48" stroke="#761e48" stroke-width="1.51"/><path d="M536,130L554,162L623,110Z" fill="#8b2859" stroke="#8b2859" stroke-width="1.51"/><path d="M608,28L539,63L623,110Z" fill="#8f2b5d" stroke="#8f2b5d" stroke-width="1.51"/><path d="M539,63L536,130L623,110Z" fill="#8d2a5b" stroke="#8d2a5b" stroke-width="1.51"/><path d="M554,162L598,193L623,110Z" fill="#872757" stroke="#872757" stroke-width="1.51"/><path d="M560,420L590,491L597,417Z" fill="#701c43" stroke="#701c43" stroke-width="1.51"/><path d="M590,491L559,495L619,546Z" fill="#6b193e" stroke="#6b193e" stroke-width="1.51"/><path d="M559,495L523,561L619,546Z" fill="#6a193e" stroke="#6a193e" stroke-width="1.51"/><path d="M525,-81L532,-12L588,-94Z" fill="#9c3268" stroke="#9c3268" stroke-width="1.51"/><path d="M588,-94L532,-12L590,-4Z" fill="#992f65" stroke="#992f65" stroke-width="1.51"/><path d="M560,420L559,495L590,491Z" fill="#6f1b42" stroke="#6f1b42" stroke-width="1.51"/><path d="M561,340L560,420L597,417Z" fill="#751e47" stroke="#751e47" stroke-width="1.51"/><path d="M566,234L598,240L598,193Z" fill="#822552" stroke="#822552" stroke-width="1.51"/><path d="M590,-4L539,63L608,28Z" fill="#932d60" stroke="#932d60" stroke-width="1.51"/><path d="M532,-12L539,63L590,-4Z" fill="#952e62" stroke="#952e62" stroke-width="1.51"/><path d="M554,162L566,234L598,193Z" fill="#852655" stroke="#852655" stroke-width="1.51"/><path d="M457,304L561,340L566,234Z" fill="#7f2350" stroke="#7f2350" stroke-width="1.51"/><path d="M477,407L454,493L559,495Z" fill="#731d46" stroke="#731d46" stroke-width="1.51"/><path d="M477,407L559,495L560,420Z" fill="#731d45" stroke="#731d45" stroke-width="1.51"/><path d="M477,407L560,420L561,340Z" fill="#771f49" stroke="#771f49" stroke-width="1.51"/><path d="M554,162L471,182L566,234Z" fill="#882757" stroke="#882757" stroke-width="1.51"/><path d="M471,182L458,258L566,234Z" fill="#872756" stroke="#872756" stroke-width="1.51"/><path d="M458,258L457,304L566,234Z" fill="#842653" stroke="#842653" stroke-width="1.51"/><path d="M457,304L477,407L561,340Z" fill="#7d214d" stroke="#7d214d" stroke-width="1.51"/><path d="M454,493L523,561L559,495Z" fill="#6e1b41" stroke="#6e1b41" stroke-width="1.51"/><path d="M536,130L471,182L554,162Z" fill="#8b2959" stroke="#8b2959" stroke-width="1.51"/><path d="M454,493L459,561L523,561Z" fill="#6f1b42" stroke="#6f1b42" stroke-width="1.51"/><path d="M525,-81L457,-91L532,-12Z" fill="#9f326a" stroke="#9f326a" stroke-width="1.51"/><path d="M457,-91L446,3L532,-12Z" fill="#9e3269" stroke="#9e3269" stroke-width="1.51"/><path d="M446,3L450,55L532,-12Z" fill="#9a3066" stroke="#9a3066" stroke-width="1.51"/><path d="M532,-12L450,55L539,63Z" fill="#972e63" stroke="#972e63" stroke-width="1.51"/><path d="M448,124L536,130L539,63Z" fill="#902b5e" stroke="#902b5e" stroke-width="1.51"/><path d="M450,55L448,124L539,63Z" fill="#942d61" stroke="#942d61" stroke-width="1.51"/><path d="M448,124L471,182L536,130Z" fill="#8e2a5c" stroke="#8e2a5c" stroke-width="1.51"/><path d="M386,-15L446,3L457,-91Z" fill="#a1336c" stroke="#a1336c" stroke-width="1.51"/><path d="M396,338L421,401L457,304Z" fill="#812451" stroke="#812451" stroke-width="1.51"/><path d="M375,205L458,258L471,182Z" fill="#8b2959" stroke="#8b2959" stroke-width="1.51"/><path d="M457,304L421,401L477,407Z" fill="#7d224e" stroke="#7d224e" stroke-width="1.51"/><path d="M421,401L454,493L477,407Z" fill="#78204a" stroke="#78204a" stroke-width="1.51"/><path d="M421,401L391,495L454,493Z" fill="#781f49" stroke="#781f49" stroke-width="1.51"/><path d="M408,-102L386,-15L457,-91Z" fill="#a5356f" stroke="#a5356f" stroke-width="1.51"/><path d="M454,493L391,495L459,561Z" fill="#731d45" stroke="#731d45" stroke-width="1.51"/><path d="M448,124L375,205L471,182Z" fill="#8f2b5d" stroke="#8f2b5d" stroke-width="1.51"/><path d="M398,113L375,205L448,124Z" fill="#932c60" stroke="#932c60" stroke-width="1.51"/><path d="M398,113L448,124L450,55Z" fill="#952e62" stroke="#952e62" stroke-width="1.51"/><path d="M384,75L398,113L450,55Z" fill="#982f64" stroke="#982f64" stroke-width="1.51"/><path d="M404,282L457,304L458,258Z" fill="#852655" stroke="#852655" stroke-width="1.51"/><path d="M375,205L404,282L458,258Z" fill="#8a2858" stroke="#8a2858" stroke-width="1.51"/><path d="M391,495L373,561L459,561Z" fill="#731d45" stroke="#731d45" stroke-width="1.51"/><path d="M404,282L396,338L457,304Z" fill="#842654" stroke="#842654" stroke-width="1.51"/><path d="M386,-15L384,75L446,3Z" fill="#9d3169" stroke="#9d3169" stroke-width="1.51"/><path d="M446,3L384,75L450,55Z" fill="#9a3066" stroke="#9a3066" stroke-width="1.51"/><path d="M43,-109L170,-71L315,-114Z" fill="#b53d7d" stroke="#b53d7d" stroke-width="1.51"/><path d="M320,469L391,495L421,401Z" fill="#7b214c" stroke="#7b214c" stroke-width="1.51"/><path d="M321,396L320,469L421,401Z" fill="#7f234f" stroke="#7f234f" stroke-width="1.51"/><path d="M396,338L321,396L421,401Z" fill="#812451" stroke="#812451" stroke-width="1.51"/><path d="M341,65L384,75L386,-15Z" fill="#9e3269" stroke="#9e3269" stroke-width="1.51"/><path d="M332,-2L341,65L386,-15Z" fill="#a1336c" stroke="#a1336c" stroke-width="1.51"/><path d="M317,129L375,205L398,113Z" fill="#952e61" stroke="#952e61" stroke-width="1.51"/><path d="M375,205L307,233L404,282Z" fill="#8d2a5b" stroke="#8d2a5b" stroke-width="1.51"/><path d="M315,-114L386,-15L408,-102Z" fill="#a83772" stroke="#a83772" stroke-width="1.51"/><path d="M315,-114L332,-2L386,-15Z" fill="#a73671" stroke="#a73671" stroke-width="1.51"/><path d="M336,513L373,561L391,495Z" fill="#761e48" stroke="#761e48" stroke-width="1.51"/><path d="M307,233L284,313L404,282Z" fill="#8c295a" stroke="#8c295a" stroke-width="1.51"/><path d="M305,344L396,338L404,282Z" fill="#862655" stroke="#862655" stroke-width="1.51"/><path d="M284,313L305,344L404,282Z" fill="#892757" stroke="#892757" stroke-width="1.51"/><path d="M316,216L307,233L375,205Z" fill="#912b5e" stroke="#912b5e" stroke-width="1.51"/><path d="M305,344L321,396L396,338Z" fill="#842654" stroke="#842654" stroke-width="1.51"/><path d="M384,75L317,129L398,113Z" fill="#982f65" stroke="#982f65" stroke-width="1.51"/><path d="M341,65L317,129L384,75Z" fill="#9a3067" stroke="#9a3067" stroke-width="1.51"/><path d="M315,-114L281,-76L332,-2Z" fill="#aa3874" stroke="#aa3874" stroke-width="1.51"/><path d="M320,469L336,513L391,495Z" fill="#79204b" stroke="#79204b" stroke-width="1.51"/><path d="M317,129L316,216L375,205Z" fill="#942d61" stroke="#942d61" stroke-width="1.51"/><path d="M336,513L249,558L373,561Z" fill="#761f48" stroke="#761f48" stroke-width="1.51"/><path d="M273,269L284,313L307,233Z" fill="#8f2b5c" stroke="#8f2b5c" stroke-width="1.51"/><path d="M278,212L316,216L317,129Z" fill="#952e62" stroke="#952e62" stroke-width="1.51"/><path d="M269,426L320,469L321,396Z" fill="#812451" stroke="#812451" stroke-width="1.51"/><path d="M255,-1L246,48L332,-2Z" fill="#a5356f" stroke="#a5356f" stroke-width="1.51"/><path d="M332,-2L246,48L341,65Z" fill="#a2346d" stroke="#a2346d" stroke-width="1.51"/><path d="M246,48L317,129L341,65Z" fill="#9e3269" stroke="#9e3269" stroke-width="1.51"/><path d="M281,-76L255,-1L332,-2Z" fill="#a83772" stroke="#a83772" stroke-width="1.51"/><path d="M320,469L268,473L336,513Z" fill="#7c224c" stroke="#7c224c" stroke-width="1.51"/><path d="M268,473L249,558L336,513Z" fill="#7a214c" stroke="#7a214c" stroke-width="1.51"/><path d="M247,141L278,212L317,129Z" fill="#982f65" stroke="#982f65" stroke-width="1.51"/><path d="M170,-71L281,-76L315,-114Z" fill="#af3a78" stroke="#af3a78" stroke-width="1.51"/><path d="M246,48L247,141L317,129Z" fill="#9e3269" stroke="#9e3269" stroke-width="1.51"/><path d="M269,426L268,473L320,469Z" fill="#802350" stroke="#802350" stroke-width="1.51"/><path d="M305,344L269,426L321,396Z" fill="#842554" stroke="#842554" stroke-width="1.51"/><path d="M278,212L307,233L316,216Z" fill="#922c5f" stroke="#922c5f" stroke-width="1.51"/><path d="M208,351L269,426L305,344Z" fill="#882757" stroke="#882757" stroke-width="1.51"/><path d="M278,212L273,269L307,233Z" fill="#912c5f" stroke="#912c5f" stroke-width="1.51"/><path d="M284,313L208,351L305,344Z" fill="#8b2959" stroke="#8b2959" stroke-width="1.51"/><path d="M208,351L206,426L269,426Z" fill="#872757" stroke="#872757" stroke-width="1.51"/><path d="M247,141L212,163L278,212Z" fill="#993065" stroke="#993065" stroke-width="1.51"/><path d="M180,242L273,269L278,212Z" fill="#942d61" stroke="#942d61" stroke-width="1.51"/><path d="M186,-47L255,-1L281,-76Z" fill="#ac3975" stroke="#ac3975" stroke-width="1.51"/><path d="M273,269L208,351L284,313Z" fill="#8d2a5b" stroke="#8d2a5b" stroke-width="1.51"/><path d="M170,-71L186,-47L281,-76Z" fill="#b03b79" stroke="#b03b79" stroke-width="1.51"/><path d="M178,469L249,558L268,473Z" fill="#7f2350" stroke="#7f2350" stroke-width="1.51"/><path d="M212,163L180,242L278,212Z" fill="#982f64" stroke="#982f64" stroke-width="1.51"/><path d="M178,469L163,519L249,558Z" fill="#7f2450" stroke="#7f2450" stroke-width="1.51"/><path d="M206,426L268,473L269,426Z" fill="#832552" stroke="#832552" stroke-width="1.51"/><path d="M180,242L208,351L273,269Z" fill="#912c5f" stroke="#912c5f" stroke-width="1.51"/><path d="M246,48L169,127L247,141Z" fill="#a1336c" stroke="#a1336c" stroke-width="1.51"/><path d="M206,426L178,469L268,473Z" fill="#832553" stroke="#832553" stroke-width="1.51"/><path d="M163,519L117,548L249,558Z" fill="#7f234f" stroke="#7f234f" stroke-width="1.51"/><path d="M180,22L246,48L255,-1Z" fill="#a73671" stroke="#a73671" stroke-width="1.51"/><path d="M186,-47L180,22L255,-1Z" fill="#ab3874" stroke="#ab3874" stroke-width="1.51"/><path d="M43,-109L93,-73L170,-71Z" fill="#b83e7f" stroke="#b83e7f" stroke-width="1.51"/><path d="M180,22L169,127L246,48Z" fill="#a53670" stroke="#a53670" stroke-width="1.51"/><path d="M169,127L212,163L247,141Z" fill="#9e3269" stroke="#9e3269" stroke-width="1.51"/><path d="M107,279L124,334L180,242Z" fill="#962e63" stroke="#962e63" stroke-width="1.51"/><path d="M169,127L92,176L180,242Z" fill="#9e326a" stroke="#9e326a" stroke-width="1.51"/><path d="M180,242L124,334L208,351Z" fill="#922c60" stroke="#922c60" stroke-width="1.51"/><path d="M136,381L206,426L208,351Z" fill="#8b295a" stroke="#8b295a" stroke-width="1.51"/><path d="M169,127L180,242L212,163Z" fill="#9c3168" stroke="#9c3168" stroke-width="1.51"/><path d="M124,334L136,381L208,351Z" fill="#8f2b5d" stroke="#8f2b5d" stroke-width="1.51"/><path d="M125,129L92,176L169,127Z" fill="#a2346d" stroke="#a2346d" stroke-width="1.51"/><path d="M136,381L178,469L206,426Z" fill="#882857" stroke="#882857" stroke-width="1.51"/><path d="M93,41L125,129L169,127Z" fill="#a63671" stroke="#a63671" stroke-width="1.51"/><path d="M136,381L108,468L178,469Z" fill="#892858" stroke="#892858" stroke-width="1.51"/><path d="M93,41L169,127L180,22Z" fill="#a83772" stroke="#a83772" stroke-width="1.51"/><path d="M124,-37L180,22L186,-47Z" fill="#af3a77" stroke="#af3a77" stroke-width="1.51"/><path d="M170,-71L124,-37L186,-47Z" fill="#b23c7a" stroke="#b23c7a" stroke-width="1.51"/><path d="M108,468L163,519L178,469Z" fill="#852654" stroke="#852654" stroke-width="1.51"/><path d="M124,-37L93,41L180,22Z" fill="#ae3a77" stroke="#ae3a77" stroke-width="1.51"/><path d="M92,176L107,279L180,242Z" fill="#9b3167" stroke="#9b3167" stroke-width="1.51"/><path d="M93,-73L124,-37L170,-71Z" fill="#b43d7c" stroke="#b43d7c" stroke-width="1.51"/><path d="M108,468L117,548L163,519Z" fill="#842553" stroke="#842553" stroke-width="1.51"/><path d="M45,194L63,278L92,176Z" fill="#a0336b" stroke="#a0336b" stroke-width="1.51"/><path d="M92,176L63,278L107,279Z" fill="#9c3168" stroke="#9c3168" stroke-width="1.51"/><path d="M55,343L66,399L124,334Z" fill="#932d60" stroke="#932d60" stroke-width="1.51"/><path d="M93,41L49,97L125,129Z" fill="#aa3873" stroke="#aa3873" stroke-width="1.51"/><path d="M124,334L66,399L136,381Z" fill="#912c5e" stroke="#912c5e" stroke-width="1.51"/><path d="M66,399L108,468L136,381Z" fill="#8d2a5b" stroke="#8d2a5b" stroke-width="1.51"/><path d="M63,278L55,343L107,279Z" fill="#983065" stroke="#983065" stroke-width="1.51"/><path d="M108,468L35,533L117,548Z" fill="#852655" stroke="#852655" stroke-width="1.51"/><path d="M35,533L4,564L117,548Z" fill="#852654" stroke="#852654" stroke-width="1.51"/><path d="M107,279L55,343L124,334Z" fill="#962e63" stroke="#962e63" stroke-width="1.51"/><path d="M24,-29L93,41L124,-37Z" fill="#b23c7a" stroke="#b23c7a" stroke-width="1.51"/><path d="M93,-73L24,-29L124,-37Z" fill="#b63d7d" stroke="#b63d7d" stroke-width="1.51"/><path d="M49,97L92,176L125,129Z" fill="#a63670" stroke="#a63670" stroke-width="1.51"/><path d="M50,58L49,97L93,41Z" fill="#ad3976" stroke="#ad3976" stroke-width="1.51"/><path d="M26,496L35,533L108,468Z" fill="#892858" stroke="#892858" stroke-width="1.51"/><path d="M66,399L26,496L108,468Z" fill="#8c295a" stroke="#8c295a" stroke-width="1.51"/><path d="M49,97L45,194L92,176Z" fill="#a5356f" stroke="#a5356f" stroke-width="1.51"/><path d="M43,-109L24,-29L93,-73Z" fill="#b93f81" stroke="#b93f81" stroke-width="1.51"/><path d="M24,-29L50,58L93,41Z" fill="#b13b7a" stroke="#b13b7a" stroke-width="1.51"/><path d="M-8,99L45,194L49,97Z" fill="#a93773" stroke="#a93773" stroke-width="1.51"/><path d="M24,-29L-24,43L50,58Z" fill="#b33c7c" stroke="#b33c7c" stroke-width="1.51"/><path d="M6,267L55,343L63,278Z" fill="#9b3067" stroke="#9b3067" stroke-width="1.51"/><path d="M45,194L6,267L63,278Z" fill="#9f336b" stroke="#9f336b" stroke-width="1.51"/><path d="M55,343L-8,418L66,399Z" fill="#932d60" stroke="#932d60" stroke-width="1.51"/><path d="M-8,418L26,496L66,399Z" fill="#902b5e" stroke="#902b5e" stroke-width="1.51"/><path d="M-8,99L-42,174L45,194Z" fill="#a93773" stroke="#a93773" stroke-width="1.51"/><path d="M-31,-42L24,-29L43,-109Z" fill="#bb4082" stroke="#bb4082" stroke-width="1.51"/><path d="M-8,99L49,97L50,58Z" fill="#ad3976" stroke="#ad3976" stroke-width="1.51"/><path d="M6,267L-45,326L55,343Z" fill="#9b3167" stroke="#9b3167" stroke-width="1.51"/><path d="M-45,326L-8,418L55,343Z" fill="#972f64" stroke="#972f64" stroke-width="1.51"/><path d="M-24,43L-8,99L50,58Z" fill="#b03b79" stroke="#b03b79" stroke-width="1.51"/><path d="M-47,-117L-31,-42L43,-109Z" fill="#bf4286" stroke="#bf4286" stroke-width="1.51"/><path d="M-42,174L6,267L45,194Z" fill="#a4356f" stroke="#a4356f" stroke-width="1.51"/><path d="M-8,418L-44,480L26,496Z" fill="#8f2b5d" stroke="#8f2b5d" stroke-width="1.51"/><path d="M26,496L4,564L35,533Z" fill="#882757" stroke="#882757" stroke-width="1.51"/><path d="M-31,-42L-24,43L24,-29Z" fill="#b83e7f" stroke="#b83e7f" stroke-width="1.51"/><path d="M-44,480L4,564L26,496Z" fill="#8b295a" stroke="#8b295a" stroke-width="1.51"/><path d="M-31,-42L-65,7L-24,43Z" fill="#b83f80" stroke="#b83f80" stroke-width="1.51"/><path d="M-45,326L-82,421L-8,418Z" fill="#982f64" stroke="#982f64" stroke-width="1.51"/><path d="M-44,480L-113,552L4,564Z" fill="#8c295a" stroke="#8c295a" stroke-width="1.51"/><path d="M-42,174L-114,259L6,267Z" fill="#a5366f" stroke="#a5366f" stroke-width="1.51"/><path d="M-114,259L-66,303L6,267Z" fill="#a2346c" stroke="#a2346c" stroke-width="1.51"/><path d="M-66,303L-45,326L6,267Z" fill="#9e336a" stroke="#9e336a" stroke-width="1.51"/><path d="M-24,43L-73,41L-8,99Z" fill="#b33c7b" stroke="#b33c7b" stroke-width="1.51"/><path d="M-73,41L-111,114L-8,99Z" fill="#b33c7b" stroke="#b33c7b" stroke-width="1.51"/><path d="M-111,114L-80,162L-8,99Z" fill="#af3b78" stroke="#af3b78" stroke-width="1.51"/><path d="M-80,162L-42,174L-8,99Z" fill="#ac3976" stroke="#ac3976" stroke-width="1.51"/><path d="M-82,421L-44,480L-8,418Z" fill="#932c60" stroke="#932c60" stroke-width="1.51"/><path d="M-80,162L-114,259L-42,174Z" fill="#aa3873" stroke="#aa3873" stroke-width="1.51"/><path d="M-47,-117L-99,-69L-31,-42Z" fill="#c14387" stroke="#c14387" stroke-width="1.51"/><path d="M-65,7L-73,41L-24,43Z" fill="#b73e7f" stroke="#b73e7f" stroke-width="1.51"/><path d="M-112,477L-113,552L-44,480Z" fill="#902c5e" stroke="#902c5e" stroke-width="1.51"/><path d="M-99,-69L-65,7L-31,-42Z" fill="#bd4184" stroke="#bd4184" stroke-width="1.51"/><path d="M-66,303L-82,421L-45,326Z" fill="#9c3168" stroke="#9c3168" stroke-width="1.51"/><path d="M-82,421L-112,477L-44,480Z" fill="#942d61" stroke="#942d61" stroke-width="1.51"/><path d="M-114,259L-82,421L-66,303Z" fill="#9f336a" stroke="#9f336a" stroke-width="1.51"/><path d="M-99,-69L-73,41L-65,7Z" fill="#bc4082" stroke="#bc4082" stroke-width="1.51"/><path d="M-99,-69L-111,114L-73,41Z" fill="#b93f81" stroke="#b93f81" stroke-width="1.51"/><path d="M-114,259L-112,477L-82,421Z" fill="#9b3167" stroke="#9b3167" stroke-width="1.51"/><path d="M-111,114L-114,259L-80,162Z" fill="#ad3976" stroke="#ad3976" stroke-width="1.51"/><path d="M-114,259L-113,552L-112,477Z" fill="#982f65" stroke="#982f65" stroke-width="1.51"/></svg>