<svg xmlns="http://www.w3.org/2000/svg" width="800" height="450"><path d="M-47,-117L43,-109L315,-114Z" fill="#28beb9" stroke="#28beb9" stroke-width="1.51"/><path d="M249,558L4,564L373,561Z" fill="#168984" stroke="#168984" stroke-width="1.51"/><path d="M315,-114L408,-102L588,-94Z" fill="#23aea8" stroke="#23aea8" stroke-width="1.51"/><path d="M740,542L655,551L811,550Z" fill="#0e726d" stroke="#0e726d" stroke-width="1.51"/><path d="M826,122L829,170L872,93Z" fill="#168a85" stroke="#168a85" stroke-width="1.51"/><path d="M588,-94L659,-92L874,-101Z" fill="#1ea19b" stroke="#1ea19b" stroke-width="1.51"/><path d="M315,-114L588,-94L874,-101Z" fill="#20a6a1" stroke="#20a6a1" stroke-width="1.51"/><path d="M659,-92L765,-76L874,-101Z" fill="#1d9d98" stroke="#1d9d98" stroke-width="1.51"/><path d="M872,93L829,170L880,216Z" fill="#168782" stroke="#168782" stroke-width="1.51"/><path d="M847,343L884,389L888,309Z" fill="#107a75" stroke="#107a75" stroke-width="1.51"/><path d="M880,216L869,276L888,309Z" fill="#127f7a" stroke="#127f7a" stroke-width="1.51"/><path d="M872,93L880,216L894,77Z" fill="#158883" stroke="#158883" stroke-width="1.51"/><path d="M880,216L888,309L894,77Z" fill="#14837e" stroke="#14837e" stroke-width="1.51"/><path d="M799,-19L807,28L896,-43Z" fill="#1a948f" stroke="#1a948f" stroke-width="1.51"/><path d="M807,28L894,77L896,-43Z" fill="#19908b" stroke="#19908b" stroke-width="1.51"/><path d="M811,550L655,551L896,566Z" fill="#0d6f6a" stroke="#0d6f6a" stroke-width="1.51"/><path d="M655,551L523,561L896,566Z" fill="#0f736e" stroke="#0f736e" stroke-width="1.51"/><path d="M896,-43L894,77L905,477Z" fill="#14857f" stroke="#14857f" stroke-width="1.51"/><path d="M884,389L825,450L905,477Z" fill="#0f736e" stroke="#0f736e" stroke-width="1.51"/><path d="M811,550L896,566L905,477Z" fill="#0c6d68" stroke="#0c6d68" stroke-width="1.51"/><path d="M825,450L811,550L905,477Z" fill="#0d716c" stroke="#0d716c" stroke-width="1.51"/><path d="M888,309L884,389L905,477Z" fill="#0f7670" stroke="#0f7670" stroke-width="1.51"/><path d="M894,77L888,309L905,477Z" fill="#127d78" stroke="#127d78" stroke-width="1.51"/><path d="M832,387L825,450L884,389Z" fill="#0f7671" stroke="#0f7671" stroke-width="1.51"/><path d="M807,28L872,93L894,77Z" fill="#178e88" stroke="#178e88" stroke-width="1.51"/><path d="M822,-67L799,-19L896,-43Z" fill="#1b9791" stroke="#1b9791" stroke-width="1.51"/><path d="M874,-101L822,-67L896,-43Z" fill="#1b9791" stroke="#1b9791" stroke-width="1.51"/><path d="M830,232L869,276L880,216Z" fill="#13827c" stroke="#13827c" stroke-width="1.51"/><path d="M765,-76L822,-67L874,-101Z" fill="#1c9994" stroke="#1c9994" stroke-width="1.51"/><path d="M847,343L832,387L884,389Z" fill="#107873" stroke="#107873" stroke-width="1.51"/><path d="M869,276L847,343L888,309Z" fill="#117c77" stroke="#117c77" stroke-width="1.51"/><path d="M408,-102L457,-91L588,-94Z" fill="#22aba6" stroke="#22aba6" stroke-width="1.51"/><path d="M829,170L830,232L880,216Z" fill="#14857f" stroke="#14857f" stroke-width="1.51"/><path d="M807,28L826,122L872,93Z" fill="#178e88" stroke="#178e88" stroke-width="1.51"/><path d="M773,254L847,343L869,276Z" fill="#127f7a" stroke="#127f7a" stroke-width="1.51"/><path d="M773,254L772,338L847,343Z" fill="#137f7a" stroke="#137f7a" stroke-width="1.51"/><path d="M830,232L773,254L869,276Z" fill="#14827d" stroke="#14827d" stroke-width="1.51"/><path d="M772,338L832,387L847,343Z" fill="#117c76" stroke="#117c76" stroke-width="1.51"/><path d="M619,546L523,561L655,551Z" fill="#107873" stroke="#107873" stroke-width="1.51"/><path d="M736,28L769,142L807,28Z" fill="#19928c" stroke="#19928c" stroke-width="1.51"/><path d="M748,442L740,542L811,550Z" fill="#0e736e" stroke="#0e736e" stroke-width="1.51"/><path d="M748,442L811,550L825,450Z" fill="#0f746e" stroke="#0f746e" stroke-width="1.51"/><path d="M749,406L748,442L825,450Z" fill="#107873" stroke="#107873" stroke-width="1.51"/><path d="M807,28L769,142L826,122Z" fill="#188e89" stroke="#188e89" stroke-width="1.51"/><path d="M729,174L773,254L829,170Z" fill="#168883" stroke="#168883" stroke-width="1.51"/><path d="M769,142L729,174L829,170Z" fill="#168b85" stroke="#168b85" stroke-width="1.51"/><path d="M826,122L769,142L829,170Z" fill="#168a85" stroke="#168a85" stroke-width="1.51"/><path d="M829,170L773,254L830,232Z" fill="#158580" stroke="#158580" stroke-width="1.51"/><path d="M749,406L825,450L832,387Z" fill="#107873" stroke="#107873" stroke-width="1.51"/><path d="M772,338L749,406L832,387Z" fill="#127c76" stroke="#127c76" stroke-width="1.51"/><path d="M765,-76L799,-19L822,-67Z" fill="#1b9994" stroke="#1b9994" stroke-width="1.51"/><path d="M799,-19L746,-6L807,28Z" fill="#1b9690" stroke="#1b9690" stroke-width="1.51"/><path d="M736,28L692,71L769,142Z" fill="#19938d" stroke="#19938d" stroke-width="1.51"/><path d="M746,-6L736,28L807,28Z" fill="#1a9590" stroke="#1a9590" stroke-width="1.51"/><path d="M765,-76L746,-6L799,-19Z" fill="#1b9994" stroke="#1b9994" stroke-width="1.51"/><path d="M694,453L740,542L748,442Z" fill="#107772" stroke="#107772" stroke-width="1.51"/><path d="M692,71L673,101L769,142Z" fill="#19928d" stroke="#19928d" stroke-width="1.51"/><path d="M657,310L749,406L772,338Z" fill="#13807b" stroke="#13807b" stroke-width="1.51"/><path d="M683,246L657,310L772,338Z" fill="#15857f" stroke="#15857f" stroke-width="1.51"/><path d="M729,174L692,213L773,254Z" fill="#168984" stroke="#168984" stroke-width="1.51"/><path d="M683,246L772,338L773,254Z" fill="#15847f" stroke="#15847f" stroke-width="1.51"/><path d="M692,213L683,246L773,254Z" fill="#168883" stroke="#168883" stroke-width="1.51"/><path d="M673,101L729,174L769,142Z" fill="#188f8a" stroke="#188f8a" stroke-width="1.51"/><path d="M675,-19L746,-6L765,-76Z" fill="#1c9b95" stroke="#1c9b95" stroke-width="1.51"/><path d="M657,310L693,426L749,406Z" fill="#137f7a" stroke="#137f7a" stroke-width="1.51"/><path d="M659,-92L675,-19L765,-76Z" fill="#1d9e99" stroke="#1d9e99" stroke-width="1.51"/><path d="M694,453L655,551L740,542Z" fill="#107671" stroke="#107671" stroke-width="1.51"/><path d="M693,426L748,442L749,406Z" fill="#107a75" stroke="#107a75" stroke-width="1.51"/><path d="M693,426L694,453L748,442Z" fill="#117a75" stroke="#117a75" stroke-width="1.51"/><path d="M675,-19L736,28L746,-6Z" fill="#1c9893" stroke="#1c9893" stroke-width="1.51"/><path d="M675,-19L692,71L736,28Z" fill="#1b9893" stroke="#1b9893" stroke-width="1.51"/><path d="M673,101L692,213L729,174Z" fill="#178e89" stroke="#178e89" stroke-width="1.51"/><path d="M117,548L4,564L249,558Z" fill="#188e88" stroke="#188e88" stroke-width="1.51"/><path d="M457,-91L525,-81L588,-94Z" fill="#21a9a3" stroke="#21a9a3" stroke-width="1.51"/><path d="M590,491L619,546L655,551Z" fill="#107873" stroke="#107873" stroke-width="1.51"/><path d="M673,101L623,110L692,213Z" fill="#19928c" stroke="#19928c" stroke-width="1.51"/><path d="M623,110L598,193L692,213Z" fill="#18918b" stroke="#18918b" stroke-width="1.51"/><path d="M675,-19L608,28L692,71Z" fill="#1c9a95" stroke="#1c9a95" stroke-width="1.51"/><path d="M657,310L606,336L693,426Z" fill="#14837d" stroke="#14837d" stroke-width="1.51"/><path d="M606,336L597,417L693,426Z" fill="#14817c" stroke="#14817c" stroke-width="1.51"/><path d="M590,491L655,551L694,453Z" fill="#107974" stroke="#107974" stroke-width="1.51"/><path d="M693,426L597,417L694,453Z" fill="#127d78" stroke="#127d78" stroke-width="1.51"/><path d="M597,417L590,491L694,453Z" fill="#127d78" stroke="#127d78" stroke-width="1.51"/><path d="M598,240L683,246L692,213Z" fill="#178b86" stroke="#178b86" stroke-width="1.51"/><path d="M598,193L598,240L692,213Z" fill="#188e88" stroke="#188e88" stroke-width="1.51"/><path d="M608,28L673,101L692,71Z" fill="#1b9792" stroke="#1b9792" stroke-width="1.51"/><path d="M608,28L623,110L673,101Z" fill="#1b9792" stroke="#1b9792" stroke-width="1.51"/><path d="M598,240L657,310L683,246Z" fill="#168984" stroke="#168984" stroke-width="1.51"/><path d="M588,-94L590,-4L659,-92Z" fill="#1fa29d" stroke="#1fa29d" stroke-width="1.51"/><path d="M659,-92L590,-4L675,-19Z" fill="#1e9f99" stroke="#1e9f99" stroke-width="1.51"/><path d="M590,-4L608,28L675,-19Z" fill="#1d9d98" stroke="#1d9d98" stroke-width="1.51"/><path d="M598,240L606,336L657,310Z" fill="#168883" stroke="#168883" stroke-width="1.51"/><path d="M566,234L561,340L598,240Z" fill="#188c87" stroke="#188c87" stroke-width="1.51"/><path d="M598,240L561,340L606,336Z" fill="#168984" stroke="#168984" stroke-width="1.51"/><path d="M561,340L597,417L606,336Z" fill="#158580" stroke="#158580" stroke-width="1.51"/><path d="M536,130L554,162L623,110Z" fill="#1b9691" stroke="#1b9691" stroke-width="1.51"/><path d="M608,28L539,63L623,110Z" fill="#1c9a95" stroke="#1c9a95" stroke-width="1.51"/><path d="M539,63L536,130L623,110Z" fill="#1b9993" stroke="#1b9993" stroke-width="1.51"/><path d="M554,162L598,193L623,110Z" fill="#1a948e" stroke="#1a948e" stroke-width="1.51"/><path d="M560,420L590,491L597,417Z" fill="#13807b" stroke="#13807b" stroke-width="1.51"/><path d="M590,491L559,495L619,546Z" fill="#117b76" stroke="#117b76" stroke-width="1.51"/><path d="M559,495L523,561L619,546Z" fill="#117a75" stroke="#117a75" stroke-width="1.51"/><path d="M525,-81L532,-12L588,-94Z" fill="#20a6a0" stroke="#20a6a0" stroke-width="1.51"/><path d="M588,-94L532,-12L590,-4Z" fill="#1fa39d" stroke="#1fa39d" stroke-width="1.51"/><path d="M560,420L559,495L590,491Z" fill="#137f7a" stroke="#137f7a" stroke-width="1.51"/><path d="M561,340L560,420L597,417Z" fill="#15847f" stroke="#15847f" stroke-width="1.51"/><path d="M566,234L598,240L598,193Z" fill="#188f8a" stroke="#188f8a" stroke-width="1.51"/><path d="M590,-4L539,63L608,28Z" fill="#1d9d98" stroke="#1d9d98" stroke-width="1.51"/><path d="M532,-12L539,63L590,-4Z" fill="#1ea09a" stroke="#1ea09a" stroke-width="1.51"/><path d="M554,162L566,234L598,193Z" fill="#19928d" stroke="#19928d" stroke-width="1.51"/><path d="M457,304L561,340L566,234Z" fill="#188d88" stroke="#188d88" stroke-width="1.51"/><path d="M477,407L454,493L559,495Z" fill="#14837e" stroke="#14837e" stroke-width="1.51"/><path d="M477,407L559,495L560,420Z" fill="#14837d" stroke="#14837d" stroke-width="1.51"/><path d="M477,407L560,420L561,340Z" fill="#158681" stroke="#158681" stroke-width="1.51"/><path d="M554,162L471,182L566,234Z" fill="#1a948e" stroke="#1a948e" stroke-width="1.51"/><path d="M471,182L458,258L566,234Z" fill="#1a938e" stroke="#1a938e" stroke-width="1.51"/><path d="M458,258L457,304L566,234Z" fill="#18908b" stroke="#18908b" stroke-width="1.51"/><path d="M457,304L477,407L561,340Z" fill="#168a85" stroke="#168a85" stroke-width="1.51"/><path d="M454,493L523,561L559,495Z" fill="#137e79" stroke="#137e79" stroke-width="1.51"/><path d="M536,130L471,182L554,162Z" fill="#1b9791" stroke="#1b9791" stroke-width="1.51"/><path d="M454,493L459,561L523,561Z" fill="#137f79" stroke="#137f79" stroke-width="1.51"/><path d="M525,-81L457,-91L532,-12Z" fill="#21a8a2" stroke="#21a8a2" stroke-width="1.51"/><path d="M457,-91L446,3L532,-12Z" fill="#20a7a1" stroke="#20a7a1" stroke-width="1.51"/><path d="M446,3L450,55L532,-12Z" fill="#1fa39d" stroke="#1fa39d" stroke-width="1.51"/><path d="M532,-12L450,55L539,63Z" fill="#1ea09b" stroke="#1ea09b" stroke-width="1.51"/><path d="M448,124L536,130L539,63Z" fill="#1c9b95" stroke="#1c9b95" stroke-width="1.51"/><path d="M450,55L448,124L539,63Z" fill="#1e9f99" stroke="#1e9f99" stroke-width="1.51"/><path d="M448,124L471,182L536,130Z" fill="#1b9994" stroke="#1b9994" stroke-width="1.51"/><path d="M386,-15L446,3L457,-91Z" fill="#21a9a4" stroke="#21a9a4" stroke-width="1.51"/><path d="M396,338L421,401L457,304Z" fill="#178e88" stroke="#178e88" stroke-width="1.51"/><path d="M375,205L458,258L471,182Z" fill="#1b9791" stroke="#1b9791" stroke-width="1.51"/><path d="M457,304L421,401L477,407Z" fill="#178b86" stroke="#178b86" stroke-width="1.51"/><path d="M421,401L454,493L477,407Z" fill="#168782" stroke="#168782" stroke-width="1.51"/><path d="M421,401L391,495L454,493Z" fill="#158681" stroke="#158681" stroke-width="1.51"/><path d="M408,-102L386,-15L457,-91Z" fill="#22aca7" stroke="#22aca7" stroke-width="1.51"/><path d="M454,493L391,495L459,561Z" fill="#13827d" stroke="#13827d" stroke-width="1.51"/><path d="M448,124L375,205L471,182Z" fill="#1c9a95" stroke="#1c9a95" stroke-width="1.51"/><path d="M398,113L375,205L448,124Z" fill="#1d9d97" stroke="#1d9d97" stroke-width="1.51"/><path d="M398,113L448,124L450,55Z" fill="#1e9f9a" stroke="#1e9f9a" stroke-width="1.51"/><path d="M384,75L398,113L450,55Z" fill="#1ea29c" stroke="#1ea29c" stroke-width="1.51"/><path d="M404,282L457,304L458,258Z" fill="#19928d" stroke="#19928d" stroke-width="1.51"/><path d="M375,205L404,282L458,258Z" fill="#1b9690" stroke="#1b9690" stroke-width="1.51"/><path d="M391,495L373,561L459,561Z" fill="#13827d" stroke="#13827d" stroke-width="1.51"/><path d="M404,282L396,338L457,304Z" fill="#19918c" stroke="#19918c" stroke-width="1.51"/><path d="M386,-15L384,75L446,3Z" fill="#20a6a1" stroke="#20a6a1" stroke-width="1.51"/><path d="M446,3L384,75L450,55Z" fill="#1fa39e" stroke="#1fa39e" stroke-width="1.51"/><path d="M43,-109L170,-71L315,-114Z" fill="#27bab4" stroke="#27bab4" stroke-width="1.51"/><path d="M320,469L391,495L421,401Z" fill="#168984" stroke="#168984" stroke-width="1.51"/><path d="M321,396L320,469L421,401Z" fill="#178c87" stroke="#178c87" stroke-width="1.51"/><path d="M396,338L321,396L421,401Z" fill="#188e88" stroke="#188e88" stroke-width="1.51"/><path d="M341,65L384,75L386,-15Z" fill="#20a6a1" stroke="#20a6a1" stroke-width="1.51"/><path d="M332,-2L341,65L386,-15Z" fill="#21a9a3" stroke="#21a9a3" stroke-width="1.51"/><path d="M317,129L375,205L398,113Z" fill="#1e9f99" stroke="#1e9f99" stroke-width="1.51"/><path d="M375,205L307,233L404,282Z" fill="#1c9993" stroke="#1c9993" stroke-width="1.51"/><path d="M315,-114L386,-15L408,-102Z" fill="#23afa9" stroke="#23afa9" stroke-width="1.51"/><path d="M315,-114L332,-2L386,-15Z" fill="#23aea8" stroke="#23aea8" stroke-width="1.51"/><path d="M336,513L373,561L391,495Z" fill="#148580" stroke="#148580" stroke-width="1.51"/><path d="M307,233L284,313L404,282Z" fill="#1c9792" stroke="#1c9792" stroke-width="1.51"/><path d="M305,344L396,338L404,282Z" fill="#19928d" stroke="#19928d" stroke-width="1.51"/><path d="M284,313L305,344L404,282Z" fill="#1a958f" stroke="#1a958f" stroke-width="1.51"/><path d="M316,216L307,233L375,205Z" fill="#1d9b96" stroke="#1d9b96" stroke-width="1.51"/><path d="M305,344L321,396L396,338Z" fill="#19918c" stroke="#19918c" stroke-width="1.51"/><path d="M384,75L317,129L398,113Z" fill="#1ea29c" stroke="#1ea29c" stroke-width="1.51"/><path d="M341,65L317,129L384,75Z" fill="#1fa49e" stroke="#1fa49e" stroke-width="1.51"/><path d="M315,-114L281,-76L332,-2Z" fill="#24b1ab" stroke="#24b1ab" stroke-width="1.51"/><path d="M320,469L336,513L391,495Z" fill="#158882" stroke="#158882" stroke-width="1.51"/><path d="M317,129L316,216L375,205Z" fill="#1d9e98" stroke="#1d9e98" stroke-width="1.51"/><path d="M336,513L249,558L373,561Z" fill="#158680" stroke="#158680" stroke-width="1.51"/><path d="M273,269L284,313L307,233Z" fill="#1c9a94" stroke="#1c9a94" stroke-width="1.51"/><path d="M278,212L316,216L317,129Z" fill="#1e9f9a" stroke="#1e9f9a" stroke-width="1.51"/><path d="M269,426L320,469L321,396Z" fill="#188e89" stroke="#188e89" stroke-width="1.51"/><path d="M255,-1L246,48L332,-2Z" fill="#22ada7" stroke="#22ada7" stroke-width="1.51"/><path d="M332,-2L246,48L341,65Z" fill="#21aaa4" stroke="#21aaa4" stroke-width="1.51"/><path d="M246,48L317,129L341,65Z" fill="#21a7a1" stroke="#21a7a1" stroke-width="1.51"/><path d="M281,-76L255,-1L332,-2Z" fill="#23afa9" stroke="#23afa9" stroke-width="1.51"/><path d="M320,469L268,473L336,513Z" fill="#168a85" stroke="#168a85" stroke-width="1.51"/><path d="M268,473L249,558L336,513Z" fill="#168984" stroke="#168984" stroke-width="1.51"/><path d="M247,141L278,212L317,129Z" fill="#1fa29d" stroke="#1fa29d" stroke-width="1.51"/><path d="M170,-71L281,-76L315,-114Z" fill="#25b5af" stroke="#25b5af" stroke-width="1.51"/><path d="M246,48L247,141L317,129Z" fill="#21a6a1" stroke="#21a6a1" stroke-width="1.51"/><path d="M269,426L268,473L320,469Z" fill="#178d88" stroke="#178d88" stroke-width="1.51"/><path d="M305,344L269,426L321,396Z" fill="#19918c" stroke="#19918c" stroke-width="1.51"/><path d="M278,212L307,233L316,216Z" fill="#1e9d97" stroke="#1e9d97" stroke-width="1.51"/><path d="M208,351L269,426L305,344Z" fill="#1a948f" stroke="#1a948f" stroke-width="1.51"/><path d="M278,212L273,269L307,233Z" fill="#1d9c97" stroke="#1d9c97" stroke-width="1.51"/><path d="M284,313L208,351L305,344Z" fill="#1b9691" stroke="#1b9691" stroke-width="1.51"/><path d="M208,351L206,426L269,426Z" fill="#1a938e" stroke="#1a938e" stroke-width="1.51"/><path d="M247,141L212,163L278,212Z" fill="#1fa39d" stroke="#1fa39d" stroke-width="1.51"/><path d="M180,242L273,269L278,212Z" fill="#1d9e98" stroke="#1d9e98" stroke-width="1.51"/><path d="M186,-47L255,-1L281,-76Z" fill="#25b3ad" stroke="#25b3ad" stroke-width="1.51"/><path d="M273,269L208,351L284,313Z" fill="#1b9993" stroke="#1b9993" stroke-width="1.51"/><path d="M170,-71L186,-47L281,-76Z" fill="#26b6b0" stroke="#26b6b0" stroke-width="1.51"/><path d="M178,469L249,558L268,473Z" fill="#178d87" stroke="#178d87" stroke-width="1.51"/><path d="M212,163L180,242L278,212Z" fill="#1ea29c" stroke="#1ea29c" stroke-width="1.51"/><path d="M178,469L163,519L249,558Z" fill="#178d88" stroke="#178d88" stroke-width="1.51"/><path d="M206,426L268,473L269,426Z" fill="#18908b" stroke="#18908b" stroke-width="1.51"/><path d="M180,242L208,351L273,269Z" fill="#1c9c96" stroke="#1c9c96" stroke-width="1.51"/><path d="M246,48L169,127L247,141Z" fill="#21a9a3" stroke="#21a9a3" stroke-width="1.51"/><path d="M206,426L178,469L268,473Z" fill="#18908b" stroke="#18908b" stroke-width="1.51"/><path d="M163,519L117,548L249,558Z" fill="#178c87" stroke="#178c87" stroke-width="1.51"/><path d="M180,22L246,48L255,-1Z" fill="#23afa9" stroke="#23afa9" stroke-width="1.51"/><path d="M186,-47L180,22L255,-1Z" fill="#24b2ac" stroke="#24b2ac" stroke-width="1.51"/><path d="M43,-109L93,-73L170,-71Z" fill="#28bdb7" stroke="#28bdb7" stroke-width="1.51"/><path d="M180,22L169,127L246,48Z" fill="#23ada7" stroke="#23ada7" stroke-width="1.51"/><path d="M169,127L212,163L247,141Z" fill="#21a7a1" stroke="#21a7a1" stroke-width="1.51"/><path d="M107,279L124,334L180,242Z" fill="#1ea09a" stroke="#1ea09a" stroke-width="1.51"/><path d="M169,127L92,176L180,242Z" fill="#20a7a1" stroke="#20a7a1" stroke-width="1.51"/><path d="M180,242L124,334L208,351Z" fill="#1d9d97" stroke="#1d9d97" stroke-width="1.51"/><path d="M136,381L206,426L208,351Z" fill="#1b9791" stroke="#1b9791" stroke-width="1.51"/><path d="M169,127L180,242L212,163Z" fill="#20a5a0" stroke="#20a5a0" stroke-width="1.51"/><path d="M124,334L136,381L208,351Z" fill="#1c9a95" stroke="#1c9a95" stroke-width="1.51"/><path d="M125,129L92,176L169,127Z" fill="#21aba5" stroke="#21aba5" stroke-width="1.51"/><path d="M136,381L178,469L206,426Z" fill="#1a958f" stroke="#1a958f" stroke-width="1.51"/><path d="M93,41L125,129L169,127Z" fill="#23aea8" stroke="#23aea8" stroke-width="1.51"/><path d="M136,381L108,468L178,469Z" fill="#1a9590" stroke="#1a9590" stroke-width="1.51"/><path d="M93,41L169,127L180,22Z" fill="#24afa9" stroke="#24afa9" stroke-width="1.51"/><path d="M124,-37L180,22L186,-47Z" fill="#25b5af" stroke="#25b5af" stroke-width="1.51"/><path d="M170,-71L124,-37L186,-47Z" fill="#26b7b1" stroke="#26b7b1" stroke-width="1.51"/><path d="M108,468L163,519L178,469Z" fill="#19918c" stroke="#19918c" stroke-width="1.51"/><path d="M124,-37L93,41L180,22Z" fill="#25b4ae" stroke="#25b4ae" stroke-width="1.51"/><path d="M92,176L107,279L180,242Z" fill="#1fa49e" stroke="#1fa49e" stroke-width="1.51"/><path d="M93,-73L124,-37L170,-71Z" fill="#27b9b3" stroke="#27b9b3" stroke-width="1.51"/><path d="M108,468L117,548L163,519Z" fill="#18908b" stroke="#18908b" stroke-width="1.51"/><path d="M45,194L63,278L92,176Z" fill="#21a8a3" stroke="#21a8a3" stroke-width="1.51"/><path d="M92,176L63,278L107,279Z" fill="#20a5a0" stroke="#20a5a0" stroke-width="1.51"/><path d="M55,343L66,399L124,334Z" fill="#1d9e98" stroke="#1d9e98" stroke-width="1.51"/><path d="M93,41L49,97L125,129Z" fill="#24b0ab" stroke="#24b0ab" stroke-width="1.51"/><path d="M124,334L66,399L136,381Z" fill="#1c9c96" stroke="#1c9c96" stroke-width="1.51"/><path d="M66,399L108,468L136,381Z" fill="#1b9893" stroke="#1b9893" stroke-width="1.51"/><path d="M63,278L55,343L107,279Z" fill="#1fa29c" stroke="#1fa29c" stroke-width="1.51"/><path d="M108,468L35,533L117,548Z" fill="#19928d" stroke="#19928d" stroke-width="1.51"/><path d="M35,533L4,564L117,548Z" fill="#19928c" stroke="#19928c" stroke-width="1.51"/><path d="M107,279L55,343L124,334Z" fill="#1ea09a" stroke="#1ea09a" stroke-width="1.51"/><path d="M24,-29L93,41L124,-37Z" fill="#26b8b2" stroke="#26b8b2" stroke-width="1.51"/><path d="M93,-73L24,-29L124,-37Z" fill="#27bbb5" stroke="#27bbb5" stroke-width="1.51"/><path d="M49,97L92,176L125,129Z" fill="#23ada7" stroke="#23ada7" stroke-width="1.51"/><path d="M50,58L49,97L93,41Z" fill="#25b3ae" stroke="#25b3ae" stroke-width="1.51"/><path d="M26,496L35,533L108,468Z" fill="#1a958f" stroke="#1a958f" stroke-width="1.51"/><path d="M66,399L26,496L108,468Z" fill="#1b9792" stroke="#1b9792" stroke-width="1.51"/><path d="M49,97L45,194L92,176Z" fill="#23ada7" stroke="#23ada7" stroke-width="1.51"/><path d="M43,-109L24,-29L93,-73Z" fill="#28beb8" stroke="#28beb8" stroke-width="1.51"/><path d="M24,-29L50,58L93,41Z" fill="#26b7b1" stroke="#26b7b1" stroke-width="1.51"/><path d="M-8,99L45,194L49,97Z" fill="#24b1ab" stroke="#24b1ab" stroke-width="1.51"/><path d="M24,-29L-24,43L50,58Z" fill="#26b9b3" stroke="#26b9b3" stroke-width="1.51"/><path d="M6,267L55,343L63,278Z" fill="#1fa49f" stroke="#1fa49f" stroke-width="1.51"/><path d="M45,194L6,267L63,278Z" fill="#20a8a2" stroke="#20a8a2" stroke-width="1.51"/><path d="M55,343L-8,418L66,399Z" fill="#1d9e98" stroke="#1d9e98" stroke-width="1.51"/><path d="M-8,418L26,496L66,399Z" fill="#1c9a95" stroke="#1c9a95" stroke-width="1.51"/><path d="M-8,99L-42,174L45,194Z" fill="#24b0aa" stroke="#24b0aa" stroke-width="1.51"/><path d="M-31,-42L24,-29L43,-109Z" fill="#29bfb9" stroke="#29bfb9" stroke-width="1.51"/><path d="M-8,99L49,97L50,58Z" fill="#25b4ae" stroke="#25b4ae" stroke-width="1.51"/><path d="M6,267L-45,326L55,343Z" fill="#20a59f" stroke="#20a59f" stroke-width="1.51"/><path d="M-45,326L-8,418L55,343Z" fill="#1fa29c" stroke="#1fa29c" stroke-width="1.51"/><path d="M-24,43L-8,99L50,58Z" fill="#26b6b0" stroke="#26b6b0" stroke-width="1.51"/><path d="M-47,-117L-31,-42L43,-109Z" fill="#2ac3bd" stroke="#2ac3bd" stroke-width="1.51"/><path d="M-42,174L6,267L45,194Z" fill="#22aca6" stroke="#22aca6" stroke-width="1.51"/><path d="M-8,418L-44,480L26,496Z" fill="#1c9a95" stroke="#1c9a95" stroke-width="1.51"/><path d="M26,496L4,564L35,533Z" fill="#1a948f" stroke="#1a948f" stroke-width="1.51"/><path d="M-31,-42L-24,43L24,-29Z" fill="#28bdb7" stroke="#28bdb7" stroke-width="1.51"/><path d="M-44,480L4,564L26,496Z" fill="#1b9791" stroke="#1b9791" stroke-width="1.51"/><path d="M-31,-42L-65,7L-24,43Z" fill="#28bdb7" stroke="#28bdb7" stroke-width="1.51"/><path d="M-45,326L-82,421L-8,418Z" fill="#1ea19c" stroke="#1ea19c" stroke-width="1.51"/><path d="M-44,480L-113,552L4,564Z" fill="#1b9892" stroke="#1b9892" stroke-width="1.51"/><path d="M-42,174L-114,259L6,267Z" fill="#22ada7" stroke="#22ada7" stroke-width="1.51"/><path d="M-114,259L-66,303L6,267Z" fill="#22aaa4" stroke="#22aaa4" stroke-width="1.51"/><path d="M-66,303L-45,326L6,267Z" fill="#21a8a2" stroke="#21a8a2" stroke-width="1.51"/><path d="M-24,43L-73,41L-8,99Z" fill="#27b9b3" stroke="#27b9b3" stroke-width="1.51"/><path d="M-73,41L-111,114L-8,99Z" fill="#26b8b2" stroke="#26b8b2" stroke-width="1.51"/><path d="M-111,114L-80,162L-8,99Z" fill="#25b5b0" stroke="#25b5b0" stroke-width="1.51"/><path d="M-80,162L-42,174L-8,99Z" fill="#24b3ad" stroke="#24b3ad" stroke-width="1.51"/><path d="M-82,421L-44,480L-8,418Z" fill="#1d9e98" stroke="#1d9e98" stroke-width="1.51"/><path d="M-80,162L-114,259L-42,174Z" fill="#24b1ab" stroke="#24b1ab" stroke-width="1.51"/><path d="M-47,-117L-99,-69L-31,-42Z" fill="#2bc4be" stroke="#2bc4be" stroke-width="1.51"/><path d="M-65,7L-73,41L-24,43Z" fill="#28bcb6" stroke="#28bcb6" stroke-width="1.51"/><path d="M-112,477L-113,552L-44,480Z" fill="#1d9b96" stroke="#1d9b96" stroke-width="1.51"/><path d="M-99,-69L-65,7L-31,-42Z" fill="#2ac1bb" stroke="#2ac1bb" stroke-width="1.51"/><path d="M-66,303L-82,421L-45,326Z" fill="#20a59f" stroke="#20a59f" stroke-width="1.51"/><path d="M-82,421L-112,477L-44,480Z" fill="#1d9e98" stroke="#1d9e98" stroke-width="1.51"/><path d="M-114,259L-82,421L-66,303Z" fill="#21a8a2" stroke="#21a8a2" stroke-width="1.51"/><path d="M-99,-69L-73,41L-65,7Z" fill="#29c0ba" stroke="#29c0ba" stroke-width="1.51"/><path d="M-99,-69L-111,114L-73,41Z" fill="#28beb8" stroke="#28beb8" stroke-width="1.51"/><path d="M-114,259L-112,477L-82,421Z" fill="#1fa59f" stroke="#1fa59f" stroke-width="1.51"/><path d="M-111,114L-114,259L-80,162Z" fill="#25b4ae" stroke="#25b4ae" stroke-width="1.51"/><path d="M-114,259L-113,552L-112,477Z" fill="#1fa29c" stroke="#1fa29c" stroke-width="1.51"/></svg>